{
.appVersion = "1075";
copyright = "Copyright 2011 The Aubrey Project Authors (https://github.com/cyrealtype/Aubrey)";
customParameters = (
{
name = licenseURL;
value = "http://scripts.sil.org/OFL";
},
{
name = license;
value = "This Font Software is licensed under the SIL Open Font License, Version 1.1. This license is available with a FAQ at: http://scripts.sil.org/OFL";
},
{
name = fsType;
value = (
);
},
{
name = "Use Typo Metrics";
value = 1;
},
{
name = "Disable Last Change";
value = 1;
},
{
name = "Use Line Breaks";
value = 1;
}
);
date = "2017-11-21 08:09:02 +0000";
designer = "Gayaneh Bagdasaryan";
disablesAutomaticAlignment = 1;
familyName = Aubrey;
featurePrefixes = (
{
code = "@_KERN_quotesingle = [quotesingle quotedbl];
@_KERN_hyphen = [hyphen endash emdash uni00AD];
@_KERN_period = [period comma quotesinglbase quotedblbase];
@_KERN_N = [N Ntilde];
@_KERN_U = [U Ugrave Uacute Ucircumflex Udieresis];
@_KERN_Y = [Y Yacute];
@_KERN_i = [i j dotlessi igrave iacute icircumflex idieresis];
@_KERN_u = [u ugrave uacute ucircumflex udieresis];
@_KERN_y = [y yacute ydieresis];
@_KERN_quoteleft = [quoteleft quotedblleft];
@_KERN_quoteright = [quoteright quotedblright];
@_KERN_A_1ST = [A Agrave Aacute Acircumflex Atilde Adieresis Aring];
@_KERN_C_1ST = [C Ccedilla];
@_KERN_D_1ST = [D Eth];
@_KERN_E_1ST = [E OE AE Egrave Eacute Ecircumflex Edieresis];
@_KERN_I_1ST = [I Igrave Iacute Icircumflex Idieresis];
@_KERN_O_1ST = [O Ograve Oacute Ocircumflex Otilde Odieresis Oslash];
@_KERN_a_1ST = [a agrave aacute acircumflex atilde adieresis aring];
@_KERN_c_1ST = [c ccedilla];
@_KERN_e_1ST = [e oe ae egrave eacute ecircumflex edieresis];
@_KERN_n_1ST = [n h ntilde];
@_KERN_o_1ST = [o ograve oacute ocircumflex otilde odieresis oslash];
@_KERN_p_1ST = [p thorn];
@_KERN_guilsinglright_1ST = [guilsinglright guillemotright];
@_KERN_A_2ND = [A Agrave Aacute Acircumflex Atilde Adieresis Aring AE];
@_KERN_C_2ND = [C G Ccedilla];

glyphs = (
{
glyphname = A;
layers = (
{
hints = (
{
place = "{75, 70}";
},
{
horizontal = 1;
place = "{173, 66}";
},
{
horizontal = 1;
place = "{-9, 21}";
},
{
horizontal = 1;
place = "{625, -20}";
target = down;
type = TopGhost;
},
{
horizontal = 1;
place = "{0, 21}";
},
{
horizontal = 1;
place = "{616, -20}";
target = down;
type = TopGhost;
}
);
layerId = UUID0;
paths = (
{
closed = 1;
nodes = (
"298 323 LINE",
"341 -10 LINE",
"410 -1 LINE",
"332 614 LINE",
"286 625 OFFCURVE",
"243 626 OFFCURVE",
"223 626 CURVE SMOOTH",
"204 626 OFFCURVE",
"161 625 OFFCURVE",
"116 614 CURVE",
"36 -1 LINE",
"105 -10 LINE",
"148 323 LINE"
);
},
{
closed = 1;
nodes = (
"239 562 OFFCURVE",
"255 560 OFFCURVE",
"269 557 CURVE",
"289 387 LINE",
"156 387 LINE",
"178 557 LINE",
"191 560 OFFCURVE",
"208 562 OFFCURVE",
"223 562 CURVE SMOOTH"
);
}
);
width = 447;
}
);
leftKerningGroup = A;
rightKerningGroup = A;
unicode = 0041;
},
{
glyphname = AE;
layers = (
{
hints = (
{
place = "{75, 70}";
},
{
place = "{497, 70}";
},
{
place = "{1200, -70}";
},
{
place = "{900, -70}";
},
{
horizontal = 1;
place = "{173, 66}";
},
{
horizontal = 1;
place = "{-9, 21}";
},
{
horizontal = 1;
place = "{625, -20}";
target = down;
type = TopGhost;
},
{
horizontal = 1;
place = "{0, 21}";
},
{
horizontal = 1;
place = "{616, -20}";
target = down;
type = TopGhost;
},
{
horizontal = 1;
place = "{322, 66}";
},
{
horizontal = 1;
place = "{550, 66}";
},
{
horizontal = 1;
place = "{-19, 21}";
},
{
horizontal = 1;
place = "{-9, 66}";
},
{
horizontal = 1;
place = "{559, 66}";
}
);
layerId = UUID0;
paths = (
{
closed = 1;
nodes = (
"522 616 LINE",
"323 616 LINE",
"281 625 OFFCURVE",
"242 626 OFFCURVE",
"223 626 CURVE SMOOTH",
"204 626 OFFCURVE",
"161 625 OFFCURVE",
"116 614 CURVE",
"36 -1 LINE",
"105 -10 LINE",
"148 323 LINE",
"269 323 LINE",
"269 0 LINE",
"522 0 LINE",
"522 64 LINE",
"338 64 LINE",
"338 323 LINE",
"458 323 LINE",
"458 387 LINE",
"338 387 LINE",
"338 552 LINE",
"522 552 LINE"
);
},
{
closed = 1;
nodes = (
"239 562 OFFCURVE",
"255 560 OFFCURVE",
"269 557 CURVE",
"269 387 LINE",
"156 387 LINE",
"178 557 LINE",
"191 560 OFFCURVE",
"208 562 OFFCURVE",
"223 562 CURVE SMOOTH"
);
}
);
width = 562;
}
);
leftKerningGroup = A;
rightKerningGroup = E;
unicode = 00C6;
},
{
glyphname = B;
layers = (
{
hints = (
{
place = "{71, 70}";
},
{
place = "{267, 70}";
},
{
place = "{345, 72}";
},
{
place = "{484, 70}";
},
{
place = "{784, 70}";
},
{
horizontal = 1;
place = "{-8, 66}";
},
{
horizontal = 1;
place = "{300, 66}";
},
{
horizontal = 1;
place = "{559, 66}";
},
{
horizontal = 1;
place = "{-9, 66}";
},
{
horizontal = 1;
place = "{559, 66}";
}
);
layerId = UUID0;
paths = (
{
closed = 1;
nodes = (
"337 461 LINE SMOOTH",
"337 554 OFFCURVE",
"291 626 OFFCURVE",
"187 626 CURVE SMOOTH",
"142 626 OFFCURVE",
"93 613 OFFCURVE",
"49 590 CURVE",
"71 537 LINE",
"71 36 LINE",
"108 6 OFFCURVE",
"168 -10 OFFCURVE",
"224 -10 CURVE SMOOTH",
"352 -10 OFFCURVE",
"415 67 OFFCURVE",
"417 186 CURVE SMOOTH",
"418 271 OFFCURVE",
"383 323 OFFCURVE",
"337 353 CURVE"
);
},
{
closed = 1;
nodes = (
"141 323 LINE",
"215 323 LINE SMOOTH",
"299 323 OFFCURVE",
"345 269 OFFCURVE",
"345 187 CURVE SMOOTH",
"345 106 OFFCURVE",
"306 54 OFFCURVE",
"230 54 CURVE SMOOTH",
"196 54 OFFCURVE",
"164 61 OFFCURVE",
"141 78 CURVE"
);
},
{
closed = 1;
nodes = (
"141 387 LINE",
"141 554 LINE",
"153 559 OFFCURVE",
"170 562 OFFCURVE",
"188 562 CURVE SMOOTH",
"247 562 OFFCURVE",
"267 513 OFFCURVE",
"267 460 CURVE SMOOTH",
"267 382 LINE",
"250 385 OFFCURVE",
"232 387 OFFCURVE",
"216 387 CURVE"
);
}
);
width = 452;
}
);
unicode = 0042;
},
{
glyphname = C;
layers = (
{
hints = (
{
place = "{67, 70}";
},
{
horizontal = 1;
place = "{-9, 67}";
},
{
horizontal = 1;
place = "{559, 66}";
}
);
layerId = UUID0;
paths = (
{
closed = 1;
nodes = (
"378 597 LINE",
"341 617 OFFCURVE",
"306 626 OFFCURVE",
"258 626 CURVE SMOOTH",
"106 626 OFFCURVE",
"67 517 OFFCURVE",
"67 385 CURVE SMOOTH",
"67 117 LINE",
"31 71 LINE",
"110 0 OFFCURVE",
"204 -10 OFFCURVE",
"252 -10 CURVE SMOOTH",
"312 -10 OFFCURVE",
"362 3 OFFCURVE",
"396 21 CURVE",
"367 84 LINE",
"328 61 OFFCURVE",
"301 54 OFFCURVE",
"256 54 CURVE SMOOTH",
"209 54 OFFCURVE",
"174 62 OFFCURVE",
"137 85 CURVE",
"137 387 LINE SMOOTH",
"137 482 OFFCURVE",
"154 562 OFFCURVE",
"260 562 CURVE SMOOTH",
"286 562 OFFCURVE",
"319 555 OFFCURVE",
"353 538 CURVE"
);
}
);
width = 417;
}
);
leftKerningGroup = C;
rightKerningGroup = C;
unicode = 0043;
},
{
glyphname = Ccedilla;
layers = (
{
hints = (
{
place = "{66, 70}";
},
{
place = "{684, 83}";
},
{
place = "{-328, 82}";
},
{
place = "{-76, 82}";
},
{
horizontal = 1;
place = "{-9, 67}";
},
{
horizontal = 1;
place = "{559, 66}";
},
{
horizontal = 1;
place = "{-9, 71}";
},
{
horizontal = 1;
place = "{459, -20}";
target = down;
type = TopGhost;
},
{
horizontal = 1;
place = "{-16, 71}";
},
{
horizontal = 1;
place = "{382, 70}";
},
{
horizontal = 1;
place = "{388, 71}";
},
{
horizontal = 1;
place = "{-9, 31}";
}
);
layerId = UUID0;
paths = (
{
closed = 1;
nodes = (
"237 -77 LINE SMOOTH",
"264 -77 OFFCURVE",
"276 -84 OFFCURVE",
"276 -101 CURVE SMOOTH",
"276 -119 OFFCURVE",
"258 -124 OFFCURVE",
"239 -124 CURVE SMOOTH",
"208 -124 OFFCURVE",
"175 -114 OFFCURVE",
"143 -100 CURVE",
"143 -154 LINE",
"167 -165 OFFCURVE",
"202 -173 OFFCURVE",
"239 -173 CURVE SMOOTH",
"290 -173 OFFCURVE",
"337 -155 OFFCURVE",
"337 -101 CURVE SMOOTH",
"337 -53 OFFCURVE",
"305 -30 OFFCURVE",
"250 -30 CURVE SMOOTH",
"246 -30 LINE",
"246 -10 LINE",
"251 -10 LINE SMOOTH",
"312 -10 OFFCURVE",
"361 3 OFFCURVE",
"396 21 CURVE",
"367 84 LINE",
"328 61 OFFCURVE",
"300 54 OFFCURVE",
"255 54 CURVE SMOOTH",
"208 54 OFFCURVE",
"173 62 OFFCURVE",
"136 85 CURVE",
"136 387 LINE SMOOTH",
"136 482 OFFCURVE",
"153 562 OFFCURVE",
"259 562 CURVE SMOOTH",
"286 562 OFFCURVE",
"318 555 OFFCURVE",
"353 538 CURVE",
"377 597 LINE",
"340 617 OFFCURVE",
"306 626 OFFCURVE",
"257 626 CURVE SMOOTH",
"105 626 OFFCURVE",
"66 517 OFFCURVE",
"66 385 CURVE SMOOTH",
"66 117 LINE",
"30 71 LINE",
"82 25 OFFCURVE",
"139 4 OFFCURVE",
"186 -4 CURVE",
"186 -77 LINE"
);
}
);
width = 415;
}
);
leftKerningGroup = C;
rightKerningGroup = C;
unicode = 00C7;
},
{
glyphname = D;
layers = (
{
hints = (
{
place = "{71, 70}";
},
{
place = "{362, 70}";
},
{
horizontal = 1;
place = "{0, 66}";
},
{
horizontal = 1;
place = "{626, -20}";
target = down;
type = TopGhost;
}
);
layerId = UUID0;
paths = (
{
closed = 1;
nodes = (
"71 0 LINE",
"150 0 LINE SMOOTH",
"354 0 OFFCURVE",
"432 129 OFFCURVE",
"432 313 CURVE SMOOTH",
"432 484 OFFCURVE",
"356 626 OFFCURVE",
"187 626 CURVE SMOOTH",
"132 626 OFFCURVE",
"83 615 OFFCURVE",
"52 600 CURVE",
"71 545 LINE"
);
},
{
closed = 1;
nodes = (
"141 557 LINE",
"153 560 OFFCURVE",
"169 562 OFFCURVE",
"188 562 CURVE SMOOTH",
"292 562 OFFCURVE",
"362 477 OFFCURVE",
"362 313 CURVE SMOOTH",
"362 169 OFFCURVE",
"311 64 OFFCURVE",
"161 64 CURVE SMOOTH",
"141 64 LINE"
);
}
);
width = 483;
}
);
leftKerningGroup = I;
rightKerningGroup = D;
unicode = 0044;
},
{
glyphname = Eth;
layers = (
{
hints = (
{
place = "{75, 70}";
},
{
place = "{366, 70}";
},
{
place = "{697, 70}";
},
{
horizontal = 1;
place = "{0, 66}";
},
{
horizontal = 1;
place = "{626, -20}";
target = down;
type = TopGhost;
},
{
horizontal = 1;
place = "{324, 66}";
},
{
horizontal = 1;
place = "{552, 66}";
},
{
horizontal = 1;
place = "{2, 21}";
}
);
layerId = UUID0;
paths = (
{
closed = 1;
nodes = (
"33 323 LINE",
"75 323 LINE",
"75 0 LINE",
"154 0 LINE SMOOTH",
"357 0 OFFCURVE",
"436 129 OFFCURVE",
"436 313 CURVE SMOOTH",
"436 484 OFFCURVE",
"360 626 OFFCURVE",
"190 626 CURVE SMOOTH",
"136 626 OFFCURVE",
"87 615 OFFCURVE",
"56 600 CURVE",
"75 545 LINE",
"75 387 LINE",
"13 387 LINE"
);
},
{
closed = 1;
nodes = (
"145 557 LINE",
"157 560 OFFCURVE",
"173 562 OFFCURVE",
"191 562 CURVE SMOOTH",
"295 562 OFFCURVE",
"366 477 OFFCURVE",
"366 313 CURVE SMOOTH",
"366 169 OFFCURVE",
"314 64 OFFCURVE",
"165 64 CURVE SMOOTH",
"145 64 LINE",
"145 323 LINE",
"239 323 LINE",
"239 387 LINE",
"145 387 LINE"
);
}
);
width = 487;
}
);
leftKerningGroup = I;
rightKerningGroup = D;
unicode = 00D0;
},
{
glyphname = E;
layers = (
{
hints = (
{
place = "{74, 70}";
},
{
place = "{777, -70}";
},
{
place = "{478, -70}";
},
{
horizontal = 1;
place = "{322, 66}";
},
{
horizontal = 1;
place = "{550, 66}";
},
{
horizontal = 1;
place = "{-19, 21}";
},
{
horizontal = 1;
place = "{-9, 66}";
},
{
horizontal = 1;
place = "{559, 66}";
}
);
layerId = UUID0;
paths = (
{
closed = 1;
nodes = (
"337 616 LINE",
"54 616 LINE",
"74 552 LINE",
"74 144 LINE",
"38 98 LINE",
"104 39 OFFCURVE",
"204 -10 OFFCURVE",
"333 -10 CURVE",
"337 54 LINE",
"262 54 OFFCURVE",
"204 66 OFFCURVE",
"144 106 CURVE",
"144 323 LINE",
"273 323 LINE",
"273 387 LINE",
"144 387 LINE",
"144 552 LINE",
"337 552 LINE"
);
}
);
width = 375;
}
);
leftKerningGroup = E;
rightKerningGroup = E;
unicode = 0045;
},
{
glyphname = F;
layers = (
{
hints = (
{
place = "{72, 70}";
},
{
horizontal = 1;
place = "{324, 66}";
},
{
horizontal = 1;
place = "{552, 66}";
},
{
horizontal = 1;
place = "{2, 21}";
}
);
layerId = UUID0;
paths = (
{
closed = 1;
nodes = (
"350 616 LINE",
"52 616 LINE",
"72 552 LINE",
"72 0 LINE",
"142 0 LINE",
"142 323 LINE",
"272 323 LINE",
"272 387 LINE",
"142 387 LINE",
"142 552 LINE",
"350 552 LINE"
);
}
);
width = 371;
}
);
leftKerningGroup = I;
unicode = 0046;
},
{
glyphname = G;
layers = (
{
hints = (
{
place = "{71, 70}";
},
{
place = "{327, 70}";
},
{
place = "{506, 70}";
},
{
place = "{806, 70}";
},
{
place = "{71, 70}";
},
{
place = "{329, 70}";
},
{
place = "{495, 70}";
},
{
place = "{67, 70}";
},
{
horizontal = 1;
place = "{629, -20}";
target = down;
type = TopGhost;
},
{
horizontal = 1;
place = "{-9, 21}";
},
{
horizontal = 1;
place = "{-9, 66}";
},
{
horizontal = 1;
place = "{559, 66}";
},
{
horizontal = 1;
place = "{313, 66}";
},
{
horizontal = 1;
place = "{616, -20}";
target = down;
type = TopGhost;
},
{
horizontal = 1;
place = "{0, 21}";
},
{
horizontal = 1;
place = "{-9, 67}";
},
{
horizontal = 1;
place = "{559, 66}";
},
{
horizontal = 1;
place = "{-9, 67}";
},
{
horizontal = 1;
place = "{559, 66}";
}
);
layerId = UUID0;
paths = (
{
closed = 1;
nodes = (
"318 -10 OFFCURVE",
"365 4 OFFCURVE",
"419 30 CURVE",
"419 284 LINE",
"349 284 LINE",
"349 77 LINE",
"323 62 OFFCURVE",
"294 54 OFFCURVE",
"252 54 CURVE",
"207 54 OFFCURVE",
"173 62 OFFCURVE",
"137 85 CURVE",
"137 387 LINE SMOOTH",
"137 482 OFFCURVE",
"154 562 OFFCURVE",
"260 562 CURVE SMOOTH",
"286 562 OFFCURVE",
"319 555 OFFCURVE",
"353 538 CURVE",
"378 597 LINE",
"341 617 OFFCURVE",
"306 626 OFFCURVE",
"258 626 CURVE SMOOTH",
"106 626 OFFCURVE",
"67 517 OFFCURVE",
"67 385 CURVE SMOOTH",
"67 117 LINE",
"31 71 LINE",
"109 0 OFFCURVE",
"201 -10 OFFCURVE",
"248 -10 CURVE SMOOTH"
);
}
);
width = 468;
}
);
leftKerningGroup = C;
unicode = 0047;
},
{
glyphname = H;
layers = (
{
hints = (
{
place = "{70, 70}";
},
{
place = "{329, 70}";
},
{
horizontal = 1;
place = "{313, 66}";
},
{
horizontal = 1;
place = "{616, -20}";
target = down;
type = TopGhost;
},
{
horizontal = 1;
place = "{0, 21}";
}
);
layerId = UUID0;
paths = (
{
closed = 1;
nodes = (
"70 616 LINE",
"70 0 LINE",
"141 0 LINE",
"141 323 LINE",
"349 323 LINE",
"349 0 LINE",
"418 0 LINE",
"418 616 LINE",
"349 616 LINE",
"349 387 LINE",
"141 387 LINE",
"141 616 LINE"
);
}
);
width = 489;
}
);
leftKerningGroup = I;
unicode = 0048;
},
{
glyphname = I;
layers = (
{
hints = (
{
place = "{70, 70}";
},
{
horizontal = 1;
place = "{0, 21}";
},
{
horizontal = 1;
place = "{616, -20}";
target = down;
type = TopGhost;
}
);
layerId = UUID0;
paths = (
{
closed = 1;
nodes = (
"70 0 LINE",
"141 0 LINE",
"141 616 LINE",
"70 616 LINE"
);
}
);
width = 211;
}
);
leftKerningGroup = I;
rightKerningGroup = I;
unicode = 0049;
},
{
glyphname = J;
layers = (
{
hints = (
{
place = "{135, 70}";
},
{
horizontal = 1;
place = "{550, 66}";
},
{
horizontal = 1;
place = "{-74, 21}";
}
);
layerId = UUID0;
paths = (
{
closed = 1;
nodes = (
"32 616 LINE",
"52 552 LINE",
"135 552 LINE",
"135 297 LINE SMOOTH",
"135 223 OFFCURVE",
"128 172 OFFCURVE",
"109 136 CURVE SMOOTH",
"91 101 OFFCURVE",
"54 69 OFFCURVE",
"19 50 CURVE",
"59 -10 LINE",
"99 14 OFFCURVE",
"140 50 OFFCURVE",
"162 83 CURVE SMOOTH",
"206 148 OFFCURVE",
"205 218 OFFCURVE",
"205 271 CURVE SMOOTH",
"205 616 LINE"
);
}
);
width = 268;
}
);
unicode = 004A;
},
{
glyphname = K;
layers = (
{
hints = (
{
place = "{70, 70}";
},
{
place = "{502, 70}";
},
{
place = "{802, 70}";
},
{
horizontal = 1;
place = "{616, -20}";
target = down;
type = TopGhost;
},
{
horizontal = 1;
place = "{0, 21}";
},
{
horizontal = 1;
place = "{622, -20}";
target = down;
type = TopGhost;
},
{
horizontal = 1;
place = "{-8, 21}";
},
{
horizontal = 1;
place = "{-9, 66}";
},
{
horizontal = 1;
place = "{559, 66}";
}
);
layerId = UUID0;
paths = (
{
closed = 1;
nodes = (
"141 616 LINE",
"70 616 LINE",
"70 0 LINE",
"141 0 LINE"
);
},
{
closed = 1;
nodes = (
"191 323 LINE",
"363 -10 LINE",
"424 22 LINE",
"235 387 LINE",
"250 468 OFFCURVE",
"324 547 OFFCURVE",
"401 564 CURVE",
"376 626 LINE",
"242 589 OFFCURVE",
"161 456 OFFCURVE",
"158 323 CURVE"
);
}
);
width = 435;
}
);
leftKerningGroup = I;
unicode = 004B;
},
{
glyphname = L;
layers = (
{
hints = (
{
place = "{70, 70}";
},
{
horizontal = 1;
place = "{0, 66}";
},
{
horizontal = 1;
place = "{616, -20}";
target = down;
type = TopGhost;
}
);
layerId = UUID0;
paths = (
{
closed = 1;
nodes = (
"70 0 LINE",
"357 0 LINE",
"357 64 LINE",
"141 64 LINE",
"141 616 LINE",
"70 616 LINE"
);
}
);
width = 375;
}
);
leftKerningGroup = I;
unicode = 004C;
},
{
glyphname = M;
layers = (
{
hints = (
{
place = "{56, 102}";
},
{
place = "{473, 29}";
},
{
horizontal = 1;
place = "{637, -20}";
target = down;
type = TopGhost;
},
{
horizontal = 1;
place = "{-10, 21}";
}
);
layerId = UUID0;
paths = (
{
closed = 1;
nodes = (
"257 487 OFFCURVE",
"195 567 OFFCURVE",
"104 626 CURVE",
"62 569 LINE",
"93 546 LINE",
"56 -6 LINE",
"125 -10 LINE",
"158 485 LINE",
"216 410 OFFCURVE",
"243 346 OFFCURVE",
"266 264 CURVE",
"331 264 LINE",
"356 351 OFFCURVE",
"385 416 OFFCURVE",
"440 485 CURVE",
"473 -10 LINE",
"542 -6 LINE",
"505 547 LINE",
"536 569 LINE",
"494 626 LINE",
"398 560 OFFCURVE",
"338 480 OFFCURVE",
"299 378 CURVE"
);
}
);
width = 598;
}
);
unicode = 004D;
},
{
glyphname = N;
layers = (
{
hints = (
{
place = "{78, 70}";
},
{
place = "{336, 70}";
},
{
horizontal = 1;
place = "{0, 21}";
},
{
horizontal = 1;
place = "{616, -20}";
target = down;
type = TopGhost;
},
{
horizontal = 1;
place = "{630, -20}";
target = down;
type = TopGhost;
}
);
layerId = UUID0;
paths = (
{
closed = 1;
nodes = (
"78 0 LINE",
"148 0 LINE",
"148 532 LINE",
"238 489 OFFCURVE",
"305 414 OFFCURVE",
"355 315 CURVE",
"356 0 LINE",
"426 0 LINE",
"426 616 LINE",
"356 616 LINE",
"356 448 LINE",
"282 552 OFFCURVE",
"173 611 OFFCURVE",
"57 626 CURVE",
"44 557 LINE",
"56 555 OFFCURVE",
"68 552 OFFCURVE",
"78 549 CURVE"
);
}
);
width = 496;
}
);
leftKerningGroup = N;
rightKerningGroup = N;
unicode = 004E;
},
{
glyphname = O;
layers = (
{
hints = (
{
place = "{63, 70}";
},
{
place = "{363, 70}";
},
{
horizontal = 1;
place = "{-9, 66}";
},
{
horizontal = 1;
place = "{559, 66}";
}
);
layerId = UUID0;
paths = (
{
closed = 1;
nodes = (
"200 54 OFFCURVE",
"163 64 OFFCURVE",
"133 85 CURVE",
"133 395 LINE SMOOTH",
"133 476 OFFCURVE",
"152 562 OFFCURVE",
"248 562 CURVE SMOOTH",
"344 562 OFFCURVE",
"363 476 OFFCURVE",
"363 395 CURVE SMOOTH",
"363 85 LINE",
"333 64 OFFCURVE",
"296 54 OFFCURVE",
"248 54 CURVE SMOOTH"
);
},
{
closed = 1;
nodes = (
"108 626 OFFCURVE",
"63 522 OFFCURVE",
"63 395 CURVE SMOOTH",
"63 46 LINE",
"93 24 OFFCURVE",
"151 -10 OFFCURVE",
"248 -10 CURVE SMOOTH",
"355 -10 OFFCURVE",
"425 33 OFFCURVE",
"469 71 CURVE",
"433 117 LINE",
"433 395 LINE SMOOTH",
"433 522 OFFCURVE",
"388 626 OFFCURVE",
"248 626 CURVE SMOOTH"
);
}
);
width = 500;
}
);
leftKerningGroup = O;
rightKerningGroup = O;
unicode = 004F;
},
{
glyphname = Oslash;
layers = (
{
hints = (
{
place = "{63, 70}";
},
{
place = "{363, 70}";
},
{
horizontal = 1;
place = "{-9, 66}";
},
{
horizontal = 1;
place = "{559, 66}";
}
);
layerId = UUID0;
paths = (
{
closed = 1;
nodes = (
"-12 -71 LINE",
"42 -107 LINE",
"119 14 LINE",
"150 0 OFFCURVE",
"193 -10 OFFCURVE",
"249 -10 CURVE SMOOTH",
"355 -10 OFFCURVE",
"425 33 OFFCURVE",
"469 71 CURVE",
"434 117 LINE",
"434 395 LINE SMOOTH",
"434 428 OFFCURVE",
"430 460 OFFCURVE",
"423 489 CURVE",
"507 620 LINE",
"455 655 LINE",
"393 559 LINE",
"363 600 OFFCURVE",
"317 626 OFFCURVE",
"249 626 CURVE SMOOTH",
"108 626 OFFCURVE",
"63 522 OFFCURVE",
"63 395 CURVE SMOOTH",
"63 46 LINE"
);
},
{
closed = 1;
nodes = (
"133 395 LINE SMOOTH",
"133 476 OFFCURVE",
"152 562 OFFCURVE",
"249 562 CURVE SMOOTH",
"304 562 OFFCURVE",
"334 532 OFFCURVE",
"350 492 CURVE",
"133 155 LINE"
);
},
{
closed = 1;
nodes = (
"211 54 OFFCURVE",
"182 60 OFFCURVE",
"155 72 CURVE",
"363 395 LINE",
"363 85 LINE",
"333 64 OFFCURVE",
"296 54 OFFCURVE",
"249 54 CURVE SMOOTH"
);
}
);
width = 512;
}
);
leftKerningGroup = O;
rightKerningGroup = O;
unicode = 00D8;
},
{
glyphname = OE;
layers = (
{
background = {
paths = (
{
closed = 1;
nodes = (
"63 46 LINE",
"92 24 OFFCURVE",
"150 -10 OFFCURVE",
"248 -10 CURVE SMOOTH",
"321 -10 OFFCURVE",
"354 11 OFFCURVE",
"396 36 CURVE"
);
}
);
};
hints = (
{
place = "{63, 70}";
},
{
place = "{362, 70}";
},
{
place = "{361, 70}";
},
{
place = "{1065, -70}";
},
{
place = "{766, -70}";
},
{
horizontal = 1;
place = "{-9, 66}";
},
{
horizontal = 1;
place = "{559, 66}";
},
{
horizontal = 1;
place = "{322, 66}";
},
{
horizontal = 1;
place = "{550, 66}";
},
{
horizontal = 1;
place = "{-19, 21}";
},
{
horizontal = 1;
place = "{-9, 66}";
},
{
horizontal = 1;
place = "{559, 66}";
}
);
layerId = UUID0;
paths = (
{
closed = 1;
nodes = (
"453 8 OFFCURVE",
"520 -10 OFFCURVE",
"599 -10 CURVE",
"604 54 LINE",
"527 54 OFFCURVE",
"469 66 OFFCURVE",
"410 105 CURVE",
"410 323 LINE",
"540 323 LINE",
"540 387 LINE",
"410 387 LINE",
"410 552 LINE",
"604 552 LINE",
"604 616 LINE",
"249 616 LINE SMOOTH",
"107 616 OFFCURVE",
"63 512 OFFCURVE",
"63 385 CURVE SMOOTH",
"63 46 LINE",
"90 24 OFFCURVE",
"146 -10 OFFCURVE",
"236 -10 CURVE SMOOTH",
"304 -10 OFFCURVE",
"356 11 OFFCURVE",
"396 36 CURVE"
);
},
{
closed = 1;
nodes = (
"339 85 LINE",
"309 62 OFFCURVE",
"272 54 OFFCURVE",
"235 54 CURVE SMOOTH",
"192 54 OFFCURVE",
"160 64 OFFCURVE",
"132 85 CURVE",
"132 385 LINE SMOOTH",
"132 466 OFFCURVE",
"151 552 OFFCURVE",
"249 552 CURVE SMOOTH",
"339 552 LINE"
);
}
);
width = 641;
}
);
leftKerningGroup = O;
rightKerningGroup = E;
unicode = 0152;
},
{
glyphname = P;
layers = (
{
hints = (
{
place = "{89, 70}";
},
{
place = "{373, 72}";
},
{
place = "{74, 70}";
},
{
place = "{333, 68}";
},
{
horizontal = 1;
place = "{625, -66}";
},
{
horizontal = 1;
place = "{321, -66}";
},
{
horizontal = 1;
place = "{0, 21}";
},
{
horizontal = 1;
place = "{331, -67}";
}
);
layerId = UUID0;
paths = (
{
closed = 1;
nodes = (
"74 534 LINE",
"74 0 LINE",
"144 0 LINE",
"144 323 LINE",
"401 323 LINE",
"401 425 LINE SMOOTH",
"401 475 OFFCURVE",
"402 531 OFFCURVE",
"356 578 CURVE SMOOTH",
"327 608 OFFCURVE",
"277 626 OFFCURVE",
"223 626 CURVE SMOOTH",
"170 626 OFFCURVE",
"96 611 OFFCURVE",
"46 589 CURVE"
);
},
{
closed = 1;
nodes = (
"144 550 LINE",
"161 557 OFFCURVE",
"192 562 OFFCURVE",
"219 562 CURVE SMOOTH",
"243 562 OFFCURVE",
"277 560 OFFCURVE",
"306 528 CURVE SMOOTH",
"333 495 OFFCURVE",
"333 452 OFFCURVE",
"333 424 CURVE SMOOTH",
"333 387 LINE",
"144 387 LINE"
);
}
);
width = 437;
}
);
leftKerningGroup = R;
unicode = 0050;
},
{
glyphname = Thorn;
layers = (
{
hints = (
{
place = "{86, 70}";
},
{
place = "{369, 72}";
},
{
place = "{70, 70}";
},
{
place = "{330, 68}";
},
{
horizontal = 1;
place = "{625, -66}";
},
{
horizontal = 1;
place = "{321, -66}";
},
{
horizontal = 1;
place = "{0, 21}";
},
{
horizontal = 1;
place = "{331, -67}";
}
);
layerId = UUID0;
paths = (
{
closed = 1;
nodes = (
"140 0 LINE",
"140 183 LINE",
"398 183 LINE",
"398 285 LINE SMOOTH",
"398 335 OFFCURVE",
"399 391 OFFCURVE",
"353 438 CURVE SMOOTH",
"323 468 OFFCURVE",
"274 486 OFFCURVE",
"219 486 CURVE SMOOTH",
"196 486 OFFCURVE",
"168 483 OFFCURVE",
"140 478 CURVE",
"140 616 LINE",
"70 616 LINE",
"70 0 LINE"
);
},
{
closed = 1;
nodes = (
"140 410 LINE",
"157 417 OFFCURVE",
"189 422 OFFCURVE",
"215 422 CURVE SMOOTH",
"239 422 OFFCURVE",
"274 420 OFFCURVE",
"302 388 CURVE SMOOTH",
"330 355 OFFCURVE",
"330 312 OFFCURVE",
"330 284 CURVE SMOOTH",
"330 247 LINE",
"140 247 LINE"
);
}
);
width = 438;
}
);
leftKerningGroup = I;
unicode = 00DE;
},
{
glyphname = Q;
layers = (
{
hints = (
{
place = "{49, 70}";
},
{
place = "{359, 70}";
},
{
horizontal = 1;
place = "{0, 66}";
},
{
horizontal = 1;
place = "{559, 66}";
}
);
layerId = UUID0;
paths = (
{
closed = 1;
nodes = (
"429 395 LINE SMOOTH",
"429 522 OFFCURVE",
"384 626 OFFCURVE",
"244 626 CURVE SMOOTH",
"104 626 OFFCURVE",
"59 522 OFFCURVE",
"59 395 CURVE SMOOTH",
"59 231 LINE SMOOTH",
"59 104 OFFCURVE",
"104 0 OFFCURVE",
"244 0 CURVE",
"480 0 LINE",
"429 64 LINE"
);
},
{
closed = 1;
nodes = (
"359 64 LINE",
"244 64 LINE",
"148 64 OFFCURVE",
"129 150 OFFCURVE",
"129 231 CURVE SMOOTH",
"129 395 LINE SMOOTH",
"129 476 OFFCURVE",
"148 562 OFFCURVE",
"244 562 CURVE SMOOTH",
"340 562 OFFCURVE",
"359 476 OFFCURVE",
"359 395 CURVE"
);
}
);
width = 497;
}
);
unicode = 0051;
},
{
glyphname = R;
layers = (
{
hints = (
{
place = "{73, 70}";
},
{
place = "{324, 69}";
},
{
horizontal = 1;
place = "{290, 66}";
},
{
horizontal = 1;
place = "{296, 60}";
},
{
horizontal = 1;
place = "{559, 66}";
},
{
horizontal = 1;
place = "{0, 21}";
},
{
horizontal = 1;
place = "{-8, 21}";
}
);
layerId = UUID0;
paths = (
{
closed = 1;
nodes = (
"73 534 LINE",
"73 0 LINE",
"143 0 LINE",
"143 323 LINE",
"226 323 LINE",
"370 -10 LINE",
"435 18 LINE",
"304 323 LINE",
"401 323 LINE",
"401 436 LINE SMOOTH",
"401 486 OFFCURVE",
"396 538 OFFCURVE",
"348 581 CURVE SMOOTH",
"316 610 OFFCURVE",
"265 626 OFFCURVE",
"209 626 CURVE SMOOTH",
"156 626 OFFCURVE",
"96 611 OFFCURVE",
"46 589 CURVE"
);
},
{
closed = 1;
nodes = (
"143 550 LINE",
"161 558 OFFCURVE",
"182 562 OFFCURVE",
"209 562 CURVE SMOOTH",
"241 562 OFFCURVE",
"274 554 OFFCURVE",
"304 522 CURVE SMOOTH",
"329 494 OFFCURVE",
"333 451 OFFCURVE",
"333 421 CURVE SMOOTH",
"333 387 LINE",
"143 387 LINE"
);
}
);
width = 462;
}
);
leftKerningGroup = R;
unicode = 0052;
},
{
glyphname = S;
layers = (
{
hints = (
{
place = "{352, -70}";
},
{
place = "{500, 70}";
},
{
horizontal = 1;
place = "{-7, 66}";
},
{
horizontal = 1;
place = "{561, 66}";
},
{
horizontal = 1;
place = "{-1, 67}";
},
{
horizontal = 1;
place = "{567, 66}";
}
);
layerId = UUID0;
paths = (
{
closed = 1;
nodes = (
"115 626 OFFCURVE",
"46 571 OFFCURVE",
"46 470 CURVE SMOOTH",
"46 382 OFFCURVE",
"105 332 OFFCURVE",
"168 283 CURVE SMOOTH",
"212 249 OFFCURVE",
"282 207 OFFCURVE",
"282 150 CURVE SMOOTH",
"282 81 LINE",
"255 64 OFFCURVE",
"227 54 OFFCURVE",
"188 54 CURVE SMOOTH",
"151 54 OFFCURVE",
"107 64 OFFCURVE",
"68 87 CURVE",
"40 24 LINE",
"92 -7 OFFCURVE",
"159 -10 OFFCURVE",
"189 -10 CURVE SMOOTH",
"261 -10 OFFCURVE",
"326 15 OFFCURVE",
"380 60 CURVE",
"352 115 LINE",
"352 158 LINE SMOOTH",
"352 225 OFFCURVE",
"305 269 OFFCURVE",
"211 339 CURVE",
"165 374 OFFCURVE",
"117 412 OFFCURVE",
"117 472 CURVE SMOOTH",
"117 527 OFFCURVE",
"158 562 OFFCURVE",
"218 562 CURVE SMOOTH",
"246 562 OFFCURVE",
"277 555 OFFCURVE",
"313 538 CURVE",
"344 597 LINE",
"305 617 OFFCURVE",
"268 626 OFFCURVE",
"217 626 CURVE SMOOTH"
);
}
);
width = 396;
}
);
unicode = 0053;
},
{
glyphname = T;
layers = (
{
hints = (
{
place = "{162, 70}";
},
{
horizontal = 1;
place = "{550, 66}";
},
{
horizontal = 1;
place = "{0, 21}";
}
);
layerId = UUID0;
paths = (
{
closed = 1;
nodes = (
"162 0 LINE",
"231 0 LINE",
"231 552 LINE",
"372 552 LINE",
"372 616 LINE",
"12 616 LINE",
"31 552 LINE",
"162 552 LINE"
);
}
);
width = 392;
}
);
unicode = 0054;
},
{
glyphname = U;
layers = (
{
hints = (
{
place = "{65, 70}";
},
{
place = "{365, 70}";
},
{
horizontal = 1;
place = "{-9, 66}";
},
{
horizontal = 1;
place = "{616, -20}";
target = down;
type = TopGhost;
}
);
layerId = UUID0;
paths = (
{
closed = 1;
nodes = (
"435 115 LINE",
"435 616 LINE",
"365 616 LINE",
"365 79 LINE",
"334 63 OFFCURVE",
"300 54 OFFCURVE",
"270 54 CURVE SMOOTH",
"215 54 OFFCURVE",
"185 78 OFFCURVE",
"169 96 CURVE SMOOTH",
"146 126 OFFCURVE",
"136 173 OFFCURVE",
"136 253 CURVE SMOOTH",
"136 616 LINE",
"65 616 LINE",
"65 255 LINE SMOOTH",
"65 197 OFFCURVE",
"63 136 OFFCURVE",
"96 79 CURVE SMOOTH",
"130 19 OFFCURVE",
"188 -10 OFFCURVE",
"270 -10 CURVE SMOOTH",
"312 -10 OFFCURVE",
"384 -3 OFFCURVE",
"467 59 CURVE"
);
}
);
width = 509;
}
);
leftKerningGroup = U;
rightKerningGroup = U;
unicode = 0055;
},
{
glyphname = V;
layers = (
{
hints = (
{
horizontal = 1;
place = "{-10, 21}";
},
{
horizontal = 1;
place = "{628, -20}";
target = down;
type = TopGhost;
}
);
layerId = UUID0;
paths = (
{
closed = 1;
nodes = (
"31 616 LINE",
"135 -10 LINE",
"174 0 OFFCURVE",
"207 3 OFFCURVE",
"236 3 CURVE SMOOTH",
"265 3 OFFCURVE",
"298 0 OFFCURVE",
"337 -10 CURVE",
"441 616 LINE",
"372 626 LINE",
"279 64 LINE",
"266 66 OFFCURVE",
"252 67 OFFCURVE",
"236 67 CURVE SMOOTH",
"220 67 OFFCURVE",
"207 66 OFFCURVE",
"193 64 CURVE",
"100 626 LINE"
);
}
);
width = 471;
}
);
unicode = 0056;
},
{
glyphname = W;
layers = (
{
hints = (
{
place = "{266, 72}";
},
{
horizontal = 1;
place = "{-10, 21}";
},
{
horizontal = 1;
place = "{626, -20}";
target = down;
type = TopGhost;
},
{
horizontal = 1;
place = "{450, -20}";
target = down;
type = TopGhost;
}
);
layerId = UUID0;
paths = (
{
closed = 1;
nodes = (
"27 613 LINE",
"146 -10 LINE",
"191 3 OFFCURVE",
"266 15 OFFCURVE",
"312 15 CURVE SMOOTH",
"358 15 OFFCURVE",
"433 3 OFFCURVE",
"478 -10 CURVE",
"597 613 LINE",
"528 626 LINE",
"422 71 LINE",
"403 75 OFFCURVE",
"370 78 OFFCURVE",
"348 79 CURVE",
"348 450 LINE",
"276 450 LINE",
"276 79 LINE",
"255 78 OFFCURVE",
"223 75 OFFCURVE",
"202 71 CURVE",
"96 626 LINE"
);
}
);
width = 624;
}
);
unicode = 0057;
},
{
glyphname = X;
layers = (
{
hints = (
{
horizontal = 1;
place = "{-12, 21}";
},
{
horizontal = 1;
place = "{627, -20}";
target = down;
type = TopGhost;
},
{
horizontal = 1;
place = "{-10, 21}";
},
{
horizontal = 1;
place = "{628, -20}";
target = down;
type = TopGhost;
}
);
layerId = UUID0;
paths = (
{
closed = 1;
nodes = (
"41 605 LINE",
"122 355 LINE",
"41 6 LINE",
"110 -10 LINE",
"187 323 LINE",
"261 323 LINE",
"338 -10 LINE",
"407 6 LINE",
"326 355 LINE",
"407 605 LINE",
"338 626 LINE",
"260 387 LINE",
"188 387 LINE",
"110 626 LINE"
);
}
);
width = 448;
}
);
unicode = 0058;
},
{
glyphname = Y;
layers = (
{
hints = (
{
place = "{168, 70}";
},
{
horizontal = 1;
place = "{0, 21}";
},
{
horizontal = 1;
place = "{625, -20}";
target = down;
type = TopGhost;
}
);
layerId = UUID0;
paths = (
{
closed = 1;
nodes = (
"23 615 LINE",
"45 469 OFFCURVE",
"59 404 OFFCURVE",
"92 366 CURVE SMOOTH",
"118 335 OFFCURVE",
"148 326 OFFCURVE",
"168 322 CURVE",
"168 0 LINE",
"238 0 LINE",
"238 322 LINE",
"258 326 OFFCURVE",
"288 335 OFFCURVE",
"314 366 CURVE SMOOTH",
"347 404 OFFCURVE",
"361 469 OFFCURVE",
"383 615 CURVE",
"313 626 LINE",
"305 572 LINE SMOOTH",
"289 465 OFFCURVE",
"277 431 OFFCURVE",
"261 412 CURVE SMOOTH",
"243 391 OFFCURVE",
"220 387 OFFCURVE",
"203 387 CURVE SMOOTH",
"186 387 OFFCURVE",
"163 391 OFFCURVE",
"145 412 CURVE SMOOTH",
"129 431 OFFCURVE",
"117 465 OFFCURVE",
"101 572 CURVE SMOOTH",
"93 626 LINE"
);
}
);
width = 406;
}
);
leftKerningGroup = Y;
rightKerningGroup = Y;
unicode = 0059;
},
{
glyphname = Z;
layers = (
{
hints = (
{
horizontal = 1;
place = "{0, 66}";
},
{
horizontal = 1;
place = "{625, -20}";
target = down;
type = TopGhost;
}
);
layerId = UUID0;
paths = (
{
closed = 1;
nodes = (
"390 616 LINE",
"44 616 LINE",
"44 552 LINE",
"285 552 LINE",
"25 0 LINE",
"390 0 LINE",
"390 64 LINE",
"129 64 LINE"
);
}
);
width = 424;
}
);
unicode = 005A;
},
{
glyphname = a;
layers = (
{
hints = (
{
place = "{32, 66}";
},
{
place = "{281, 64}";
},
{
place = "{498, 72}";
},
{
place = "{502, 64}";
},
{
horizontal = 1;
place = "{-9, 57}";
},
{
horizontal = 1;
place = "{237, 62}";
},
{
horizontal = 1;
place = "{463, -20}";
target = down;
type = TopGhost;
},
{
horizontal = 1;
place = "{450, 85}";
},
{
horizontal = 1;
place = "{610, -75}";
},
{
horizontal = 1;
place = "{0, 21}";
}
);
layerId = UUID0;
paths = (
{
closed = 1;
nodes = (
"102 397 LINE",
"178 395 OFFCURVE",
"275 384 OFFCURVE",
"281 297 CURVE",
"154 296 OFFCURVE",
"31 265 OFFCURVE",
"31 131 CURVE SMOOTH",
"31 88 OFFCURVE",
"49 53 OFFCURVE",
"71 31 CURVE SMOOTH",
"94 9 OFFCURVE",
"132 -10 OFFCURVE",
"197 -10 CURVE SMOOTH",
"248 -10 OFFCURVE",
"310 4 OFFCURVE",
"372 39 CURVE",
"345 85 LINE",
"345 285 LINE SMOOTH",
"345 429 OFFCURVE",
"219 460 OFFCURVE",
"107 460 CURVE"
);
},
{
closed = 1;
nodes = (
"281 67 LINE",
"257 57 OFFCURVE",
"231 50 OFFCURVE",
"199 50 CURVE SMOOTH",
"172 50 OFFCURVE",
"143 55 OFFCURVE",
"122 76 CURVE SMOOTH",
"110 87 OFFCURVE",
"99 107 OFFCURVE",
"99 138 CURVE SMOOTH",
"99 229 OFFCURVE",
"217 237 OFFCURVE",
"281 237 CURVE"
);
}
);
width = 404;
}
);
leftKerningGroup = a;
rightKerningGroup = a;
unicode = 0061;
},
{
glyphname = ae;
layers = (
{
hints = (
{
place = "{31, 66}";
},
{
place = "{280, 64}";
},
{
place = "{497, 72}";
},
{
place = "{501, 64}";
},
{
horizontal = 1;
place = "{-9, 57}";
},
{
horizontal = 1;
place = "{237, 62}";
},
{
horizontal = 1;
place = "{463, -20}";
target = down;
type = TopGhost;
},
{
horizontal = 1;
place = "{450, 85}";
},
{
horizontal = 1;
place = "{610, -75}";
},
{
horizontal = 1;
place = "{0, 21}";
}
);
layerId = UUID0;
paths = (
{
closed = 1;
nodes = (
"575 220 LINE",
"575 265 LINE SMOOTH",
"575 302 OFFCURVE",
"576 368 OFFCURVE",
"536 416 CURVE SMOOTH",
"502 456 OFFCURVE",
"459 460 OFFCURVE",
"427 460 CURVE SMOOTH",
"396 460 OFFCURVE",
"352 456 OFFCURVE",
"318 416 CURVE SMOOTH",
"313 410 OFFCURVE",
"309 403 OFFCURVE",
"305 396 CURVE",
"261 446 OFFCURVE",
"179 460 OFFCURVE",
"106 460 CURVE",
"101 397 LINE",
"177 395 OFFCURVE",
"274 382 OFFCURVE",
"280 280 CURVE",
"153 279 OFFCURVE",
"30 250 OFFCURVE",
"30 123 CURVE SMOOTH",
"30 83 OFFCURVE",
"48 50 OFFCURVE",
"70 29 CURVE SMOOTH",
"93 8 OFFCURVE",
"131 -10 OFFCURVE",
"196 -10 CURVE SMOOTH",
"233 -10 OFFCURVE",
"276 -3 OFFCURVE",
"318 13 CURVE",
"351 -3 OFFCURVE",
"389 -10 OFFCURVE",
"439 -10 CURVE SMOOTH",
"492 -10 OFFCURVE",
"537 0 OFFCURVE",
"575 24 CURVE",
"575 91 LINE",
"534 62 OFFCURVE",
"493 50 OFFCURVE",
"439 50 CURVE SMOOTH",
"410 50 OFFCURVE",
"373 55 OFFCURVE",
"344 76 CURVE",
"344 220 LINE"
);
},
{
closed = 1;
nodes = (
"280 65 LINE",
"256 56 OFFCURVE",
"230 50 OFFCURVE",
"198 50 CURVE SMOOTH",
"171 50 OFFCURVE",
"142 55 OFFCURVE",
"121 74 CURVE SMOOTH",
"109 84 OFFCURVE",
"98 102 OFFCURVE",
"98 130 CURVE SMOOTH",
"98 213 OFFCURVE",
"216 220 OFFCURVE",
"280 220 CURVE"
);
},
{
closed = 1;
nodes = (
"344 280 LINE",
"344 299 LINE SMOOTH",
"344 322 OFFCURVE",
"348 349 OFFCURVE",
"361 369 CURVE SMOOTH",
"370 381 OFFCURVE",
"390 400 OFFCURVE",
"428 400 CURVE SMOOTH",
"466 400 OFFCURVE",
"485 381 OFFCURVE",
"494 369 CURVE SMOOTH",
"511 344 OFFCURVE",
"511 306 OFFCURVE",
"511 280 CURVE"
);
}
);
width = 624;
}
);
leftKerningGroup = a;
rightKerningGroup = e;
unicode = 00E6;
},
{
glyphname = b;
layers = (
{
hints = (
{
place = "{65, 64}";
},
{
place = "{329, 66}";
},
{
horizontal = 1;
place = "{-9, 62}";
},
{
horizontal = 1;
place = "{397, 62}";
},
{
horizontal = 1;
place = "{655, -20}";
target = down;
type = TopGhost;
}
);
layerId = UUID0;
paths = (
{
closed = 1;
nodes = (
"37 36 LINE",
"78 12 OFFCURVE",
"138 -10 OFFCURVE",
"206 -10 CURVE SMOOTH",
"344 -10 OFFCURVE",
"395 105 OFFCURVE",
"395 225 CURVE SMOOTH",
"395 345 OFFCURVE",
"333 460 OFFCURVE",
"209 460 CURVE SMOOTH",
"180 460 OFFCURVE",
"157 456 OFFCURVE",
"129 448 CURVE",
"129 655 LINE",
"45 655 LINE",
"65 592 LINE",
"65 87 LINE"
);
},
{
closed = 1;
nodes = (
"129 384 LINE",
"143 390 OFFCURVE",
"167 400 OFFCURVE",
"201 400 CURVE SMOOTH",
"299 400 OFFCURVE",
"329 305 OFFCURVE",
"329 225 CURVE SMOOTH",
"329 145 OFFCURVE",
"304 50 OFFCURVE",
"202 50 CURVE SMOOTH",
"177 50 OFFCURVE",
"149 56 OFFCURVE",
"129 66 CURVE"
);
}
);
width = 439;
}
);
unicode = 0062;
},
{
glyphname = c;
layers = (
{
hints = (
{
place = "{56, 64}";
},
{
horizontal = 1;
place = "{-9, 62}";
},
{
horizontal = 1;
place = "{397, 62}";
}
);
layerId = UUID0;
paths = (
{
closed = 1;
nodes = (
"320 446 LINE",
"292 454 OFFCURVE",
"261 460 OFFCURVE",
"226 460 CURVE SMOOTH",
"189 460 OFFCURVE",
"138 456 OFFCURVE",
"99 416 CURVE SMOOTH",
"53 368 OFFCURVE",
"56 302 OFFCURVE",
"56 265 CURVE SMOOTH",
"56 102 LINE",
"21 61 LINE",
"56 32 OFFCURVE",
"120 -10 OFFCURVE",
"223 -10 CURVE SMOOTH",
"261 -10 OFFCURVE",
"293 -4 OFFCURVE",
"326 9 CURVE",
"326 72 LINE",
"292 56 OFFCURVE",
"261 50 OFFCURVE",
"224 50 CURVE SMOOTH",
"185 50 OFFCURVE",
"152 58 OFFCURVE",
"120 76 CURVE",
"120 265 LINE SMOOTH",
"120 294 OFFCURVE",
"120 338 OFFCURVE",
"142 366 CURVE SMOOTH",
"151 379 OFFCURVE",
"176 400 OFFCURVE",
"224 400 CURVE SMOOTH",
"248 400 OFFCURVE",
"278 395 OFFCURVE",
"304 388 CURVE"
);
}
);
width = 358;
}
);
leftKerningGroup = e;
rightKerningGroup = c;
unicode = 0063;
},
{
glyphname = ccedilla;
layers = (
{
hints = (
{
place = "{55, 64}";
},
{
place = "{842, -64}";
},
{
place = "{-256, 64}";
},
{
place = "{1, 64}";
},
{
place = "{558, 83}";
},
{
place = "{-454, 82}";
},
{
place = "{-202, 82}";
},
{
horizontal = 1;
place = "{-9, 62}";
},
{
horizontal = 1;
place = "{397, 62}";
},
{
horizontal = 1;
place = "{-9, 62}";
},
{
horizontal = 1;
place = "{459, -20}";
target = down;
type = TopGhost;
},
{
horizontal = 1;
place = "{-16, 62}";
},
{
horizontal = 1;
place = "{390, 62}";
},
{
horizontal = 1;
place = "{397, 62}";
},
{
horizontal = 1;
place = "{-9, 21}";
},
{
horizontal = 1;
place = "{-9, 71}";
},
{
horizontal = 1;
place = "{459, -20}";
target = down;
type = TopGhost;
},
{
horizontal = 1;
place = "{-16, 71}";
},
{
horizontal = 1;
place = "{382, 70}";
},
{
horizontal = 1;
place = "{388, 71}";
},
{
horizontal = 1;
place = "{-9, 31}";
}
);
layerId = UUID0;
paths = (
{
closed = 1;
nodes = (
"198 -77 LINE SMOOTH",
"224 -77 OFFCURVE",
"236 -84 OFFCURVE",
"236 -101 CURVE SMOOTH",
"236 -119 OFFCURVE",
"219 -124 OFFCURVE",
"200 -124 CURVE SMOOTH",
"168 -124 OFFCURVE",
"136 -114 OFFCURVE",
"103 -100 CURVE",
"103 -154 LINE",
"127 -165 OFFCURVE",
"162 -173 OFFCURVE",
"200 -173 CURVE SMOOTH",
"250 -173 OFFCURVE",
"297 -155 OFFCURVE",
"297 -101 CURVE SMOOTH",
"297 -53 OFFCURVE",
"265 -30 OFFCURVE",
"209 -30 CURVE SMOOTH",
"206 -30 LINE",
"206 -9 LINE",
"210 -9 OFFCURVE",
"215 -10 OFFCURVE",
"222 -10 CURVE SMOOTH",
"260 -10 OFFCURVE",
"292 -4 OFFCURVE",
"325 9 CURVE",
"325 72 LINE",
"292 56 OFFCURVE",
"260 50 OFFCURVE",
"223 50 CURVE SMOOTH",
"184 50 OFFCURVE",
"151 58 OFFCURVE",
"119 76 CURVE",
"119 265 LINE SMOOTH",
"119 294 OFFCURVE",
"119 338 OFFCURVE",
"141 366 CURVE SMOOTH",
"150 379 OFFCURVE",
"175 400 OFFCURVE",
"223 400 CURVE SMOOTH",
"247 400 OFFCURVE",
"277 395 OFFCURVE",
"303 388 CURVE",
"319 446 LINE",
"291 454 OFFCURVE",
"260 460 OFFCURVE",
"225 460 CURVE SMOOTH",
"188 460 OFFCURVE",
"137 456 OFFCURVE",
"98 416 CURVE SMOOTH",
"52 368 OFFCURVE",
"55 302 OFFCURVE",
"55 265 CURVE SMOOTH",
"55 102 LINE",
"21 61 LINE",
"44 40 OFFCURVE",
"85 12 OFFCURVE",
"146 -1 CURVE",
"146 -77 LINE"
);
}
);
width = 357;
}
);
leftKerningGroup = e;
rightKerningGroup = c;
unicode = 00E7;
},
{
glyphname = d;
layers = (
{
hints = (
{
place = "{44, 66}";
},
{
place = "{311, 64}";
},
{
horizontal = 1;
place = "{-9, 62}";
},
{
horizontal = 1;
place = "{397, 62}";
},
{
horizontal = 1;
place = "{655, -20}";
target = down;
type = TopGhost;
}
);
layerId = UUID0;
paths = (
{
closed = 1;
nodes = (
"375 87 LINE",
"375 655 LINE",
"291 655 LINE",
"311 592 LINE",
"311 448 LINE",
"283 456 OFFCURVE",
"260 460 OFFCURVE",
"229 460 CURVE SMOOTH",
"105 460 OFFCURVE",
"44 345 OFFCURVE",
"44 225 CURVE SMOOTH",
"44 105 OFFCURVE",
"96 -10 OFFCURVE",
"233 -10 CURVE SMOOTH",
"302 -10 OFFCURVE",
"361 12 OFFCURVE",
"402 36 CURVE"
);
},
{
closed = 1;
nodes = (
"311 66 LINE",
"291 56 OFFCURVE",
"263 50 OFFCURVE",
"237 50 CURVE SMOOTH",
"136 50 OFFCURVE",
"110 145 OFFCURVE",
"110 225 CURVE SMOOTH",
"110 305 OFFCURVE",
"141 400 OFFCURVE",
"239 400 CURVE SMOOTH",
"271 400 OFFCURVE",
"296 390 OFFCURVE",
"311 384 CURVE"
);
}
);
width = 439;
}
);
leftKerningGroup = d;
unicode = 0064;
},
{
glyphname = eth;
layers = (
{
hints = (
{
place = "{54, 64}";
},
{
place = "{312, 64}";
},
{
place = "{754, 72}";
},
{
place = "{758, 64}";
},
{
place = "{520, 72}";
},
{
place = "{524, 64}";
},
{
horizontal = 1;
place = "{397, 62}";
},
{
horizontal = 1;
place = "{-9, 21}";
},
{
horizontal = 1;
place = "{768, 85}";
},
{
horizontal = 1;
place = "{928, -75}";
},
{
horizontal = 1;
place = "{107, 21}";
},
{
horizontal = 1;
place = "{450, 85}";
},
{
horizontal = 1;
place = "{610, -75}";
},
{
horizontal = 1;
place = "{0, 21}";
}
);
layerId = UUID0;
paths = (
{
closed = 1;
nodes = (
"338 655 LINE",
"282 599 LINE",
"251 622 OFFCURVE",
"214 641 OFFCURVE",
"170 656 CURVE",
"147 605 LINE",
"179 589 OFFCURVE",
"210 573 OFFCURVE",
"235 553 CURVE",
"183 501 LINE",
"229 455 LINE",
"280 506 LINE",
"299 478 OFFCURVE",
"310 442 OFFCURVE",
"310 395 CURVE",
"281 404 OFFCURVE",
"249 409 OFFCURVE",
"215 409 CURVE SMOOTH",
"137 409 OFFCURVE",
"86 386 OFFCURVE",
"54 364 CURVE",
"54 185 LINE SMOOTH",
"54 148 OFFCURVE",
"51 82 OFFCURVE",
"95 34 CURVE SMOOTH",
"132 -6 OFFCURVE",
"181 -10 OFFCURVE",
"215 -10 CURVE SMOOTH",
"249 -10 OFFCURVE",
"298 -6 OFFCURVE",
"335 34 CURVE SMOOTH",
"379 82 OFFCURVE",
"376 148 OFFCURVE",
"376 185 CURVE SMOOTH",
"376 405 LINE SMOOTH",
"376 465 OFFCURVE",
"359 515 OFFCURVE",
"328 555 CURVE",
"383 610 LINE"
);
},
{
closed = 1;
nodes = (
"118 325 LINE",
"148 344 OFFCURVE",
"186 349 OFFCURVE",
"215 349 CURVE SMOOTH",
"244 349 OFFCURVE",
"282 344 OFFCURVE",
"312 325 CURVE",
"312 183 LINE SMOOTH",
"312 154 OFFCURVE",
"312 112 OFFCURVE",
"292 84 CURVE SMOOTH",
"282 71 OFFCURVE",
"260 50 OFFCURVE",
"215 50 CURVE SMOOTH",
"170 50 OFFCURVE",
"148 71 OFFCURVE",
"138 84 CURVE SMOOTH",
"118 112 OFFCURVE",
"118 154 OFFCURVE",
"118 183 CURVE SMOOTH"
);
}
);
width = 433;
}
);
unicode = 00F0;
},
{
glyphname = e;
layers = (
{
hints = (
{
place = "{56, 64}";
},
{
place = "{489, 64}";
},
{
place = "{748, 64}";
},
{
place = "{460, 70}";
},
{
horizontal = 1;
place = "{-9, 62}";
},
{
horizontal = 1;
place = "{195, 62}";
},
{
horizontal = 1;
place = "{459, -20}";
target = down;
type = TopGhost;
},
{
horizontal = 1;
place = "{206, 62}";
},
{
horizontal = 1;
place = "{397, 62}";
},
{
horizontal = 1;
place = "{-9, 21}";
},
{
horizontal = 1;
place = "{-9, 67}";
},
{
horizontal = 1;
place = "{559, 66}";
}
);
layerId = UUID0;
paths = (
{
closed = 1;
nodes = (
"120 267 LINE",
"120 296 OFFCURVE",
"120 338 OFFCURVE",
"137 366 CURVE SMOOTH",
"146 379 OFFCURVE",
"167 400 OFFCURVE",
"207 400 CURVE SMOOTH",
"248 400 OFFCURVE",
"268 379 OFFCURVE",
"276 366 CURVE SMOOTH",
"294 338 OFFCURVE",
"294 296 OFFCURVE",
"294 267 CURVE SMOOTH"
);
},
{
closed = 1;
nodes = (
"364 207 LINE",
"364 265 LINE SMOOTH",
"364 302 OFFCURVE",
"366 368 OFFCURVE",
"324 416 CURVE SMOOTH",
"289 456 OFFCURVE",
"243 460 OFFCURVE",
"209 460 CURVE SMOOTH",
"176 460 OFFCURVE",
"130 456 OFFCURVE",
"94 416 CURVE SMOOTH",
"52 368 OFFCURVE",
"56 302 OFFCURVE",
"56 265 CURVE SMOOTH",
"56 102 LINE",
"21 61 LINE",
"74 14 OFFCURVE",
"136 -10 OFFCURVE",
"222 -10 CURVE SMOOTH",
"276 -10 OFFCURVE",
"324 0 OFFCURVE",
"364 24 CURVE",
"364 91 LINE",
"321 62 OFFCURVE",
"277 50 OFFCURVE",
"220 50 CURVE SMOOTH",
"189 50 OFFCURVE",
"150 55 OFFCURVE",
"120 76 CURVE",
"120 207 LINE"
);
}
);
width = 414;
}
);
leftKerningGroup = e;
rightKerningGroup = e;
unicode = 0065;
},
{
glyphname = ecircumflex;
layers = (
{
components = (
{
name = e;
}
);
hints = (
{
place = "{56, 64}";
},
{
place = "{489, 64}";
},
{
place = "{748, 64}";
},
{
place = "{460, 70}";
},
{
place = "{635, 70}";
},
{
horizontal = 1;
place = "{-9, 62}";
},
{
horizontal = 1;
place = "{195, 62}";
},
{
horizontal = 1;
place = "{459, -20}";
target = down;
type = TopGhost;
},
{
horizontal = 1;
place = "{206, 62}";
},
{
horizontal = 1;
place = "{397, 62}";
},
{
horizontal = 1;
place = "{-9, 21}";
},
{
horizontal = 1;
place = "{-9, 67}";
},
{
horizontal = 1;
place = "{559, 66}";
},
{
horizontal = 1;
place = "{124, 21}";
},
{
horizontal = 1;
place = "{544, -20}";
target = down;
type = TopGhost;
},
{
horizontal = 1;
place = "{303, 67}";
},
{
horizontal = 1;
place = "{102, 21}";
},
{
horizontal = 1;
place = "{567, -20}";
target = down;
type = TopGhost;
}
);
layerId = UUID0;
paths = (
{
closed = 1;
nodes = (
"174 655 LINE",
"70 551 LINE",
"116 505 LINE",
"207 595 LINE",
"296 505 LINE",
"342 551 LINE",
"238 655 LINE"
);
}
);
width = 414;
}
);
leftKerningGroup = e;
rightKerningGroup = e;
unicode = 00EA;
},
{
glyphname = f;
layers = (
{
hints = (
{
place = "{60, 64}";
},
{
horizontal = 1;
place = "{388, 62}";
},
{
horizontal = 1;
place = "{0, 21}";
},
{
horizontal = 1;
place = "{663, -20}";
target = down;
type = TopGhost;
}
);
layerId = UUID0;
paths = (
{
closed = 1;
nodes = (
"60 0 LINE",
"124 0 LINE",
"124 390 LINE",
"216 390 LINE",
"216 450 LINE",
"124 450 LINE",
"124 555 LINE",
"164 578 OFFCURVE",
"227 591 OFFCURVE",
"282 595 CURVE",
"277 655 LINE",
"188 649 OFFCURVE",
"94 623 OFFCURVE",
"31 569 CURVE",
"60 524 LINE"
);
}
);
width = 237;
}
);
unicode = 0066;
},
{
glyphname = g;
layers = (
{
hints = (
{
place = "{37, 64}";
},
{
place = "{385, -64}";
},
{
place = "{366, -64}";
},
{
place = "{604, 64}";
},
{
place = "{861, 64}";
},
{
horizontal = 1;
place = "{-212, 62}";
},
{
horizontal = 1;
place = "{0, 181}";
},
{
horizontal = 1;
place = "{459, -20}";
target = down;
type = TopGhost;
},
{
horizontal = 1;
place = "{397, 62}";
},
{
horizontal = 1;
place = "{-9, 21}";
}
);
layerId = UUID0;
paths = (
{
closed = 1;
nodes = (
"302 282 LINE",
"299 215 OFFCURVE",
"261 180 OFFCURVE",
"200 180 CURVE SMOOTH",
"141 180 OFFCURVE",
"101 214 OFFCURVE",
"101 271 CURVE SMOOTH",
"101 306 LINE SMOOTH",
"101 366 OFFCURVE",
"146 400 OFFCURVE",
"209 400 CURVE SMOOTH",
"249 400 OFFCURVE",
"279 391 OFFCURVE",
"302 381 CURVE"
);
},
{
closed = 1;
nodes = (
"389 417 LINE",
"358 433 OFFCURVE",
"302 460 OFFCURVE",
"215 460 CURVE SMOOTH",
"117 460 OFFCURVE",
"37 410 OFFCURVE",
"37 306 CURVE SMOOTH",
"37 271 LINE SMOOTH",
"37 208 OFFCURVE",
"63 160 OFFCURVE",
"111 137 CURVE",
"111 0 LINE",
"229 0 LINE SMOOTH",
"311 0 OFFCURVE",
"332 -34 OFFCURVE",
"332 -100 CURVE SMOOTH",
"332 -121 LINE",
"308 -137 OFFCURVE",
"271 -151 OFFCURVE",
"219 -151 CURVE SMOOTH",
"158 -151 OFFCURVE",
"117 -140 OFFCURVE",
"55 -94 CURVE",
"21 -145 LINE",
"76 -189 OFFCURVE",
"142 -211 OFFCURVE",
"219 -211 CURVE SMOOTH",
"299 -211 OFFCURVE",
"374 -185 OFFCURVE",
"430 -134 CURVE",
"396 -93 LINE",
"396 -69 LINE SMOOTH",
"396 33 OFFCURVE",
"311 60 OFFCURVE",
"229 60 CURVE SMOOTH",
"176 60 LINE",
"176 122 LINE",
"182 121 OFFCURVE",
"192 120 OFFCURVE",
"202 120 CURVE SMOOTH",
"304 120 OFFCURVE",
"366 183 OFFCURVE",
"366 281 CURVE SMOOTH",
"366 364 LINE"
);
}
);
width = 423;
}
);
unicode = 0067;
},
{
glyphname = h;
layers = (
{
hints = (
{
place = "{61, 64}";
},
{
place = "{331, 64}";
},
{
place = "{61, 64}";
},
{
place = "{324, 64}";
},
{
horizontal = 1;
place = "{397, 62}";
},
{
horizontal = 1;
place = "{655, -20}";
target = down;
type = TopGhost;
},
{
horizontal = 1;
place = "{0, 21}";
},
{
horizontal = 1;
place = "{397, 62}";
},
{
horizontal = 1;
place = "{0, 21}";
}
);
layerId = UUID0;
paths = (
{
closed = 1;
nodes = (
"125 655 LINE",
"41 655 LINE",
"61 592 LINE",
"61 0 LINE",
"125 0 LINE",
"125 385 LINE",
"146 394 OFFCURVE",
"172 400 OFFCURVE",
"205 400 CURVE SMOOTH",
"262 400 OFFCURVE",
"288 377 OFFCURVE",
"299 359 CURVE SMOOTH",
"316 334 OFFCURVE",
"318 293 OFFCURVE",
"318 205 CURVE SMOOTH",
"318 0 LINE",
"382 0 LINE",
"382 203 LINE SMOOTH",
"382 310 OFFCURVE",
"378 351 OFFCURVE",
"364 381 CURVE SMOOTH",
"332 450 OFFCURVE",
"259 460 OFFCURVE",
"209 460 CURVE SMOOTH",
"178 460 OFFCURVE",
"149 455 OFFCURVE",
"125 447 CURVE"
);
}
);
width = 438;
}
);
leftKerningGroup = h;
rightKerningGroup = n;
unicode = 0068;
},
{
glyphname = i;
layers = (
{
hints = (
{
place = "{59, 72}";
},
{
place = "{63, 64}";
},
{
horizontal = 1;
place = "{450, 85}";
},
{
horizontal = 1;
place = "{610, -75}";
},
{
horizontal = 1;
place = "{0, 21}";
}
);
layerId = UUID0;
paths = (
{
closed = 1;
nodes = (
"59 616 LINE",
"59 541 LINE",
"130 541 LINE",
"130 616 LINE"
);
},
{
closed = 1;
nodes = (
"42 450 LINE",
"63 387 LINE",
"63 0 LINE",
"126 0 LINE",
"126 450 LINE"
);
}
);
width = 187;
}
);
leftKerningGroup = i;
rightKerningGroup = i;
unicode = 0069;
},
{
glyphname = idotless;
layers = (
{
hints = (
{
place = "{59, 72}";
},
{
place = "{63, 64}";
},
{
horizontal = 1;
place = "{450, 85}";
},
{
horizontal = 1;
place = "{610, -75}";
},
{
horizontal = 1;
place = "{0, 21}";
}
);
layerId = UUID0;
paths = (
{
closed = 1;
nodes = (
"42 450 LINE",
"63 387 LINE",
"63 0 LINE",
"126 0 LINE",
"126 450 LINE"
);
}
);
width = 187;
}
);
leftKerningGroup = i;
rightKerningGroup = i;
unicode = 0131;
},
{
glyphname = j;
layers = (
{
hints = (
{
place = "{59, 72}";
},
{
place = "{63, 64}";
},
{
horizontal = 1;
place = "{450, 85}";
},
{
horizontal = 1;
place = "{610, -75}";
},
{
horizontal = 1;
place = "{-211, 21}";
}
);
layerId = UUID0;
paths = (
{
closed = 1;
nodes = (
"-19 -211 LINE",
"109 -148 OFFCURVE",
"127 -70 OFFCURVE",
"127 64 CURVE SMOOTH",
"127 450 LINE",
"43 450 LINE",
"63 387 LINE",
"63 64 LINE SMOOTH",
"63 -60 OFFCURVE",
"51 -108 OFFCURVE",
"-48 -160 CURVE"
);
},
{
closed = 1;
nodes = (
"59 616 LINE",
"59 541 LINE",
"131 541 LINE",
"131 616 LINE"
);
}
);
width = 187;
}
);
leftKerningGroup = i;
rightKerningGroup = i;
unicode = 006A;
},
{
glyphname = k;
layers = (
{
hints = (
{
place = "{61, 64}";
},
{
horizontal = 1;
place = "{655, -20}";
target = down;
type = TopGhost;
},
{
horizontal = 1;
place = "{0, 21}";
},
{
horizontal = 1;
place = "{-9, 21}";
}
);
layerId = UUID0;
paths = (
{
closed = 1;
nodes = (
"41 655 LINE",
"61 592 LINE",
"61 0 LINE",
"125 0 LINE",
"125 655 LINE"
);
},
{
closed = 1;
nodes = (
"166 217 LINE",
"318 -10 LINE",
"372 26 LINE",
"213 261 LINE",
"237 334 OFFCURVE",
"292 380 OFFCURVE",
"361 400 CURVE",
"339 460 LINE",
"226 428 OFFCURVE",
"152 327 OFFCURVE",
"139 217 CURVE"
);
}
);
width = 382;
}
);
leftKerningGroup = h;
unicode = 006B;
},
{
glyphname = l;
layers = (
{
hints = (
{
place = "{57, 64}";
},
{
horizontal = 1;
place = "{655, -20}";
target = down;
type = TopGhost;
},
{
horizontal = 1;
place = "{-16, 21}";
}
);
layerId = UUID0;
paths = (
{
closed = 1;
nodes = (
"37 655 LINE",
"57 592 LINE",
"57 259 LINE SMOOTH",
"57 121 OFFCURVE",
"77 49 OFFCURVE",
"187 -10 CURVE",
"220 43 LINE",
"128 99 OFFCURVE",
"121 149 OFFCURVE",
"121 259 CURVE SMOOTH",
"121 655 LINE"
);
}
);
width = 223;
}
);
unicode = 006C;
},
{
glyphname = m;
layers = (
{
hints = (
{
place = "{65, 64}";
},
{
place = "{269, 64}";
},
{
place = "{473, 63}";
},
{
place = "{610, 64}";
},
{
place = "{873, 64}";
},
{
horizontal = 1;
place = "{397, 62}";
},
{
horizontal = 1;
place = "{0, 21}";
},
{
horizontal = 1;
place = "{397, 62}";
},
{
horizontal = 1;
place = "{0, 21}";
}
);
layerId = UUID0;
paths = (
{
closed = 1;
nodes = (
"65 345 LINE",
"65 0 LINE",
"129 0 LINE",
"129 373 LINE",
"171 391 OFFCURVE",
"222 400 OFFCURVE",
"269 400 CURVE",
"269 0 LINE",
"333 0 LINE",
"333 400 LINE",
"366 400 OFFCURVE",
"414 386 OFFCURVE",
"438 361 CURVE SMOOTH",
"475 323 OFFCURVE",
"473 253 OFFCURVE",
"473 203 CURVE SMOOTH",
"473 0 LINE",
"536 0 LINE",
"536 238 LINE SMOOTH",
"536 293 OFFCURVE",
"533 358 OFFCURVE",
"483 406 CURVE SMOOTH",
"429 457 OFFCURVE",
"334 460 OFFCURVE",
"299 460 CURVE SMOOTH",
"202 460 OFFCURVE",
"110 438 OFFCURVE",
"37 394 CURVE"
);
}
);
width = 590;
}
);
leftKerningGroup = m;
unicode = 006D;
},
{
glyphname = n;
layers = (
{
hints = (
{
place = "{63, 64}";
},
{
place = "{327, 64}";
},
{
horizontal = 1;
place = "{397, 62}";
},
{
horizontal = 1;
place = "{0, 21}";
}
);
layerId = UUID0;
paths = (
{
closed = 1;
nodes = (
"63 365 LINE",
"63 0 LINE",
"127 0 LINE",
"127 385 LINE",
"149 394 OFFCURVE",
"176 400 OFFCURVE",
"208 400 CURVE SMOOTH",
"265 400 OFFCURVE",
"291 377 OFFCURVE",
"303 359 CURVE SMOOTH",
"319 334 OFFCURVE",
"322 293 OFFCURVE",
"322 205 CURVE SMOOTH",
"322 0 LINE",
"386 0 LINE",
"386 203 LINE SMOOTH",
"386 310 OFFCURVE",
"381 351 OFFCURVE",
"368 381 CURVE SMOOTH",
"334 450 OFFCURVE",
"263 460 OFFCURVE",
"212 460 CURVE SMOOTH",
"132 460 OFFCURVE",
"75 435 OFFCURVE",
"40 414 CURVE"
);
}
);
width = 441;
}
);
leftKerningGroup = n;
rightKerningGroup = n;
unicode = 006E;
},
{
glyphname = o;
layers = (
{
hints = (
{
place = "{54, 64}";
},
{
place = "{312, 64}";
},
{
horizontal = 1;
place = "{397, 62}";
},
{
horizontal = 1;
place = "{-9, 21}";
}
);
layerId = UUID0;
paths = (
{
closed = 1;
nodes = (
"118 267 LINE",
"118 296 OFFCURVE",
"118 338 OFFCURVE",
"138 366 CURVE SMOOTH",
"148 379 OFFCURVE",
"170 400 OFFCURVE",
"215 400 CURVE SMOOTH",
"260 400 OFFCURVE",
"282 379 OFFCURVE",
"292 366 CURVE SMOOTH",
"312 338 OFFCURVE",
"312 296 OFFCURVE",
"312 267 CURVE SMOOTH",
"312 76 LINE",
"282 55 OFFCURVE",
"244 50 OFFCURVE",
"215 50 CURVE SMOOTH",
"186 50 OFFCURVE",
"148 55 OFFCURVE",
"118 76 CURVE"
);
},
{
closed = 1;
nodes = (
"54 35 LINE",
"86 13 OFFCURVE",
"137 -10 OFFCURVE",
"215 -10 CURVE SMOOTH",
"294 -10 OFFCURVE",
"357 14 OFFCURVE",
"410 61 CURVE",
"376 102 LINE",
"376 265 LINE SMOOTH",
"376 302 OFFCURVE",
"379 368 OFFCURVE",
"335 416 CURVE SMOOTH",
"298 456 OFFCURVE",
"249 460 OFFCURVE",
"215 460 CURVE SMOOTH",
"181 460 OFFCURVE",
"132 456 OFFCURVE",
"95 416 CURVE SMOOTH",
"51 368 OFFCURVE",
"54 302 OFFCURVE",
"54 265 CURVE SMOOTH"
);
}
);
width = 431;
}
);
leftKerningGroup = o;
rightKerningGroup = o;
unicode = 006F;
},
{
glyphname = oslash;
layers = (
{
hints = (
{
place = "{56, 64}";
},
{
place = "{314, 64}";
},
{
horizontal = 1;
place = "{397, 62}";
},
{
horizontal = 1;
place = "{-9, 21}";
}
);
layerId = UUID0;
paths = (
{
closed = 1;
nodes = (
"-2 -41 LINE",
"47 -81 LINE",
"114 6 LINE",
"141 -3 OFFCURVE",
"175 -10 OFFCURVE",
"217 -10 CURVE SMOOTH",
"296 -10 OFFCURVE",
"359 14 OFFCURVE",
"412 61 CURVE",
"378 102 LINE",
"378 265 LINE SMOOTH",
"378 285 OFFCURVE",
"379 314 OFFCURVE",
"372 343 CURVE",
"443 435 LINE",
"394 475 LINE",
"343 409 LINE",
"337 416 LINE SMOOTH",
"300 456 OFFCURVE",
"251 460 OFFCURVE",
"217 460 CURVE SMOOTH",
"183 460 OFFCURVE",
"134 456 OFFCURVE",
"97 416 CURVE SMOOTH",
"53 368 OFFCURVE",
"56 302 OFFCURVE",
"56 265 CURVE SMOOTH",
"56 35 LINE"
);
},
{
closed = 1;
nodes = (
"120 267 LINE SMOOTH",
"120 296 OFFCURVE",
"120 338 OFFCURVE",
"140 366 CURVE SMOOTH",
"150 379 OFFCURVE",
"172 400 OFFCURVE",
"217 400 CURVE SMOOTH",
"262 400 OFFCURVE",
"284 379 OFFCURVE",
"294 366 CURVE",
"301 354 LINE",
"120 118 LINE"
);
},
{
closed = 1;
nodes = (
"314 76 LINE",
"284 55 OFFCURVE",
"246 50 OFFCURVE",
"217 50 CURVE SMOOTH",
"198 50 OFFCURVE",
"176 52 OFFCURVE",
"154 59 CURVE",
"314 267 LINE"
);
}
);
width = 447;
}
);
leftKerningGroup = o;
rightKerningGroup = o;
unicode = 00F8;
},
{
glyphname = oe;
layers = (
{
hints = (
{
place = "{54, 64}";
},
{
place = "{312, 64}";
},
{
place = "{312, 64}";
},
{
place = "{745, 64}";
},
{
place = "{1004, 64}";
},
{
place = "{717, 69}";
},
{
horizontal = 1;
place = "{397, 62}";
},
{
horizontal = 1;
place = "{-9, 21}";
},
{
horizontal = 1;
place = "{-9, 62}";
},
{
horizontal = 1;
place = "{195, 62}";
},
{
horizontal = 1;
place = "{459, -20}";
target = down;
type = TopGhost;
},
{
horizontal = 1;
place = "{206, 62}";
},
{
horizontal = 1;
place = "{397, 62}";
},
{
horizontal = 1;
place = "{-9, 21}";
},
{
horizontal = 1;
place = "{-9, 67}";
},
{
horizontal = 1;
place = "{559, 66}";
}
);
layerId = UUID0;
paths = (
{
closed = 1;
nodes = (
"620 207 LINE",
"620 265 LINE SMOOTH",
"620 302 OFFCURVE",
"622 368 OFFCURVE",
"580 416 CURVE SMOOTH",
"545 456 OFFCURVE",
"499 460 OFFCURVE",
"466 460 CURVE SMOOTH",
"423 460 OFFCURVE",
"382 448 OFFCURVE",
"343 406 CURVE",
"303 448 OFFCURVE",
"259 460 OFFCURVE",
"215 460 CURVE SMOOTH",
"181 460 OFFCURVE",
"132 456 OFFCURVE",
"95 416 CURVE SMOOTH",
"51 368 OFFCURVE",
"54 302 OFFCURVE",
"54 265 CURVE SMOOTH",
"54 35 LINE",
"86 13 OFFCURVE",
"137 -10 OFFCURVE",
"215 -10 CURVE SMOOTH",
"263 -10 OFFCURVE",
"305 0 OFFCURVE",
"344 17 CURVE",
"382 0 OFFCURVE",
"425 -10 OFFCURVE",
"478 -10 CURVE SMOOTH",
"533 -10 OFFCURVE",
"580 0 OFFCURVE",
"620 24 CURVE",
"620 91 LINE",
"577 62 OFFCURVE",
"534 50 OFFCURVE",
"476 50 CURVE SMOOTH",
"446 50 OFFCURVE",
"407 55 OFFCURVE",
"376 76 CURVE",
"376 207 LINE"
);
},
{
closed = 1;
nodes = (
"118 267 LINE SMOOTH",
"118 296 OFFCURVE",
"118 338 OFFCURVE",
"138 366 CURVE",
"148 379 OFFCURVE",
"170 400 OFFCURVE",
"215 400 CURVE SMOOTH",
"260 400 OFFCURVE",
"282 379 OFFCURVE",
"292 366 CURVE",
"308 343 OFFCURVE",
"311 310 OFFCURVE",
"312 283 CURVE SMOOTH",
"312 267 LINE",
"312 76 LINE",
"282 55 OFFCURVE",
"244 50 OFFCURVE",
"215 50 CURVE SMOOTH",
"186 50 OFFCURVE",
"148 55 OFFCURVE",
"118 76 CURVE"
);
},
{
closed = 1;
nodes = (
"376 267 LINE",
"376 296 OFFCURVE",
"376 338 OFFCURVE",
"393 366 CURVE",
"403 379 OFFCURVE",
"423 400 OFFCURVE",
"463 400 CURVE SMOOTH",
"504 400 OFFCURVE",
"524 379 OFFCURVE",
"533 366 CURVE",
"551 338 OFFCURVE",
"551 296 OFFCURVE",
"551 267 CURVE"
);
}
);
width = 670;
}
);
leftKerningGroup = o;
rightKerningGroup = e;
unicode = 0153;
},
{
glyphname = p;
layers = (
{
hints = (
{
place = "{65, 64}";
},
{
place = "{329, 66}";
},
{
horizontal = 1;
place = "{-9, 62}";
},
{
horizontal = 1;
place = "{397, 62}";
},
{
horizontal = 1;
place = "{-211, 21}";
}
);
layerId = UUID0;
paths = (
{
closed = 1;
nodes = (
"65 363 LINE",
"65 -211 LINE",
"129 -211 LINE",
"129 2 LINE",
"157 -6 OFFCURVE",
"180 -10 OFFCURVE",
"210 -10 CURVE SMOOTH",
"334 -10 OFFCURVE",
"396 105 OFFCURVE",
"396 225 CURVE SMOOTH",
"396 345 OFFCURVE",
"344 460 OFFCURVE",
"207 460 CURVE SMOOTH",
"138 460 OFFCURVE",
"78 438 OFFCURVE",
"37 414 CURVE"
);
},
{
closed = 1;
nodes = (
"129 384 LINE",
"149 394 OFFCURVE",
"177 400 OFFCURVE",
"202 400 CURVE SMOOTH",
"304 400 OFFCURVE",
"329 305 OFFCURVE",
"329 225 CURVE SMOOTH",
"329 145 OFFCURVE",
"299 50 OFFCURVE",
"201 50 CURVE SMOOTH",
"168 50 OFFCURVE",
"144 60 OFFCURVE",
"129 66 CURVE"
);
}
);
width = 440;
}
);
rightKerningGroup = p;
unicode = 0070;
},
{
glyphname = thorn;
layers = (
{
hints = (
{
place = "{60, 64}";
},
{
place = "{324, 66}";
},
{
place = "{607, 64}";
},
{
place = "{871, 66}";
},
{
horizontal = 1;
place = "{-9, 62}";
},
{
horizontal = 1;
place = "{397, 62}";
},
{
horizontal = 1;
place = "{-211, 21}";
},
{
horizontal = 1;
place = "{-9, 62}";
},
{
horizontal = 1;
place = "{397, 62}";
},
{
horizontal = 1;
place = "{655, -20}";
target = down;
type = TopGhost;
}
);
layerId = UUID0;
paths = (
{
closed = 1;
nodes = (
"60 -211 LINE",
"124 -211 LINE",
"124 2 LINE",
"152 -6 OFFCURVE",
"175 -10 OFFCURVE",
"205 -10 CURVE SMOOTH",
"329 -10 OFFCURVE",
"390 105 OFFCURVE",
"390 225 CURVE SMOOTH",
"390 345 OFFCURVE",
"339 460 OFFCURVE",
"201 460 CURVE SMOOTH",
"174 460 OFFCURVE",
"148 457 OFFCURVE",
"124 451 CURVE",
"124 655 LINE",
"40 655 LINE",
"60 592 LINE"
);
},
{
closed = 1;
nodes = (
"124 384 LINE",
"144 394 OFFCURVE",
"172 400 OFFCURVE",
"197 400 CURVE SMOOTH",
"299 400 OFFCURVE",
"324 305 OFFCURVE",
"324 225 CURVE SMOOTH",
"324 145 OFFCURVE",
"294 50 OFFCURVE",
"196 50 CURVE SMOOTH",
"163 50 OFFCURVE",
"138 60 OFFCURVE",
"124 66 CURVE"
);
}
);
width = 435;
}
);
leftKerningGroup = h;
rightKerningGroup = p;
unicode = 00FE;
},
{
glyphname = q;
layers = (
{
hints = (
{
place = "{57, 64}";
},
{
place = "{314, 64}";
},
{
horizontal = 1;
place = "{0, 62}";
},
{
horizontal = 1;
place = "{397, 62}";
}
);
layerId = UUID0;
paths = (
{
closed = 1;
nodes = (
"403 414 LINE",
"362 438 OFFCURVE",
"302 460 OFFCURVE",
"233 460 CURVE SMOOTH",
"96 460 OFFCURVE",
"44 345 OFFCURVE",
"44 225 CURVE SMOOTH",
"44 105 OFFCURVE",
"105 -10 OFFCURVE",
"229 -10 CURVE SMOOTH",
"260 -10 OFFCURVE",
"283 -6 OFFCURVE",
"311 2 CURVE",
"311 -211 LINE",
"375 -211 LINE",
"375 363 LINE"
);
},
{
closed = 1;
nodes = (
"311 66 LINE",
"296 60 OFFCURVE",
"271 50 OFFCURVE",
"239 50 CURVE SMOOTH",
"141 50 OFFCURVE",
"111 145 OFFCURVE",
"111 225 CURVE SMOOTH",
"111 305 OFFCURVE",
"136 400 OFFCURVE",
"238 400 CURVE SMOOTH",
"263 400 OFFCURVE",
"291 394 OFFCURVE",
"311 384 CURVE"
);
}
);
width = 440;
}
);
leftKerningGroup = d;
unicode = 0071;
},
{
glyphname = r;
layers = (
{
hints = (
{
place = "{63, 64}";
},
{
horizontal = 1;
place = "{0, 21}";
},
{
horizontal = 1;
place = "{466, -20}";
target = down;
type = TopGhost;
}
);
layerId = UUID0;
paths = (
{
closed = 1;
nodes = (
"63 0 LINE",
"127 0 LINE",
"127 364 LINE",
"151 377 OFFCURVE",
"187 390 OFFCURVE",
"251 400 CURVE",
"240 460 LINE",
"167 449 OFFCURVE",
"93 427 OFFCURVE",
"34 378 CURVE",
"63 333 LINE"
);
}
);
width = 269;
}
);
leftKerningGroup = m;
unicode = 0072;
},
{
glyphname = s;
layers = (
{
hints = (
{
place = "{750, -64}";
},
{
place = "{-348, 64}";
},
{
place = "{-90, 64}";
},
{
horizontal = 1;
place = "{-9, 62}";
},
{
horizontal = 1;
place = "{459, -20}";
target = down;
type = TopGhost;
},
{
horizontal = 1;
place = "{-16, 62}";
},
{
horizontal = 1;
place = "{390, 62}";
},
{
horizontal = 1;
place = "{397, 62}";
},
{
horizontal = 1;
place = "{-9, 21}";
}
);
layerId = UUID0;
paths = (
{
closed = 1;
nodes = (
"330 424 LINE",
"294 445 OFFCURVE",
"246 460 OFFCURVE",
"189 460 CURVE SMOOTH",
"99 460 OFFCURVE",
"45 411 OFFCURVE",
"45 337 CURVE SMOOTH",
"45 270 OFFCURVE",
"83 240 OFFCURVE",
"127 218 CURVE SMOOTH",
"204 180 LINE SMOOTH",
"254 155 OFFCURVE",
"267 132 OFFCURVE",
"267 92 CURVE SMOOTH",
"267 72 LINE",
"249 58 OFFCURVE",
"216 50 OFFCURVE",
"180 50 CURVE SMOOTH",
"119 50 OFFCURVE",
"82 63 OFFCURVE",
"45 79 CURVE",
"45 15 LINE",
"77 1 OFFCURVE",
"124 -10 OFFCURVE",
"182 -10 CURVE SMOOTH",
"240 -10 OFFCURVE",
"307 1 OFFCURVE",
"365 54 CURVE",
"331 95 LINE",
"331 118 LINE SMOOTH",
"331 171 OFFCURVE",
"295 206 OFFCURVE",
"237 234 CURVE SMOOTH",
"171 266 LINE SMOOTH",
"136 283 OFFCURVE",
"109 301 OFFCURVE",
"109 337 CURVE SMOOTH",
"109 384 OFFCURVE",
"145 398 OFFCURVE",
"189 398 CURVE SMOOTH",
"234 398 OFFCURVE",
"266 387 OFFCURVE",
"304 368 CURVE"
);
}
);
width = 380;
}
);
unicode = 0073;
},
{
glyphname = germandbls;
layers = (
{
hints = (
{
place = "{755, -64}";
},
{
place = "{-343, 64}";
},
{
place = "{-85, 64}";
},
{
place = "{-94, 64}";
},
{
place = "{572, 70}";
},
{
place = "{872, 70}";
},
{
place = "{473, 70}";
},
{
place = "{773, 70}";
},
{
place = "{-412, 64}";
},
{
horizontal = 1;
place = "{-9, 62}";
},
{
horizontal = 1;
place = "{459, -20}";
target = down;
type = TopGhost;
},
{
horizontal = 1;
place = "{-16, 62}";
},
{
horizontal = 1;
place = "{390, 62}";
},
{
horizontal = 1;
place = "{397, 62}";
},
{
horizontal = 1;
place = "{-9, 21}";
},
{
horizontal = 1;
place = "{-10, 20}";
},
{
horizontal = 1;
place = "{651, 21}";
target = up;
type = BottomGhost;
},
{
horizontal = 1;
place = "{-9, 66}";
},
{
horizontal = 1;
place = "{559, 66}";
},
{
horizontal = 1;
place = "{-9, 66}";
},
{
horizontal = 1;
place = "{559, 66}";
},
{
horizontal = 1;
place = "{388, 62}";
},
{
horizontal = 1;
place = "{570, -20}";
target = down;
type = TopGhost;
},
{
horizontal = 1;
place = "{-9, 21}";
}
);
layerId = UUID0;
paths = (
{
closed = 1;
nodes = (
"22 388 LINE",
"107 388 LINE",
"107 -10 LINE",
"171 -10 LINE",
"171 449 LINE SMOOTH",
"171 533 OFFCURVE",
"219 593 OFFCURVE",
"316 593 CURVE SMOOTH",
"412 593 OFFCURVE",
"462 533 OFFCURVE",
"462 450 CURVE",
"389 450 LINE SMOOTH",
"303 450 OFFCURVE",
"251 403 OFFCURVE",
"251 332 CURVE SMOOTH",
"251 268 OFFCURVE",
"285 239 OFFCURVE",
"326 218 CURVE SMOOTH",
"402 180 LINE SMOOTH",
"450 155 OFFCURVE",
"462 132 OFFCURVE",
"462 92 CURVE SMOOTH",
"462 72 LINE",
"445 58 OFFCURVE",
"414 50 OFFCURVE",
"379 50 CURVE SMOOTH",
"321 50 OFFCURVE",
"286 63 OFFCURVE",
"251 79 CURVE",
"251 15 LINE",
"282 1 OFFCURVE",
"327 -10 OFFCURVE",
"383 -10 CURVE SMOOTH",
"438 -10 OFFCURVE",
"504 1 OFFCURVE",
"559 54 CURVE",
"526 95 LINE",
"526 118 LINE SMOOTH",
"526 171 OFFCURVE",
"492 206 OFFCURVE",
"436 234 CURVE SMOOTH",
"369 266 LINE SMOOTH",
"337 282 OFFCURVE",
"312 298 OFFCURVE",
"312 332 CURVE SMOOTH",
"312 374 OFFCURVE",
"343 388 OFFCURVE",
"389 388 CURVE SMOOTH",
"526 388 LINE",
"526 424 LINE SMOOTH",
"526 551 OFFCURVE",
"481 655 OFFCURVE",
"316 655 CURVE SMOOTH",
"171 655 OFFCURVE",
"107 558 OFFCURVE",
"107 450 CURVE",
"22 450 LINE"
);
}
);
width = 577;
}
);
unicode = 00DF;
},
{
glyphname = t;
layers = (
{
hints = (
{
place = "{52, 64}";
},
{
horizontal = 1;
place = "{388, 62}";
},
{
horizontal = 1;
place = "{570, -20}";
target = down;
type = TopGhost;
},
{
horizontal = 1;
place = "{-9, 21}";
}
);
layerId = UUID0;
paths = (
{
closed = 1;
nodes = (
"32 570 LINE",
"52 507 LINE",
"52 233 LINE SMOOTH",
"52 182 OFFCURVE",
"56 131 OFFCURVE",
"92 80 CURVE SMOOTH",
"117 45 OFFCURVE",
"160 11 OFFCURVE",
"199 -10 CURVE",
"237 40 LINE",
"202 61 OFFCURVE",
"156 98 OFFCURVE",
"138 129 CURVE SMOOTH",
"113 172 OFFCURVE",
"116 221 OFFCURVE",
"116 259 CURVE SMOOTH",
"116 388 LINE",
"211 388 LINE",
"211 450 LINE",
"116 450 LINE",
"116 570 LINE"
);
}
);
width = 245;
}
);
unicode = 0074;
},
{
glyphname = u;
layers = (
{
hints = (
{
place = "{56, 64}";
},
{
place = "{313, 64}";
},
{
horizontal = 1;
place = "{-9, 62}";
},
{
horizontal = 1;
place = "{450, -20}";
target = down;
type = TopGhost;
}
);
layerId = UUID0;
paths = (
{
closed = 1;
nodes = (
"378 85 LINE",
"378 450 LINE",
"314 450 LINE",
"314 65 LINE",
"292 56 OFFCURVE",
"266 50 OFFCURVE",
"234 50 CURVE SMOOTH",
"177 50 OFFCURVE",
"151 73 OFFCURVE",
"139 91 CURVE SMOOTH",
"123 116 OFFCURVE",
"120 157 OFFCURVE",
"120 245 CURVE SMOOTH",
"120 450 LINE",
"56 450 LINE",
"56 247 LINE SMOOTH",
"56 140 OFFCURVE",
"61 99 OFFCURVE",
"74 69 CURVE SMOOTH",
"107 0 OFFCURVE",
"179 -10 OFFCURVE",
"229 -10 CURVE SMOOTH",
"310 -10 OFFCURVE",
"367 15 OFFCURVE",
"402 36 CURVE"
);
}
);
width = 442;
}
);
leftKerningGroup = u;
rightKerningGroup = u;
unicode = 0075;
},
{
glyphname = v;
layers = (
{
hints = (
{
horizontal = 1;
place = "{-9, 21}";
},
{
horizontal = 1;
place = "{462, -20}";
target = down;
type = TopGhost;
}
);
layerId = UUID0;
paths = (
{
closed = 1;
nodes = (
"22 447 LINE",
"98 125 LINE SMOOTH",
"120 34 OFFCURVE",
"160 -10 OFFCURVE",
"235 -10 CURVE SMOOTH",
"279 -10 OFFCURVE",
"314 3 OFFCURVE",
"335 17 CURVE",
"312 63 LINE",
"402 447 LINE",
"339 460 LINE",
"244 51 LINE",
"239 50 OFFCURVE",
"234 50 OFFCURVE",
"230 50 CURVE SMOOTH",
"186 52 OFFCURVE",
"171 95 OFFCURVE",
"160 140 CURVE SMOOTH",
"85 460 LINE"
);
}
);
width = 425;
}
);
unicode = 0076;
},
{
glyphname = w;
layers = (
{
hints = (
{
place = "{222, 64}";
},
{
horizontal = 1;
place = "{-9, 62}";
},
{
horizontal = 1;
place = "{462, -20}";
target = down;
type = TopGhost;
}
);
layerId = UUID0;
paths = (
{
closed = 1;
nodes = (
"30 452 LINE",
"79 135 LINE SMOOTH",
"100 8 OFFCURVE",
"190 -10 OFFCURVE",
"288 -10 CURVE SMOOTH",
"370 -10 OFFCURVE",
"451 10 OFFCURVE",
"482 27 CURVE",
"463 74 LINE",
"522 452 LINE",
"458 460 LINE",
"397 64 LINE",
"385 58 OFFCURVE",
"338 49 OFFCURVE",
"306 50 CURVE",
"306 365 LINE",
"242 365 LINE",
"242 50 LINE",
"190 53 OFFCURVE",
"152 76 OFFCURVE",
"142 145 CURVE SMOOTH",
"94 460 LINE"
);
}
);
width = 555;
}
);
unicode = 0077;
},
{
glyphname = x;
layers = (
{
hints = (
{
horizontal = 1;
place = "{-9, 21}";
},
{
horizontal = 1;
place = "{463, -20}";
target = down;
type = TopGhost;
}
);
layerId = UUID0;
paths = (
{
closed = 1;
nodes = (
"35 431 LINE",
"136 231 LINE",
"68 179 OFFCURVE",
"48 69 OFFCURVE",
"35 2 CURVE",
"97 -10 LINE",
"110 56 OFFCURVE",
"122 151 OFFCURVE",
"183 184 CURVE SMOOTH",
"218 203 LINE",
"325 -11 LINE",
"383 18 LINE",
"274 233 LINE",
"330 266 OFFCURVE",
"351 331 OFFCURVE",
"367 448 CURVE",
"305 460 LINE",
"287 343 OFFCURVE",
"275 303 OFFCURVE",
"229 279 CURVE SMOOTH",
"193 261 LINE",
"92 460 LINE"
);
}
);
width = 411;
}
);
unicode = 0078;
},
{
glyphname = y;
layers = (
{
background = {
paths = (
{
closed = 1;
nodes = (
"22 447 LINE",
"98 125 LINE",
"119 36 OFFCURVE",
"158 -7 OFFCURVE",
"229 -10 CURVE",
"186 -197 LINE",
"248 -211 LINE",
"402 447 LINE",
"339 460 LINE",
"244 51 LINE",
"239 50 OFFCURVE",
"234 50 OFFCURVE",
"230 50 CURVE SMOOTH",
"186 52 OFFCURVE",
"171 95 OFFCURVE",
"160 140 CURVE",
"85 460 LINE"
);
}
);
};
hints = (
{
place = "{36, 71}";
},
{
place = "{600, 70}";
},
{
place = "{487, 64}";
},
{
place = "{745, 64}";
},
{
place = "{-134, 72}";
},
{
place = "{-130, 64}";
},
{
place = "{-218, 72}";
},
{
place = "{-214, 64}";
},
{
horizontal = 1;
place = "{457, -20}";
target = down;
type = TopGhost;
},
{
horizontal = 1;
place = "{-210, 21}";
},
{
horizontal = 1;
place = "{-166, 21}";
},
{
horizontal = 1;
place = "{459, -20}";
target = down;
type = TopGhost;
},
{
horizontal = 1;
place = "{53, -62}";
},
{
horizontal = 1;
place = "{449, 21}";
target = up;
type = BottomGhost;
},
{
horizontal = 1;
place = "{450, 85}";
},
{
horizontal = 1;
place = "{610, -75}";
},
{
horizontal = 1;
place = "{0, 21}";
},
{
horizontal = 1;
place = "{-9, 21}";
},
{
horizontal = 1;
place = "{462, -20}";
target = down;
type = TopGhost;
},
{
horizontal = 1;
place = "{450, 85}";
},
{
horizontal = 1;
place = "{610, -75}";
},
{
horizontal = 1;
place = "{0, 21}";
}
);
layerId = UUID0;
paths = (
{
closed = 1;
nodes = (
"22 447 LINE",
"98 125 LINE",
"119 36 OFFCURVE",
"158 -7 OFFCURVE",
"229 -10 CURVE",
"186 -197 LINE",
"248 -211 LINE",
"402 447 LINE",
"339 460 LINE",
"244 51 LINE",
"239 50 OFFCURVE",
"234 50 OFFCURVE",
"230 50 CURVE SMOOTH",
"186 52 OFFCURVE",
"171 95 OFFCURVE",
"160 140 CURVE",
"85 460 LINE"
);
}
);
width = 424;
}
);
leftKerningGroup = y;
rightKerningGroup = y;
unicode = 0079;
},
{
glyphname = z;
layers = (
{
hints = (
{
horizontal = 1;
place = "{0, 62}";
},
{
horizontal = 1;
place = "{397, 62}";
}
);
layerId = UUID0;
paths = (
{
closed = 1;
nodes = (
"322 450 LINE",
"46 450 LINE",
"46 388 LINE",
"219 388 LINE",
"25 0 LINE",
"322 0 LINE",
"322 62 LINE",
"127 62 LINE"
);
}
);
width = 356;
}
);
unicode = 007A;
},
{
glyphname = ordfeminine;
layers = (
{
hints = (
{
place = "{35, 66}";
},
{
place = "{284, 64}";
},
{
place = "{501, 72}";
},
{
place = "{505, 64}";
},
{
horizontal = 1;
place = "{-9, 57}";
},
{
horizontal = 1;
place = "{237, 62}";
},
{
horizontal = 1;
place = "{463, -20}";
target = down;
type = TopGhost;
},
{
horizontal = 1;
place = "{450, 85}";
},
{
horizontal = 1;
place = "{610, -75}";
},
{
horizontal = 1;
place = "{0, 21}";
}
);
layerId = UUID0;
paths = (
{
closed = 1;
nodes = (
"79 575 LINE",
"120 574 OFFCURVE",
"173 563 OFFCURVE",
"178 525 CURVE",
"108 524 OFFCURVE",
"35 506 OFFCURVE",
"35 418 CURVE SMOOTH",
"35 390 OFFCURVE",
"46 367 OFFCURVE",
"61 353 CURVE SMOOTH",
"75 338 OFFCURVE",
"99 326 OFFCURVE",
"141 326 CURVE SMOOTH",
"174 326 OFFCURVE",
"212 334 OFFCURVE",
"251 357 CURVE",
"235 383 LINE",
"235 514 LINE SMOOTH",
"235 606 OFFCURVE",
"155 626 OFFCURVE",
"84 626 CURVE"
);
},
{
closed = 1;
nodes = (
"178 389 LINE",
"166 385 OFFCURVE",
"154 381 OFFCURVE",
"138 381 CURVE SMOOTH",
"124 381 OFFCURVE",
"110 384 OFFCURVE",
"100 394 CURVE SMOOTH",
"94 400 OFFCURVE",
"89 410 OFFCURVE",
"89 424 CURVE SMOOTH",
"89 469 OFFCURVE",
"147 473 OFFCURVE",
"178 473 CURVE"
);
}
);
width = 289;
}
);
unicode = 00AA;
},
{
glyphname = ordmasculine;
layers = (
{
hints = (
{
place = "{45, 44}";
},
{
place = "{210, 44}";
},
{
place = "{222, 44}";
},
{
place = "{386, 44}";
},
{
place = "{49, 64}";
},
{
place = "{307, 64}";
},
{
horizontal = 1;
place = "{-9, 40}";
},
{
horizontal = 1;
place = "{222, 40}";
},
{
horizontal = 1;
place = "{401, 40}";
},
{
horizontal = 1;
place = "{631, 41}";
},
{
horizontal = 1;
place = "{397, 62}";
},
{
horizontal = 1;
place = "{-9, 21}";
}
);
layerId = UUID0;
paths = (
{
closed = 1;
nodes = (
"233 514 LINE SMOOTH",
"233 535 OFFCURVE",
"234 573 OFFCURVE",
"209 601 CURVE SMOOTH",
"188 624 OFFCURVE",
"160 626 OFFCURVE",
"140 626 CURVE SMOOTH",
"121 626 OFFCURVE",
"93 624 OFFCURVE",
"71 601 CURVE SMOOTH",
"46 573 OFFCURVE",
"48 535 OFFCURVE",
"48 514 CURVE SMOOTH",
"48 438 LINE SMOOTH",
"48 417 OFFCURVE",
"46 379 OFFCURVE",
"71 351 CURVE SMOOTH",
"93 328 OFFCURVE",
"121 326 OFFCURVE",
"140 326 CURVE SMOOTH",
"160 326 OFFCURVE",
"188 328 OFFCURVE",
"209 351 CURVE SMOOTH",
"234 379 OFFCURVE",
"233 417 OFFCURVE",
"233 438 CURVE SMOOTH"
);
},
{
closed = 1;
nodes = (
"102 519 LINE SMOOTH",
"102 531 OFFCURVE",
"102 547 OFFCURVE",
"110 557 CURVE SMOOTH",
"114 561 OFFCURVE",
"123 571 OFFCURVE",
"140 571 CURVE SMOOTH",
"157 571 OFFCURVE",
"166 561 OFFCURVE",
"169 557 CURVE SMOOTH",
"176 547 OFFCURVE",
"176 531 OFFCURVE",
"176 519 CURVE SMOOTH",
"176 433 LINE SMOOTH",
"176 421 OFFCURVE",
"176 405 OFFCURVE",
"169 395 CURVE SMOOTH",
"166 391 OFFCURVE",
"157 381 OFFCURVE",
"140 381 CURVE SMOOTH",
"123 381 OFFCURVE",
"114 391 OFFCURVE",
"110 395 CURVE SMOOTH",
"102 405 OFFCURVE",
"102 421 OFFCURVE",
"102 433 CURVE SMOOTH"
);
}
);
width = 280;
}
);
unicode = 00BA;
},
{
glyphname = zero;
layers = (
{
hints = (
{
place = "{63, 64}";
},
{
place = "{333, 64}";
},
{
place = "{63, 70}";
},
{
place = "{362, 70}";
},
{
horizontal = 1;
place = "{-9, 62}";
},
{
horizontal = 1;
place = "{558, 62}";
},
{
horizontal = 1;
place = "{-9, 66}";
},
{
horizontal = 1;
place = "{559, 66}";
}
);
layerId = UUID0;
paths = (
{
closed = 1;
nodes = (
"192 54 OFFCURVE",
"160 64 OFFCURVE",
"133 85 CURVE",
"133 405 LINE SMOOTH",
"133 496 OFFCURVE",
"154 562 OFFCURVE",
"233 562 CURVE SMOOTH",
"313 562 OFFCURVE",
"333 496 OFFCURVE",
"333 405 CURVE SMOOTH",
"333 85 LINE",
"308 64 OFFCURVE",
"274 54 OFFCURVE",
"233 54 CURVE SMOOTH"
);
},
{
closed = 1;
nodes = (
"104 626 OFFCURVE",
"63 532 OFFCURVE",
"63 405 CURVE SMOOTH",
"63 46 LINE",
"90 24 OFFCURVE",
"145 -10 OFFCURVE",
"233 -10 CURVE SMOOTH",
"333 -10 OFFCURVE",
"396 33 OFFCURVE",
"437 71 CURVE",
"403 117 LINE",
"403 405 LINE SMOOTH",
"403 532 OFFCURVE",
"362 626 OFFCURVE",
"233 626 CURVE SMOOTH"
);
}
);
width = 474;
}
);
unicode = 0030;
},
{
glyphname = one;
layers = (
{
hints = (
{
place = "{72, 64}";
},
{
place = "{221, 72}";
},
{
place = "{225, 64}";
},
{
horizontal = 1;
place = "{0, 21}";
},
{
horizontal = 1;
place = "{625, -20}";
target = down;
type = TopGhost;
},
{
horizontal = 1;
place = "{450, 85}";
},
{
horizontal = 1;
place = "{610, -75}";
},
{
horizontal = 1;
place = "{0, 21}";
}
);
layerId = UUID0;
paths = (
{
closed = 1;
nodes = (
"51 616 LINE",
"72 551 LINE",
"72 0 LINE",
"142 0 LINE",
"142 616 LINE"
);
}
);
width = 212;
}
);
unicode = 0031;
},
{
glyphname = two;
layers = (
{
hints = (
{
place = "{20, 70}";
},
{
place = "{697, -70}";
},
{
place = "{421, 70}";
},
{
horizontal = 1;
place = "{0, 62}";
},
{
horizontal = 1;
place = "{625, -20}";
target = down;
type = TopGhost;
},
{
horizontal = 1;
place = "{-7, 66}";
},
{
horizontal = 1;
place = "{561, 66}";
},
{
horizontal = 1;
place = "{-9, 67}";
},
{
horizontal = 1;
place = "{559, 66}";
},
{
horizontal = 1;
place = "{0, 21}";
},
{
horizontal = 1;
place = "{616, -20}";
target = down;
type = TopGhost;
}
);
layerId = UUID0;
paths = (
{
closed = 1;
nodes = (
"134 562 OFFCURVE",
"102 555 OFFCURVE",
"69 538 CURVE",
"44 597 LINE",
"81 617 OFFCURVE",
"116 626 OFFCURVE",
"164 626 CURVE SMOOTH",
"264 626 OFFCURVE",
"325 566 OFFCURVE",
"325 470 CURVE SMOOTH",
"325 421 OFFCURVE",
"303 378 OFFCURVE",
"279 334 CURVE SMOOTH",
"128 64 LINE",
"329 64 LINE",
"329 0 LINE",
"17 0 LINE",
"226 376 LINE SMOOTH",
"246 412 OFFCURVE",
"255 439 OFFCURVE",
"255 472 CURVE SMOOTH",
"255 524 OFFCURVE",
"222 562 OFFCURVE",
"160 562 CURVE SMOOTH"
);
}
);
width = 374;
}
);
unicode = 0032;
},
{
glyphname = three;
layers = (
{
hints = (
{
place = "{238, 66}";
},
{
place = "{-172, 70}";
},
{
horizontal = 1;
place = "{-34, 21}";
},
{
horizontal = 1;
place = "{625, -20}";
target = down;
type = TopGhost;
},
{
horizontal = 1;
place = "{0, 21}";
},
{
horizontal = 1;
place = "{616, -20}";
target = down;
type = TopGhost;
}
);
layerId = UUID0;
paths = (
{
closed = 1;
nodes = (
"205 552 LINE",
"70 323 LINE",
"166 323 LINE SMOOTH",
"231 323 OFFCURVE",
"253 290 OFFCURVE",
"253 249 CURVE SMOOTH",
"253 154 OFFCURVE",
"165 93 OFFCURVE",
"40 54 CURVE",
"65 -11 LINE",
"207 35 OFFCURVE",
"323 114 OFFCURVE",
"323 251 CURVE SMOOTH",
"323 338 OFFCURVE",
"271 387 OFFCURVE",
"185 387 CURVE",
"318 616 LINE",
"44 616 LINE",
"44 552 LINE"
);
}
);
width = 364;
}
);
unicode = 0033;
},
{
glyphname = four;
layers = (
{
hints = (
{
place = "{268, 64}";
},
{
place = "{507, 66}";
},
{
place = "{728, 64}";
},
{
horizontal = 1;
place = "{179, 62}";
},
{
horizontal = 1;
place = "{616, -20}";
target = down;
type = TopGhost;
},
{
horizontal = 1;
place = "{0, 21}";
},
{
horizontal = 1;
place = "{272, 62}";
},
{
horizontal = 1;
place = "{554, 62}";
},
{
horizontal = 1;
place = "{-11, 21}";
}
);
layerId = UUID0;
paths = (
{
closed = 1;
nodes = (
"198 387 LINE",
"132 387 OFFCURVE",
"100 423 OFFCURVE",
"100 489 CURVE SMOOTH",
"100 616 LINE",
"34 616 LINE",
"34 489 LINE SMOOTH",
"34 385 OFFCURVE",
"95 323 OFFCURVE",
"200 323 CURVE SMOOTH",
"268 323 LINE",
"268 0 LINE",
"338 0 LINE",
"338 323 LINE",
"407 323 LINE",
"388 387 LINE",
"338 387 LINE",
"338 616 LINE",
"268 616 LINE",
"268 387 LINE"
);
}
);
width = 431;
}
);
unicode = 0034;
},
{
glyphname = five;
layers = (
{
hints = (
{
place = "{91, 64}";
},
{
place = "{262, 66}";
},
{
place = "{652, -64}";
},
{
horizontal = 1;
place = "{554, 62}";
},
{
horizontal = 1;
place = "{-36, 21}";
},
{
horizontal = 1;
place = "{637, -20}";
target = down;
type = TopGhost;
},
{
horizontal = 1;
place = "{-9, 62}";
},
{
horizontal = 1;
place = "{397, 62}";
}
);
layerId = UUID0;
paths = (
{
closed = 1;
nodes = (
"61 616 LINE",
"61 323 LINE",
"158 323 LINE SMOOTH",
"229 323 OFFCURVE",
"262 306 OFFCURVE",
"262 245 CURVE SMOOTH",
"262 156 OFFCURVE",
"173 93 OFFCURVE",
"48 54 CURVE",
"74 -11 LINE",
"215 35 OFFCURVE",
"332 119 OFFCURVE",
"332 251 CURVE SMOOTH",
"332 348 OFFCURVE",
"268 387 OFFCURVE",
"171 387 CURVE SMOOTH",
"125 387 LINE",
"125 552 LINE",
"318 552 LINE",
"318 637 LINE",
"253 616 LINE"
);
}
);
width = 374;
}
);
unicode = 0035;
},
{
glyphname = six;
layers = (
{
hints = (
{
place = "{73, 64}";
},
{
place = "{292, 66}";
},
{
place = "{407, -64}";
},
{
place = "{137, -64}";
},
{
place = "{67, 70}";
},
{
place = "{264, 70}";
},
{
place = "{342, 72}";
},
{
place = "{762, -66}";
},
{
place = "{513, -64}";
},
{
horizontal = 1;
place = "{0, 62}";
},
{
horizontal = 1;
place = "{282, 62}";
},
{
horizontal = 1;
place = "{627, -20}";
target = down;
type = TopGhost;
},
{
horizontal = 1;
place = "{-9, 62}";
},
{
horizontal = 1;
place = "{558, 62}";
},
{
horizontal = 1;
place = "{-8, 66}";
},
{
horizontal = 1;
place = "{300, 66}";
},
{
horizontal = 1;
place = "{559, 66}";
},
{
horizontal = 1;
place = "{-9, 57}";
},
{
horizontal = 1;
place = "{237, 62}";
},
{
horizontal = 1;
place = "{463, -20}";
target = down;
type = TopGhost;
}
);
layerId = UUID0;
paths = (
{
closed = 1;
nodes = (
"305 626 LINE",
"171 583 OFFCURVE",
"66 526 OFFCURVE",
"66 388 CURVE SMOOTH",
"66 64 LINE",
"30 0 LINE",
"191 0 LINE SMOOTH",
"299 0 OFFCURVE",
"375 71 OFFCURVE",
"375 186 CURVE SMOOTH",
"375 342 OFFCURVE",
"245 377 OFFCURVE",
"137 387 CURVE",
"137 503 OFFCURVE",
"223 522 OFFCURVE",
"330 562 CURVE"
);
},
{
closed = 1;
nodes = (
"137 323 LINE",
"229 315 OFFCURVE",
"306 282 OFFCURVE",
"306 186 CURVE SMOOTH",
"306 98 OFFCURVE",
"248 64 OFFCURVE",
"177 64 CURVE SMOOTH",
"137 64 LINE"
);
}
);
width = 412;
}
);
unicode = 0036;
},
{
glyphname = seven;
layers = (
{
hints = (
{
place = "{59, 70}";
},
{
horizontal = 1;
place = "{554, 62}";
},
{
horizontal = 1;
place = "{0, 21}";
},
{
horizontal = 1;
place = "{0, 21}";
},
{
horizontal = 1;
place = "{616, -20}";
target = down;
type = TopGhost;
}
);
layerId = UUID0;
paths = (
{
closed = 1;
nodes = (
"29 616 LINE",
"29 552 LINE",
"233 552 LINE",
"54 11 LINE",
"118 -10 LINE",
"325 616 LINE"
);
}
);
width = 338;
}
);
unicode = 0037;
},
{
glyphname = eight;
layers = (
{
hints = (
{
place = "{50, 64}";
},
{
place = "{300, 64}";
},
{
horizontal = 1;
place = "{-9, 62}";
},
{
horizontal = 1;
place = "{625, -20}";
target = down;
type = TopGhost;
}
);
layerId = UUID0;
paths = (
{
closed = 1;
nodes = (
"202 393 OFFCURVE",
"177 412 OFFCURVE",
"164 427 CURVE SMOOTH",
"149 446 OFFCURVE",
"142 470 OFFCURVE",
"142 493 CURVE SMOOTH",
"142 536 OFFCURVE",
"178 562 OFFCURVE",
"216 562 CURVE SMOOTH",
"259 562 OFFCURVE",
"291 535 OFFCURVE",
"291 493 CURVE SMOOTH",
"291 470 OFFCURVE",
"285 446 OFFCURVE",
"268 427 CURVE SMOOTH",
"255 412 OFFCURVE",
"231 393 OFFCURVE",
"216 384 CURVE"
);
},
{
closed = 1;
nodes = (
"298 -10 OFFCURVE",
"364 16 OFFCURVE",
"423 71 CURVE",
"390 117 LINE",
"390 183 LINE SMOOTH",
"390 253 OFFCURVE",
"349 310 OFFCURVE",
"285 357 CURVE",
"334 393 OFFCURVE",
"361 435 OFFCURVE",
"361 491 CURVE SMOOTH",
"361 576 OFFCURVE",
"293 626 OFFCURVE",
"216 626 CURVE SMOOTH",
"133 626 OFFCURVE",
"72 570 OFFCURVE",
"72 491 CURVE SMOOTH",
"72 435 OFFCURVE",
"100 393 OFFCURVE",
"149 357 CURVE",
"84 310 OFFCURVE",
"50 253 OFFCURVE",
"50 183 CURVE SMOOTH",
"50 46 LINE",
"93 8 OFFCURVE",
"161 -10 OFFCURVE",
"219 -10 CURVE"
);
},
{
closed = 1;
nodes = (
"287 286 OFFCURVE",
"320 234 OFFCURVE",
"320 157 CURVE SMOOTH",
"320 85 LINE",
"293 62 OFFCURVE",
"255 54 OFFCURVE",
"219 54 CURVE SMOOTH",
"186 54 OFFCURVE",
"148 62 OFFCURVE",
"120 85 CURVE",
"120 157 LINE SMOOTH",
"120 234 OFFCURVE",
"154 286 OFFCURVE",
"219 325 CURVE"
);
}
);
width = 448;
}
);
unicode = 0038;
},
{
glyphname = nine;
layers = (
{
hints = (
{
place = "{46, 66}";
},
{
place = "{268, 64}";
},
{
horizontal = 1;
place = "{272, 62}";
},
{
horizontal = 1;
place = "{554, 62}";
},
{
horizontal = 1;
place = "{-11, 21}";
}
);
layerId = UUID0;
paths = (
{
closed = 1;
nodes = (
"111 -10 LINE",
"230 28 OFFCURVE",
"347 124 OFFCURVE",
"350 323 CURVE",
"398 323 LINE",
"350 387 LINE",
"350 616 LINE",
"214 616 LINE SMOOTH",
"110 616 OFFCURVE",
"44 555 OFFCURVE",
"44 450 CURVE SMOOTH",
"44 323 LINE",
"279 323 LINE",
"274 161 OFFCURVE",
"192 85 OFFCURVE",
"85 55 CURVE"
);
},
{
closed = 1;
nodes = (
"279 387 LINE",
"114 387 LINE",
"114 452 LINE SMOOTH",
"114 518 OFFCURVE",
"148 552 OFFCURVE",
"214 552 CURVE SMOOTH",
"279 552 LINE"
);
}
);
width = 418;
}
);
unicode = 0039;
},
{
glyphname = onesuperior;
layers = (
{
hints = (
{
place = "{-6, 44}";
},
{
place = "{159, 44}";
},
{
place = "{171, 44}";
},
{
place = "{335, 44}";
},
{
place = "{-2, 64}";
},
{
place = "{256, 64}";
},
{
place = "{111, 64}";
},
{
place = "{260, 72}";
},
{
place = "{264, 64}";
},
{
place = "{93, 29}";
},
{
place = "{201, 30}";
},
{
place = "{301, 29}";
},
{
horizontal = 1;
place = "{-9, 40}";
},
{
horizontal = 1;
place = "{222, 40}";
},
{
horizontal = 1;
place = "{401, 40}";
},
{
horizontal = 1;
place = "{631, 41}";
},
{
horizontal = 1;
place = "{397, 62}";
},
{
horizontal = 1;
place = "{-9, 21}";
},
{
horizontal = 1;
place = "{0, 21}";
},
{
horizontal = 1;
place = "{625, -20}";
target = down;
type = TopGhost;
},
{
horizontal = 1;
place = "{450, 85}";
},
{
horizontal = 1;
place = "{610, -75}";
},
{
horizontal = 1;
place = "{0, 21}";
},
{
horizontal = 1;
place = "{417, 29}";
},
{
horizontal = 1;
place = "{616, -9}";
},
{
horizontal = 1;
place = "{336, 10}";
},
{
horizontal = 1;
place = "{460, 28}";
},
{
horizontal = 1;
place = "{588, 28}";
},
{
horizontal = 1;
place = "{331, 10}";
}
);
layerId = UUID0;
paths = (
{
closed = 1;
nodes = (
"39 616 LINE",
"60 551 LINE",
"60 336 LINE",
"117 336 LINE",
"117 616 LINE"
);
}
);
width = 174;
}
);
unicode = 00B9;
},
{
glyphname = twosuperior;
layers = (
{
hints = (
{
place = "{16, 44}";
},
{
place = "{181, 44}";
},
{
place = "{192, 44}";
},
{
place = "{356, 44}";
},
{
place = "{20, 64}";
},
{
place = "{277, 64}";
},
{
place = "{132, 64}";
},
{
place = "{282, 72}";
},
{
place = "{286, 64}";
},
{
place = "{114, 29}";
},
{
place = "{223, 30}";
},
{
place = "{322, 29}";
},
{
place = "{292, 70}";
},
{
place = "{970, -70}";
},
{
place = "{693, 70}";
},
{
horizontal = 1;
place = "{-9, 40}";
},
{
horizontal = 1;
place = "{222, 40}";
},
{
horizontal = 1;
place = "{401, 40}";
},
{
horizontal = 1;
place = "{631, 41}";
},
{
horizontal = 1;
place = "{397, 62}";
},
{
horizontal = 1;
place = "{-9, 21}";
},
{
horizontal = 1;
place = "{0, 21}";
},
{
horizontal = 1;
place = "{625, -20}";
target = down;
type = TopGhost;
},
{
horizontal = 1;
place = "{450, 85}";
},
{
horizontal = 1;
place = "{610, -75}";
},
{
horizontal = 1;
place = "{0, 21}";
},
{
horizontal = 1;
place = "{417, 29}";
},
{
horizontal = 1;
place = "{616, -9}";
},
{
horizontal = 1;
place = "{336, 10}";
},
{
horizontal = 1;
place = "{460, 28}";
},
{
horizontal = 1;
place = "{588, 28}";
},
{
horizontal = 1;
place = "{331, 10}";
},
{
horizontal = 1;
place = "{0, 62}";
},
{
horizontal = 1;
place = "{625, -20}";
target = down;
type = TopGhost;
},
{
horizontal = 1;
place = "{-7, 66}";
},
{
horizontal = 1;
place = "{561, 66}";
},
{
horizontal = 1;
place = "{-9, 67}";
},
{
horizontal = 1;
place = "{559, 66}";
},
{
horizontal = 1;
place = "{0, 21}";
},
{
horizontal = 1;
place = "{616, -20}";
target = down;
type = TopGhost;
}
);
layerId = UUID0;
paths = (
{
closed = 1;
nodes = (
"88 571 OFFCURVE",
"77 568 OFFCURVE",
"61 561 CURVE",
"42 608 LINE",
"63 620 OFFCURVE",
"88 626 OFFCURVE",
"111 626 CURVE SMOOTH",
"166 626 OFFCURVE",
"195 596 OFFCURVE",
"195 547 CURVE SMOOTH",
"195 520 OFFCURVE",
"185 497 OFFCURVE",
"171 473 CURVE SMOOTH",
"127 391 LINE",
"201 391 LINE",
"201 336 LINE",
"37 336 LINE",
"125 507 LINE SMOOTH",
"131 519 OFFCURVE",
"137 529 OFFCURVE",
"137 541 CURVE SMOOTH",
"137 559 OFFCURVE",
"125 571 OFFCURVE",
"102 571 CURVE SMOOTH"
);
}
);
width = 248;
}
);
unicode = 00B2;
},
{
glyphname = threesuperior;
layers = (
{
hints = (
{
place = "{19, 44}";
},
{
place = "{184, 44}";
},
{
place = "{195, 44}";
},
{
place = "{359, 44}";
},
{
place = "{22, 64}";
},
{
place = "{280, 64}";
},
{
place = "{135, 64}";
},
{
place = "{285, 72}";
},
{
place = "{289, 64}";
},
{
place = "{117, 29}";
},
{
place = "{226, 30}";
},
{
place = "{325, 29}";
},
{
place = "{146, 31}";
},
{
place = "{-43, 32}";
},
{
horizontal = 1;
place = "{-9, 40}";
},
{
horizontal = 1;
place = "{222, 40}";
},
{
horizontal = 1;
place = "{401, 40}";
},
{
horizontal = 1;
place = "{631, 41}";
},
{
horizontal = 1;
place = "{397, 62}";
},
{
horizontal = 1;
place = "{-9, 21}";
},
{
horizontal = 1;
place = "{0, 21}";
},
{
horizontal = 1;
place = "{625, -20}";
target = down;
type = TopGhost;
},
{
horizontal = 1;
place = "{450, 85}";
},
{
horizontal = 1;
place = "{610, -75}";
},
{
horizontal = 1;
place = "{0, 21}";
},
{
horizontal = 1;
place = "{417, 29}";
},
{
horizontal = 1;
place = "{616, -9}";
},
{
horizontal = 1;
place = "{336, 10}";
},
{
horizontal = 1;
place = "{460, 28}";
},
{
horizontal = 1;
place = "{588, 28}";
},
{
horizontal = 1;
place = "{331, 10}";
},
{
horizontal = 1;
place = "{315, 10}";
},
{
horizontal = 1;
place = "{620, -9}";
},
{
horizontal = 1;
place = "{331, 10}";
},
{
horizontal = 1;
place = "{616, -9}";
}
);
layerId = UUID0;
paths = (
{
closed = 1;
nodes = (
"106 561 LINE",
"59 469 LINE",
"104 469 LINE SMOOTH",
"130 469 OFFCURVE",
"137 457 OFFCURVE",
"137 443 CURVE SMOOTH",
"137 411 OFFCURVE",
"96 389 OFFCURVE",
"46 376 CURVE",
"66 326 LINE",
"131 347 OFFCURVE",
"194 378 OFFCURVE",
"194 447 CURVE SMOOTH",
"194 490 OFFCURVE",
"171 510 OFFCURVE",
"141 519 CURVE",
"192 616 LINE",
"42 616 LINE",
"42 561 LINE"
);
}
);
width = 233;
}
);
unicode = 00B3;
},
{
glyphname = foursuperior;
layers = (
{
hints = (
{
place = "{30, 44}";
},
{
place = "{195, 44}";
},
{
place = "{207, 44}";
},
{
place = "{371, 44}";
},
{
place = "{34, 64}";
},
{
place = "{292, 64}";
},
{
place = "{147, 64}";
},
{
place = "{296, 72}";
},
{
place = "{300, 64}";
},
{
place = "{129, 29}";
},
{
place = "{237, 30}";
},
{
place = "{337, 29}";
},
{
place = "{307, 70}";
},
{
place = "{984, -70}";
},
{
place = "{708, 70}";
},
{
horizontal = 1;
place = "{-9, 40}";
},
{
horizontal = 1;
place = "{222, 40}";
},
{
horizontal = 1;
place = "{401, 40}";
},
{
horizontal = 1;
place = "{631, 41}";
},
{
horizontal = 1;
place = "{397, 62}";
},
{
horizontal = 1;
place = "{-9, 21}";
},
{
horizontal = 1;
place = "{0, 21}";
},
{
horizontal = 1;
place = "{625, -20}";
target = down;
type = TopGhost;
},
{
horizontal = 1;
place = "{450, 85}";
},
{
horizontal = 1;
place = "{610, -75}";
},
{
horizontal = 1;
place = "{0, 21}";
},
{
horizontal = 1;
place = "{417, 29}";
},
{
horizontal = 1;
place = "{616, -9}";
},
{
horizontal = 1;
place = "{336, 10}";
},
{
horizontal = 1;
place = "{460, 28}";
},
{
horizontal = 1;
place = "{588, 28}";
},
{
horizontal = 1;
place = "{331, 10}";
},
{
horizontal = 1;
place = "{0, 62}";
},
{
horizontal = 1;
place = "{625, -20}";
target = down;
type = TopGhost;
},
{
horizontal = 1;
place = "{-7, 66}";
},
{
horizontal = 1;
place = "{561, 66}";
},
{
horizontal = 1;
place = "{-9, 67}";
},
{
horizontal = 1;
place = "{559, 66}";
},
{
horizontal = 1;
place = "{0, 21}";
},
{
horizontal = 1;
place = "{616, -20}";
target = down;
type = TopGhost;
}
);
layerId = UUID0;
paths = (
{
closed = 1;
nodes = (
"126 524 LINE SMOOTH",
"98 524 OFFCURVE",
"83 540 OFFCURVE",
"83 569 CURVE SMOOTH",
"83 616 LINE",
"30 616 LINE",
"30 560 LINE SMOOTH",
"30 503 OFFCURVE",
"62 469 OFFCURVE",
"120 469 CURVE SMOOTH",
"158 469 LINE",
"158 336 LINE",
"215 336 LINE",
"215 469 LINE",
"274 469 LINE",
"259 524 LINE",
"215 524 LINE",
"215 616 LINE",
"158 616 LINE",
"158 524 LINE"
);
}
);
width = 299;
}
);
unicode = 2074;
},
{
glyphname = fraction;
layers = (
{
hints = (
{
place = "{-96, 44}";
},
{
place = "{69, 44}";
},
{
place = "{82, 44}";
},
{
place = "{245, 44}";
},
{
place = "{-92, 64}";
},
{
place = "{167, 64}";
},
{
place = "{21, 64}";
},
{
place = "{171, 71}";
},
{
place = "{174, 64}";
},
{
place = "{3, 29}";
},
{
place = "{111, 30}";
},
{
place = "{211, 29}";
},
{
horizontal = 1;
place = "{-9, 40}";
},
{
horizontal = 1;
place = "{222, 40}";
},
{
horizontal = 1;
place = "{401, 40}";
},
{
horizontal = 1;
place = "{631, 41}";
},
{
horizontal = 1;
place = "{397, 62}";
},
{
horizontal = 1;
place = "{-9, 21}";
},
{
horizontal = 1;
place = "{0, 21}";
},
{
horizontal = 1;
place = "{625, -20}";
target = down;
type = TopGhost;
},
{
horizontal = 1;
place = "{450, 85}";
},
{
horizontal = 1;
place = "{610, -75}";
},
{
horizontal = 1;
place = "{0, 21}";
},
{
horizontal = 1;
place = "{417, 29}";
},
{
horizontal = 1;
place = "{616, -9}";
},
{
horizontal = 1;
place = "{336, 10}";
},
{
horizontal = 1;
place = "{460, 28}";
},
{
horizontal = 1;
place = "{588, 28}";
},
{
horizontal = 1;
place = "{331, 10}";
}
);
layerId = UUID0;
paths = (
{
closed = 1;
nodes = (
"9 11 LINE",
"69 -10 LINE",
"291 605 LINE",
"230 626 LINE"
);
}
);
width = 300;
}
);
unicode = 2044;
},
{
glyphname = onehalf;
layers = (
{
hints = (
{
place = "{-13, 44}";
},
{
place = "{152, 44}";
},
{
place = "{164, 44}";
},
{
place = "{328, 44}";
},
{
place = "{-9, 64}";
},
{
place = "{249, 64}";
},
{
place = "{104, 64}";
},
{
place = "{253, 72}";
},
{
place = "{257, 64}";
},
{
place = "{86, 29}";
},
{
place = "{194, 30}";
},
{
place = "{294, 29}";
},
{
place = "{264, 70}";
},
{
place = "{941, -70}";
},
{
place = "{665, 70}";
},
{
horizontal = 1;
place = "{-9, 40}";
},
{
horizontal = 1;
place = "{222, 40}";
},
{
horizontal = 1;
place = "{401, 40}";
},
{
horizontal = 1;
place = "{631, 41}";
},
{
horizontal = 1;
place = "{397, 62}";
},
{
horizontal = 1;
place = "{-9, 21}";
},
{
horizontal = 1;
place = "{0, 21}";
},
{
horizontal = 1;
place = "{625, -20}";
target = down;
type = TopGhost;
},
{
horizontal = 1;
place = "{450, 85}";
},
{
horizontal = 1;
place = "{610, -75}";
},
{
horizontal = 1;
place = "{0, 21}";
},
{
horizontal = 1;
place = "{417, 29}";
},
{
horizontal = 1;
place = "{616, -9}";
},
{
horizontal = 1;
place = "{336, 10}";
},
{
horizontal = 1;
place = "{460, 28}";
},
{
horizontal = 1;
place = "{588, 28}";
},
{
horizontal = 1;
place = "{331, 10}";
},
{
horizontal = 1;
place = "{0, 62}";
},
{
horizontal = 1;
place = "{625, -20}";
target = down;
type = TopGhost;
},
{
horizontal = 1;
place = "{-7, 66}";
},
{
horizontal = 1;
place = "{561, 66}";
},
{
horizontal = 1;
place = "{-9, 67}";
},
{
horizontal = 1;
place = "{559, 66}";
},
{
horizontal = 1;
place = "{0, 21}";
},
{
horizontal = 1;
place = "{616, -20}";
target = down;
type = TopGhost;
}
);
layerId = UUID0;
paths = (
{
closed = 1;
nodes = (
"92 11 LINE",
"152 -10 LINE",
"373 605 LINE",
"313 626 LINE"
);
},
{
closed = 1;
nodes = (
"32 616 LINE",
"53 551 LINE",
"53 336 LINE",
"110 336 LINE",
"110 616 LINE"
);
},
{
closed = 1;
nodes = (
"369 235 OFFCURVE",
"357 232 OFFCURVE",
"341 225 CURVE",
"323 272 LINE",
"344 284 OFFCURVE",
"369 290 OFFCURVE",
"392 290 CURVE SMOOTH",
"446 290 OFFCURVE",
"476 260 OFFCURVE",
"476 211 CURVE SMOOTH",
"476 184 OFFCURVE",
"465 161 OFFCURVE",
"452 137 CURVE SMOOTH",
"408 55 LINE",
"481 55 LINE",
"481 0 LINE",
"317 0 LINE",
"406 171 LINE SMOOTH",
"412 183 OFFCURVE",
"417 193 OFFCURVE",
"417 205 CURVE SMOOTH",
"417 223 OFFCURVE",
"405 235 OFFCURVE",
"382 235 CURVE SMOOTH"
);
}
);
width = 516;
}
);
unicode = 00BD;
},
{
glyphname = onequarter;
layers = (
{
hints = (
{
place = "{-8, 44}";
},
{
place = "{157, 44}";
},
{
place = "{169, 44}";
},
{
place = "{333, 44}";
},
{
place = "{-4, 64}";
},
{
place = "{254, 64}";
},
{
place = "{109, 64}";
},
{
place = "{258, 72}";
},
{
place = "{262, 64}";
},
{
place = "{91, 29}";
},
{
place = "{199, 30}";
},
{
place = "{299, 29}";
},
{
horizontal = 1;
place = "{-9, 40}";
},
{
horizontal = 1;
place = "{222, 40}";
},
{
horizontal = 1;
place = "{401, 40}";
},
{
horizontal = 1;
place = "{631, 41}";
},
{
horizontal = 1;
place = "{397, 62}";
},
{
horizontal = 1;
place = "{-9, 21}";
},
{
horizontal = 1;
place = "{0, 21}";
},
{
horizontal = 1;
place = "{625, -20}";
target = down;
type = TopGhost;
},
{
horizontal = 1;
place = "{450, 85}";
},
{
horizontal = 1;
place = "{610, -75}";
},
{
horizontal = 1;
place = "{0, 21}";
},
{
horizontal = 1;
place = "{417, 29}";
},
{
horizontal = 1;
place = "{616, -9}";
},
{
horizontal = 1;
place = "{336, 10}";
},
{
horizontal = 1;
place = "{460, 28}";
},
{
horizontal = 1;
place = "{588, 28}";
},
{
horizontal = 1;
place = "{331, 10}";
}
);
layerId = UUID0;
paths = (
{
closed = 1;
nodes = (
"97 11 LINE",
"157 -10 LINE",
"378 605 LINE",
"318 626 LINE"
);
},
{
closed = 1;
nodes = (
"37 616 LINE",
"58 551 LINE",
"58 336 LINE",
"115 336 LINE",
"115 616 LINE"
);
},
{
closed = 1;
nodes = (
"443 188 LINE",
"414 188 OFFCURVE",
"400 204 OFFCURVE",
"400 233 CURVE SMOOTH",
"400 280 LINE",
"346 280 LINE",
"346 224 LINE SMOOTH",
"346 167 OFFCURVE",
"379 133 OFFCURVE",
"437 133 CURVE SMOOTH",
"474 133 LINE",
"474 0 LINE",
"531 0 LINE",
"531 133 LINE",
"591 133 LINE",
"575 188 LINE",
"531 188 LINE",
"531 280 LINE",
"474 280 LINE",
"474 188 LINE"
);
}
);
width = 616;
}
);
unicode = 00BC;
},
{
glyphname = threequarters;
layers = (
{
hints = (
{
place = "{17, 44}";
},
{
place = "{182, 44}";
},
{
place = "{193, 44}";
},
{
place = "{357, 44}";
},
{
place = "{21, 64}";
},
{
place = "{278, 64}";
},
{
place = "{133, 64}";
},
{
place = "{283, 72}";
},
{
place = "{287, 64}";
},
{
place = "{115, 29}";
},
{
place = "{224, 30}";
},
{
place = "{323, 29}";
},
{
place = "{144, 31}";
},
{
place = "{-45, 32}";
},
{
horizontal = 1;
place = "{-9, 40}";
},
{
horizontal = 1;
place = "{222, 40}";
},
{
horizontal = 1;
place = "{401, 40}";
},
{
horizontal = 1;
place = "{631, 41}";
},
{
horizontal = 1;
place = "{397, 62}";
},
{
horizontal = 1;
place = "{-9, 21}";
},
{
horizontal = 1;
place = "{0, 21}";
},
{
horizontal = 1;
place = "{625, -20}";
target = down;
type = TopGhost;
},
{
horizontal = 1;
place = "{450, 85}";
},
{
horizontal = 1;
place = "{610, -75}";
},
{
horizontal = 1;
place = "{0, 21}";
},
{
horizontal = 1;
place = "{417, 29}";
},
{
horizontal = 1;
place = "{616, -9}";
},
{
horizontal = 1;
place = "{336, 10}";
},
{
horizontal = 1;
place = "{460, 28}";
},
{
horizontal = 1;
place = "{588, 28}";
},
{
horizontal = 1;
place = "{331, 10}";
},
{
horizontal = 1;
place = "{315, 10}";
},
{
horizontal = 1;
place = "{620, -9}";
},
{
horizontal = 1;
place = "{331, 10}";
},
{
horizontal = 1;
place = "{616, -9}";
}
);
layerId = UUID0;
paths = (
{
closed = 1;
nodes = (
"122 11 LINE",
"182 -10 LINE",
"402 605 LINE",
"342 626 LINE"
);
},
{
closed = 1;
nodes = (
"467 188 LINE",
"438 188 OFFCURVE",
"424 204 OFFCURVE",
"424 233 CURVE SMOOTH",
"424 280 LINE",
"371 280 LINE",
"371 224 LINE SMOOTH",
"371 167 OFFCURVE",
"403 133 OFFCURVE",
"461 133 CURVE SMOOTH",
"499 133 LINE",
"499 0 LINE",
"556 0 LINE",
"556 133 LINE",
"615 133 LINE",
"600 188 LINE",
"556 188 LINE",
"556 280 LINE",
"499 280 LINE",
"499 188 LINE"
);
},
{
closed = 1;
nodes = (
"104 561 LINE",
"57 469 LINE",
"103 469 LINE SMOOTH",
"128 469 OFFCURVE",
"135 457 OFFCURVE",
"135 443 CURVE SMOOTH",
"135 411 OFFCURVE",
"94 389 OFFCURVE",
"44 376 CURVE",
"64 326 LINE",
"129 347 OFFCURVE",
"192 378 OFFCURVE",
"192 447 CURVE SMOOTH",
"192 490 OFFCURVE",
"169 510 OFFCURVE",
"139 519 CURVE",
"190 616 LINE",
"41 616 LINE",
"41 561 LINE"
);
}
);
width = 641;
}
);
unicode = 00BE;
},
{
glyphname = asterisk;
layers = (
{
hints = (
{
place = "{204, 57}";
},
{
horizontal = 1;
place = "{308, 21}";
},
{
horizontal = 1;
place = "{687, -20}";
target = down;
type = TopGhost;
}
);
layerId = UUID0;
paths = (
{
closed = 1;
nodes = (
"160 422 LINE",
"76 316 LINE",
"133 273 LINE",
"208 385 LINE",
"285 273 LINE",
"342 316 LINE",
"255 423 LINE",
"386 459 LINE",
"365 528 LINE",
"239 481 LINE",
"244 616 LINE",
"173 616 LINE",
"177 480 LINE",
"51 528 LINE",
"30 459 LINE"
);
}
);
width = 417;
}
);
unicode = 002A;
},
{
glyphname = backslash;
layers = (
{
hints = (
{
place = "{409, -44}";
},
{
place = "{244, -44}";
},
{
place = "{231, -44}";
},
{
place = "{67, -44}";
},
{
place = "{405, -64}";
},
{
place = "{146, -64}";
},
{
horizontal = 1;
place = "{-9, 40}";
},
{
horizontal = 1;
place = "{222, 40}";
},
{
horizontal = 1;
place = "{401, 40}";
},
{
horizontal = 1;
place = "{631, 41}";
},
{
horizontal = 1;
place = "{397, 62}";
},
{
horizontal = 1;
place = "{-9, 21}";
}
);
layerId = UUID0;
paths = (
{
closed = 1;
nodes = (
"83 626 LINE",
"22 605 LINE",
"315 -211 LINE",
"375 -190 LINE"
);
}
);
width = 397;
}
);
unicode = 005C;
},
{
glyphname = periodcentered;
layers = (
{
hints = (
{
place = "{56, 84}";
},
{
horizontal = 1;
place = "{0, 84}";
}
);
layerId = UUID0;
paths = (
{
closed = 1;
nodes = (
"56 346 LINE",
"56 262 LINE",
"140 262 LINE",
"140 346 LINE"
);
}
);
width = 196;
}
);
unicode = 00B7;
},
{
glyphname = bullet;
layers = (
{
hints = (
{
place = "{14, 84}";
},
{
horizontal = 1;
place = "{0, 84}";
}
);
layerId = UUID0;
paths = (
{
closed = 1;
nodes = (
"55 460 LINE",
"55 260 LINE",
"255 260 LINE",
"255 460 LINE"
);
}
);
width = 311;
}
);
unicode = 2022;
},
{
glyphname = colon;
layers = (
{
hints = (
{
place = "{58, 84}";
},
{
horizontal = 1;
place = "{0, 84}";
},
{
horizontal = 1;
place = "{288, 84}";
}
);
layerId = UUID0;
paths = (
{
closed = 1;
nodes = (
"58 84 LINE",
"58 0 LINE",
"142 0 LINE",
"142 84 LINE"
);
},
{
closed = 1;
nodes = (
"58 450 LINE",
"58 366 LINE",
"142 366 LINE",
"142 450 LINE"
);
}
);
width = 200;
}
);
leftKerningGroup = colon;
unicode = 003A;
},
{
glyphname = comma;
layers = (
{
hints = (
{
place = "{72, 72}";
},
{
place = "{77, 64}";
},
{
horizontal = 1;
place = "{84, -20}";
target = down;
type = TopGhost;
},
{
horizontal = 1;
place = "{-102, 21}";
},
{
horizontal = 1;
place = "{62, 85}";
},
{
horizontal = 1;
place = "{222, -75}";
},
{
horizontal = 1;
place = "{-388, 21}";
}
);
layerId = UUID0;
paths = (
{
closed = 1;
nodes = (
"36 84 LINE",
"77 0 LINE",
"79 -17 OFFCURVE",
"72 -31 OFFCURVE",
"64 -39 CURVE SMOOTH",
"57 -48 OFFCURVE",
"41 -57 OFFCURVE",
"33 -60 CURVE",
"56 -102 LINE",
"72 -95 OFFCURVE",
"92 -82 OFFCURVE",
"104 -69 CURVE SMOOTH",
"118 -52 OFFCURVE",
"126 -26 OFFCURVE",
"126 0 CURVE SMOOTH",
"126 84 LINE"
);
}
);
width = 173;
}
);
leftKerningGroup = period;
rightKerningGroup = period;
unicode = 002C;
},
{
glyphname = exclam;
layers = (
{
hints = (
{
place = "{70, 70}";
},
{
horizontal = 1;
place = "{0, 75}";
},
{
horizontal = 1;
place = "{616, -20}";
target = down;
type = TopGhost;
}
);
layerId = UUID0;
paths = (
{
closed = 1;
nodes = (
"50 616 LINE",
"70 552 LINE",
"70 163 LINE",
"141 163 LINE",
"141 616 LINE"
);
},
{
closed = 1;
nodes = (
"63 84 LINE",
"63 0 LINE",
"147 0 LINE",
"147 84 LINE"
);
}
);
width = 208;
}
);
unicode = 0021;
},
{
glyphname = exclamdown;
layers = (
{
hints = (
{
place = "{75, 70}";
},
{
horizontal = 1;
place = "{0, 75}";
},
{
horizontal = 1;
place = "{616, -20}";
target = down;
type = TopGhost;
}
);
layerId = UUID0;
paths = (
{
closed = 1;
nodes = (
"152 -166 LINE",
"132 -102 LINE",
"132 287 LINE",
"63 287 LINE",
"63 -166 LINE"
);
},
{
closed = 1;
nodes = (
"139 366 LINE",
"139 450 LINE",
"55 450 LINE",
"55 366 LINE"
);
}
);
width = 197;
}
);
unicode = 00A1;
},
{
glyphname = numbersign;
layers = (
{
hints = (
{
horizontal = 1;
place = "{234, 53}";
},
{
horizontal = 1;
place = "{394, 53}";
},
{
horizontal = 1;
place = "{-19, 21}";
},
{
horizontal = 1;
place = "{689, -20}";
target = down;
type = TopGhost;
}
);
layerId = UUID0;
paths = (
{
closed = 1;
nodes = (
"124 0 LINE",
"168 211 LINE",
"248 211 LINE",
"204 0 LINE",
"252 0 LINE",
"296 211 LINE",
"385 211 LINE",
"396 264 LINE",
"306 264 LINE",
"328 371 LINE",
"418 371 LINE",
"429 424 LINE",
"339 424 LINE",
"378 616 LINE",
"330 616 LINE",
"291 424 LINE",
"211 424 LINE",
"250 616 LINE",
"203 616 LINE",
"164 424 LINE",
"74 424 LINE",
"63 371 LINE",
"153 371 LINE",
"131 264 LINE",
"41 264 LINE",
"30 211 LINE",
"121 211 LINE",
"77 0 LINE"
);
},
{
closed = 1;
nodes = (
"179 264 LINE",
"201 371 LINE",
"280 371 LINE",
"259 264 LINE"
);
}
);
width = 458;
}
);
unicode = 0023;
},
{
glyphname = period;
layers = (
{
hints = (
{
place = "{46, 84}";
},
{
horizontal = 1;
place = "{0, 84}";
}
);
layerId = UUID0;
paths = (
{
closed = 1;
nodes = (
"46 84 LINE",
"46 0 LINE",
"130 0 LINE",
"130 84 LINE"
);
}
);
width = 176;
}
);
leftKerningGroup = period;
rightKerningGroup = period;
unicode = 002E;
},
{
glyphname = question;
layers = (
{
hints = (
{
place = "{192, -70}";
},
{
place = "{189, -64}";
},
{
place = "{465, 70}";
},
{
place = "{766, 70}";
},
{
place = "{-469, 64}";
},
{
place = "{-199, 64}";
},
{
place = "{-470, 70}";
},
{
place = "{-169, 70}";
},
{
place = "{967, 70}";
},
{
place = "{818, -70}";
},
{
place = "{115, 84}";
},
{
horizontal = 1;
place = "{0, 75}";
},
{
horizontal = 1;
place = "{563, 62}";
},
{
horizontal = 1;
place = "{-9, 66}";
},
{
horizontal = 1;
place = "{559, 66}";
},
{
horizontal = 1;
place = "{-9, 62}";
},
{
horizontal = 1;
place = "{558, 62}";
},
{
horizontal = 1;
place = "{-9, 66}";
},
{
horizontal = 1;
place = "{559, 66}";
},
{
horizontal = 1;
place = "{-7, 66}";
},
{
horizontal = 1;
place = "{561, 66}";
},
{
horizontal = 1;
place = "{-1, 67}";
},
{
horizontal = 1;
place = "{567, 66}";
},
{
horizontal = 1;
place = "{0, 84}";
}
);
layerId = UUID0;
paths = (
{
closed = 1;
nodes = (
"257 626 OFFCURVE",
"322 562 OFFCURVE",
"322 472 CURVE SMOOTH",
"322 405 OFFCURVE",
"291 364 OFFCURVE",
"253 328 CURVE SMOOTH",
"191 267 LINE",
"191 163 LINE",
"122 163 LINE",
"122 295 LINE",
"202 372 LINE SMOOTH",
"228 397 OFFCURVE",
"252 428 OFFCURVE",
"252 472 CURVE SMOOTH",
"252 523 OFFCURVE",
"211 562 OFFCURVE",
"151 562 CURVE SMOOTH",
"116 562 OFFCURVE",
"87 555 OFFCURVE",
"51 538 CURVE",
"25 597 LINE",
"64 617 OFFCURVE",
"102 626 OFFCURVE",
"152 626 CURVE SMOOTH"
);
},
{
closed = 1;
nodes = (
"115 84 LINE",
"115 0 LINE",
"199 0 LINE",
"199 84 LINE"
);
}
);
width = 358;
}
);
unicode = 003F;
},
{
glyphname = questiondown;
layers = (
{
hints = (
{
place = "{165, 70}";
},
{
place = "{168, 64}";
},
{
place = "{-108, -70}";
},
{
place = "{-408, -70}";
},
{
place = "{826, -64}";
},
{
place = "{556, -64}";
},
{
place = "{827, -70}";
},
{
place = "{527, -70}";
},
{
place = "{-610, -70}";
},
{
place = "{-461, 70}";
},
{
place = "{242, -84}";
},
{
horizontal = 1;
place = "{626, -75}";
},
{
horizontal = 1;
place = "{63, -62}";
},
{
horizontal = 1;
place = "{635, -66}";
},
{
horizontal = 1;
place = "{67, -66}";
},
{
horizontal = 1;
place = "{635, -62}";
},
{
horizontal = 1;
place = "{68, -62}";
},
{
horizontal = 1;
place = "{635, -66}";
},
{
horizontal = 1;
place = "{67, -66}";
},
{
horizontal = 1;
place = "{633, -66}";
},
{
horizontal = 1;
place = "{65, -66}";
},
{
horizontal = 1;
place = "{627, -67}";
},
{
horizontal = 1;
place = "{59, -66}";
},
{
horizontal = 1;
place = "{626, -84}";
}
);
layerId = UUID0;
paths = (
{
closed = 1;
nodes = (
"100 -176 OFFCURVE",
"35 -112 OFFCURVE",
"35 -22 CURVE SMOOTH",
"35 45 OFFCURVE",
"67 86 OFFCURVE",
"104 122 CURVE SMOOTH",
"166 183 LINE",
"166 287 LINE",
"236 287 LINE",
"236 155 LINE",
"156 78 LINE SMOOTH",
"130 53 OFFCURVE",
"105 22 OFFCURVE",
"105 -22 CURVE SMOOTH",
"105 -73 OFFCURVE",
"146 -112 OFFCURVE",
"206 -112 CURVE SMOOTH",
"241 -112 OFFCURVE",
"270 -105 OFFCURVE",
"306 -88 CURVE",
"332 -147 LINE",
"293 -167 OFFCURVE",
"256 -176 OFFCURVE",
"205 -176 CURVE SMOOTH"
);
},
{
closed = 1;
nodes = (
"242 366 LINE",
"242 450 LINE",
"158 450 LINE",
"158 366 LINE"
);
}
);
width = 356;
}
);
unicode = 00BF;
},
{
glyphname = quotedbl;
layers = (
{
hints = (
{
place = "{116, 78}";
},
{
place = "{278, 78}";
},
{
horizontal = 1;
place = "{699, -20}";
target = down;
type = TopGhost;
},
{
horizontal = 1;
place = "{407, 21}";
}
);
layerId = UUID0;
paths = (
{
closed = 1;
nodes = (
"49 616 LINE",
"49 450 LINE",
"113 450 LINE",
"113 616 LINE"
);
},
{
closed = 1;
nodes = (
"177 616 LINE",
"177 450 LINE",
"241 450 LINE",
"241 616 LINE"
);
}
);
width = 290;
}
);
leftKerningGroup = quotesingle;
rightKerningGroup = quotesingle;
unicode = 0022;
},
{
glyphname = quotesingle;
layers = (
{
hints = (
{
place = "{197, 78}";
},
{
horizontal = 1;
place = "{699, -20}";
target = down;
type = TopGhost;
},
{
horizontal = 1;
place = "{407, 21}";
}
);
layerId = UUID0;
paths = (
{
closed = 1;
nodes = (
"49 616 LINE",
"49 450 LINE",
"113 450 LINE",
"113 616 LINE"
);
}
);
width = 162;
}
);
leftKerningGroup = quotesingle;
rightKerningGroup = quotesingle;
unicode = 0027;
},
{
glyphname = semicolon;
layers = (
{
hints = (
{
place = "{70, 84}";
},
{
horizontal = 1;
place = "{372, -84}";
},
{
horizontal = 1;
place = "{-102, 21}";
}
);
layerId = UUID0;
paths = (
{
closed = 1;
nodes = (
"70 450 LINE",
"70 366 LINE",
"154 366 LINE",
"154 450 LINE"
);
},
{
closed = 1;
nodes = (
"57 84 LINE",
"98 0 LINE",
"100 -17 OFFCURVE",
"94 -31 OFFCURVE",
"86 -39 CURVE SMOOTH",
"78 -48 OFFCURVE",
"62 -57 OFFCURVE",
"54 -60 CURVE",
"77 -102 LINE",
"94 -95 OFFCURVE",
"114 -82 OFFCURVE",
"125 -69 CURVE SMOOTH",
"139 -52 OFFCURVE",
"148 -26 OFFCURVE",
"148 0 CURVE SMOOTH",
"148 84 LINE"
);
}
);
width = 217;
}
);
leftKerningGroup = colon;
unicode = 003B;
},
{
glyphname = slash;
layers = (
{
hints = (
{
place = "{-11, 44}";
},
{
place = "{154, 44}";
},
{
place = "{166, 44}";
},
{
place = "{330, 44}";
},
{
place = "{-7, 64}";
},
{
place = "{250, 64}";
},
{
horizontal = 1;
place = "{-9, 40}";
},
{
horizontal = 1;
place = "{222, 40}";
},
{
horizontal = 1;
place = "{401, 40}";
},
{
horizontal = 1;
place = "{631, 41}";
},
{
horizontal = 1;
place = "{397, 62}";
},
{
horizontal = 1;
place = "{-9, 21}";
}
);
layerId = UUID0;
paths = (
{
closed = 1;
nodes = (
"21 -190 LINE",
"82 -211 LINE",
"375 605 LINE",
"314 626 LINE"
);
}
);
width = 396;
}
);
unicode = 002F;
},
{
glyphname = underscore;
layers = (
{
hints = (
{
horizontal = 1;
place = "{199, 93}";
}
);
layerId = UUID0;
paths = (
{
closed = 1;
nodes = (
"76 -147 LINE",
"398 -147 LINE",
"398 -82 LINE",
"76 -82 LINE"
);
}
);
width = 474;
}
);
unicode = 005F;
},
{
glyphname = braceleft;
layers = (
{
hints = (
{
place = "{274, -133}";
},
{
place = "{206, -64}";
},
{
place = "{385, 79}";
},
{
horizontal = 1;
place = "{-150, 60}";
},
{
horizontal = 1;
place = "{694, 59}";
},
{
horizontal = 1;
place = "{-155, 62}";
},
{
horizontal = 1;
place = "{697, 62}";
}
);
layerId = UUID0;
paths = (
{
closed = 1;
nodes = (
"19 223 LINE",
"85 208 OFFCURVE",
"86 168 OFFCURVE",
"86 96 CURVE SMOOTH",
"86 31 LINE SMOOTH",
"86 -70 OFFCURVE",
"135 -120 OFFCURVE",
"200 -147 CURVE",
"229 -87 LINE",
"181 -65 OFFCURVE",
"150 -37 OFFCURVE",
"150 29 CURVE SMOOTH",
"150 96 LINE SMOOTH",
"150 165 OFFCURVE",
"146 218 OFFCURVE",
"85 254 CURVE",
"146 290 OFFCURVE",
"150 343 OFFCURVE",
"150 412 CURVE SMOOTH",
"150 479 LINE SMOOTH",
"150 545 OFFCURVE",
"181 573 OFFCURVE",
"229 595 CURVE",
"200 655 LINE",
"135 628 OFFCURVE",
"86 578 OFFCURVE",
"86 477 CURVE SMOOTH",
"86 412 LINE SMOOTH",
"86 340 OFFCURVE",
"85 300 OFFCURVE",
"19 285 CURVE"
);
}
);
width = 250;
}
);
unicode = 007B;
},
{
glyphname = braceright;
layers = (
{
hints = (
{
place = "{-24, 133}";
},
{
place = "{45, 64}";
},
{
place = "{-135, -79}";
},
{
horizontal = 1;
place = "{-150, 60}";
},
{
horizontal = 1;
place = "{694, 59}";
},
{
horizontal = 1;
place = "{-155, 62}";
},
{
horizontal = 1;
place = "{697, 62}";
}
);
layerId = UUID0;
paths = (
{
closed = 1;
nodes = (
"232 285 LINE",
"165 300 OFFCURVE",
"164 340 OFFCURVE",
"164 412 CURVE SMOOTH",
"164 477 LINE SMOOTH",
"164 578 OFFCURVE",
"115 628 OFFCURVE",
"50 655 CURVE",
"22 595 LINE",
"69 573 OFFCURVE",
"100 545 OFFCURVE",
"100 479 CURVE SMOOTH",
"100 412 LINE SMOOTH",
"100 343 OFFCURVE",
"104 290 OFFCURVE",
"165 254 CURVE",
"104 218 OFFCURVE",
"100 165 OFFCURVE",
"100 96 CURVE SMOOTH",
"100 29 LINE SMOOTH",
"100 -37 OFFCURVE",
"69 -65 OFFCURVE",
"22 -87 CURVE",
"50 -147 LINE",
"115 -120 OFFCURVE",
"164 -70 OFFCURVE",
"164 31 CURVE SMOOTH",
"164 96 LINE SMOOTH",
"164 168 OFFCURVE",
"165 208 OFFCURVE",
"232 223 CURVE"
);
}
);
width = 250;
}
);
unicode = 007D;
},
{
glyphname = bracketleft;
layers = (
{
hints = (
{
place = "{64, 79}";
},
{
horizontal = 1;
place = "{-155, 62}";
},
{
horizontal = 1;
place = "{697, 62}";
}
);
layerId = UUID0;
paths = (
{
closed = 1;
nodes = (
"64 -147 LINE",
"312 -147 LINE",
"312 -85 LINE",
"128 -85 LINE",
"128 593 LINE",
"312 593 LINE",
"312 655 LINE",
"64 655 LINE"
);
}
);
width = 335;
}
);
unicode = 005B;
},
{
glyphname = bracketright;
layers = (
{
hints = (
{
place = "{157, 79}";
},
{
horizontal = 1;
place = "{-155, 62}";
},
{
horizontal = 1;
place = "{697, 62}";
}
);
layerId = UUID0;
paths = (
{
closed = 1;
nodes = (
"271 655 LINE",
"24 655 LINE",
"24 593 LINE",
"207 593 LINE",
"207 -85 LINE",
"24 -85 LINE",
"24 -147 LINE",
"271 -147 LINE"
);
}
);
width = 335;
}
);
unicode = 005D;
},
{
glyphname = parenleft;
layers = (
{
hints = (
{
place = "{42, 66}";
},
{
horizontal = 1;
place = "{728, -20}";
target = down;
type = TopGhost;
},
{
horizontal = 1;
place = "{-147, 21}";
}
);
layerId = UUID0;
paths = (
{
closed = 1;
nodes = (
"222 -110 LINE",
"128 20 OFFCURVE",
"108 166 OFFCURVE",
"108 254 CURVE SMOOTH",
"108 341 OFFCURVE",
"128 490 OFFCURVE",
"222 620 CURVE",
"167 656 LINE",
"62 501 OFFCURVE",
"42 365 OFFCURVE",
"42 254 CURVE SMOOTH",
"42 144 OFFCURVE",
"62 8 OFFCURVE",
"167 -147 CURVE"
);
}
);
width = 242;
}
);
unicode = 0028;
},
{
glyphname = parenright;
layers = (
{
hints = (
{
place = "{101, 66}";
},
{
horizontal = 1;
place = "{-147, 21}";
},
{
horizontal = 1;
place = "{728, -20}";
target = down;
type = TopGhost;
}
);
layerId = UUID0;
paths = (
{
closed = 1;
nodes = (
"75 -147 LINE",
"181 8 OFFCURVE",
"200 144 OFFCURVE",
"200 254 CURVE SMOOTH",
"200 365 OFFCURVE",
"181 501 OFFCURVE",
"75 656 CURVE",
"20 620 LINE",
"114 490 OFFCURVE",
"134 341 OFFCURVE",
"134 254 CURVE SMOOTH",
"134 166 OFFCURVE",
"114 20 OFFCURVE",
"20 -110 CURVE"
);
}
);
width = 242;
}
);
unicode = 0029;
},
{
glyphname = emdash;
layers = (
{
hints = (
{
horizontal = 1;
place = "{199, 93}";
}
);
layerId = UUID0;
paths = (
{
closed = 1;
nodes = (
"54 217 LINE",
"525 217 LINE",
"525 282 LINE",
"54 282 LINE"
);
}
);
width = 580;
}
);
leftKerningGroup = hyphen;
rightKerningGroup = hyphen;
unicode = 2014;
},
{
glyphname = endash;
layers = (
{
hints = (
{
horizontal = 1;
place = "{199, 93}";
}
);
layerId = UUID0;
paths = (
{
closed = 1;
nodes = (
"54 217 LINE",
"376 217 LINE",
"376 282 LINE",
"54 282 LINE"
);
}
);
width = 431;
}
);
leftKerningGroup = hyphen;
rightKerningGroup = hyphen;
unicode = 2013;
},
{
glyphname = hyphen;
layers = (
{
hints = (
{
horizontal = 1;
place = "{199, 93}";
}
);
layerId = UUID0;
paths = (
{
closed = 1;
nodes = (
"55 212 LINE",
"337 212 LINE",
"337 282 LINE",
"55 282 LINE"
);
}
);
width = 393;
}
);
leftKerningGroup = hyphen;
rightKerningGroup = hyphen;
unicode = 002D;
},
{
glyphname = softhyphen;
layers = (
{
hints = (
{
horizontal = 1;
place = "{199, 93}";
}
);
layerId = UUID0;
paths = (
{
closed = 1;
nodes = (
"55 212 LINE",
"337 212 LINE",
"337 282 LINE",
"55 282 LINE"
);
}
);
width = 393;
}
);
leftKerningGroup = hyphen;
rightKerningGroup = hyphen;
unicode = 00AD;
},
{
glyphname = guillemetleft;
layers = (
{
hints = (
{
place = "{599, 70}";
},
{
horizontal = 1;
place = "{124, 21}";
},
{
horizontal = 1;
place = "{544, -20}";
target = down;
type = TopGhost;
},
{
horizontal = 1;
place = "{303, 67}";
},
{
horizontal = 1;
place = "{102, 21}";
},
{
horizontal = 1;
place = "{567, -20}";
target = down;
type = TopGhost;
}
);
layerId = UUID0;
paths = (
{
closed = 1;
nodes = (
"46 253 LINE",
"179 120 LINE",
"225 166 LINE",
"106 285 LINE",
"225 404 LINE",
"179 450 LINE",
"46 317 LINE"
);
},
{
closed = 1;
nodes = (
"257 198 LINE",
"303 244 LINE",
"262 285 LINE",
"303 326 LINE",
"257 372 LINE",
"170 285 LINE"
);
}
);
width = 335;
}
);
leftKerningGroup = guilsinglleft;
unicode = 00AB;
},
{
glyphname = guillemetright;
layers = (
{
hints = (
{
place = "{-265, -70}";
},
{
horizontal = 1;
place = "{124, 21}";
},
{
horizontal = 1;
place = "{544, -20}";
target = down;
type = TopGhost;
},
{
horizontal = 1;
place = "{303, 67}";
},
{
horizontal = 1;
place = "{102, 21}";
},
{
horizontal = 1;
place = "{567, -20}";
target = down;
type = TopGhost;
}
);
layerId = UUID0;
paths = (
{
closed = 1;
nodes = (
"164 285 LINE",
"77 372 LINE",
"31 326 LINE",
"72 285 LINE",
"31 244 LINE",
"77 198 LINE"
);
},
{
closed = 1;
nodes = (
"288 317 LINE",
"155 450 LINE",
"109 404 LINE",
"228 285 LINE",
"109 166 LINE",
"155 120 LINE",
"288 253 LINE"
);
}
);
width = 334;
}
);
rightKerningGroup = guilsinglright;
unicode = 00BB;
},
{
glyphname = guilsinglleft;
layers = (
{
hints = (
{
place = "{599, 70}";
},
{
horizontal = 1;
place = "{124, 21}";
},
{
horizontal = 1;
place = "{544, -20}";
target = down;
type = TopGhost;
},
{
horizontal = 1;
place = "{303, 67}";
},
{
horizontal = 1;
place = "{102, 21}";
},
{
horizontal = 1;
place = "{567, -20}";
target = down;
type = TopGhost;
}
);
layerId = UUID0;
paths = (
{
closed = 1;
nodes = (
"46 253 LINE",
"179 120 LINE",
"225 166 LINE",
"106 285 LINE",
"225 404 LINE",
"179 450 LINE",
"46 317 LINE"
);
}
);
width = 265;
}
);
leftKerningGroup = guilsinglleft;
unicode = 2039;
},
{
glyphname = guilsinglright;
layers = (
{
hints = (
{
place = "{-334, -70}";
},
{
horizontal = 1;
place = "{124, 21}";
},
{
horizontal = 1;
place = "{544, -20}";
target = down;
type = TopGhost;
},
{
horizontal = 1;
place = "{303, 67}";
},
{
horizontal = 1;
place = "{102, 21}";
},
{
horizontal = 1;
place = "{567, -20}";
target = down;
type = TopGhost;
}
);
layerId = UUID0;
paths = (
{
closed = 1;
nodes = (
"219 317 LINE",
"86 450 LINE",
"40 404 LINE",
"159 285 LINE",
"40 166 LINE",
"86 120 LINE",
"219 253 LINE"
);
}
);
width = 265;
}
);
rightKerningGroup = guilsinglright;
unicode = 203A;
},
{
glyphname = quotedblbase;
layers = (
{
hints = (
{
place = "{72, 72}";
},
{
place = "{77, 64}";
},
{
horizontal = 1;
place = "{84, -20}";
target = down;
type = TopGhost;
},
{
horizontal = 1;
place = "{-102, 21}";
},
{
horizontal = 1;
place = "{62, 85}";
},
{
horizontal = 1;
place = "{222, -75}";
},
{
horizontal = 1;
place = "{-388, 21}";
}
);
layerId = UUID0;
paths = (
{
closed = 1;
nodes = (
"36 84 LINE",
"77 0 LINE",
"79 -17 OFFCURVE",
"72 -31 OFFCURVE",
"64 -39 CURVE SMOOTH",
"57 -48 OFFCURVE",
"41 -57 OFFCURVE",
"33 -60 CURVE",
"56 -102 LINE",
"72 -95 OFFCURVE",
"92 -82 OFFCURVE",
"104 -69 CURVE SMOOTH",
"118 -52 OFFCURVE",
"126 -26 OFFCURVE",
"126 0 CURVE SMOOTH",
"126 84 LINE"
);
},
{
closed = 1;
nodes = (
"174 84 LINE",
"215 0 LINE",
"217 -17 OFFCURVE",
"211 -31 OFFCURVE",
"204 -39 CURVE SMOOTH",
"195 -48 OFFCURVE",
"180 -57 OFFCURVE",
"171 -60 CURVE",
"194 -102 LINE",
"211 -95 OFFCURVE",
"231 -82 OFFCURVE",
"243 -69 CURVE SMOOTH",
"256 -52 OFFCURVE",
"266 -26 OFFCURVE",
"266 0 CURVE SMOOTH",
"266 84 LINE"
);
}
);
width = 313;
}
);
leftKerningGroup = period;
rightKerningGroup = period;
unicode = 201E;
},
{
glyphname = quotedblleft;
layers = (
{
hints = (
{
place = "{216, 78}";
},
{
place = "{77, 72}";
},
{
place = "{82, 64}";
},
{
horizontal = 1;
place = "{699, -20}";
target = down;
type = TopGhost;
},
{
horizontal = 1;
place = "{407, 21}";
},
{
horizontal = 1;
place = "{616, -20}";
target = down;
type = TopGhost;
},
{
horizontal = 1;
place = "{430, 21}";
},
{
horizontal = 1;
place = "{594, 85}";
},
{
horizontal = 1;
place = "{754, -75}";
},
{
horizontal = 1;
place = "{144, 21}";
}
);
layerId = UUID0;
paths = (
{
closed = 1;
nodes = (
"135 469 LINE",
"94 553 LINE",
"92 570 OFFCURVE",
"98 584 OFFCURVE",
"106 592 CURVE SMOOTH",
"114 601 OFFCURVE",
"130 610 OFFCURVE",
"138 613 CURVE",
"115 655 LINE",
"98 648 OFFCURVE",
"79 635 OFFCURVE",
"67 622 CURVE SMOOTH",
"53 605 OFFCURVE",
"44 579 OFFCURVE",
"44 553 CURVE SMOOTH",
"44 469 LINE"
);
},
{
closed = 1;
nodes = (
"275 469 LINE",
"234 553 LINE",
"232 570 OFFCURVE",
"238 584 OFFCURVE",
"247 592 CURVE SMOOTH",
"254 601 OFFCURVE",
"271 610 OFFCURVE",
"278 613 CURVE",
"255 655 LINE",
"238 648 OFFCURVE",
"218 635 OFFCURVE",
"208 622 CURVE SMOOTH",
"193 605 OFFCURVE",
"185 579 OFFCURVE",
"185 553 CURVE SMOOTH",
"185 469 LINE"
);
}
);
width = 313;
}
);
leftKerningGroup = quoteleft;
rightKerningGroup = quoteleft;
unicode = 201C;
},
{
glyphname = quotedblright;
layers = (
{
hints = (
{
place = "{203, 78}";
},
{
place = "{63, 72}";
},
{
place = "{68, 64}";
},
{
horizontal = 1;
place = "{699, -20}";
target = down;
type = TopGhost;
},
{
horizontal = 1;
place = "{407, 21}";
},
{
horizontal = 1;
place = "{616, -20}";
target = down;
type = TopGhost;
},
{
horizontal = 1;
place = "{430, 21}";
},
{
horizontal = 1;
place = "{594, 85}";
},
{
horizontal = 1;
place = "{754, -75}";
},
{
horizontal = 1;
place = "{144, 21}";
}
);
layerId = UUID0;
paths = (
{
closed = 1;
nodes = (
"34 655 LINE",
"75 571 LINE",
"77 554 OFFCURVE",
"71 540 OFFCURVE",
"63 532 CURVE SMOOTH",
"55 523 OFFCURVE",
"39 514 OFFCURVE",
"31 511 CURVE",
"54 469 LINE",
"71 476 OFFCURVE",
"91 489 OFFCURVE",
"102 502 CURVE SMOOTH",
"116 519 OFFCURVE",
"125 545 OFFCURVE",
"125 571 CURVE SMOOTH",
"125 655 LINE"
);
},
{
closed = 1;
nodes = (
"174 655 LINE",
"215 571 LINE",
"217 554 OFFCURVE",
"211 540 OFFCURVE",
"203 532 CURVE SMOOTH",
"195 523 OFFCURVE",
"179 514 OFFCURVE",
"171 511 CURVE",
"194 469 LINE",
"211 476 OFFCURVE",
"230 489 OFFCURVE",
"242 502 CURVE SMOOTH",
"256 519 OFFCURVE",
"265 545 OFFCURVE",
"265 571 CURVE SMOOTH",
"265 655 LINE"
);
}
);
width = 301;
}
);
leftKerningGroup = quoteright;
rightKerningGroup = quoteright;
unicode = 201D;
},
{
glyphname = quoteleft;
layers = (
{
hints = (
{
place = "{216, 78}";
},
{
place = "{77, 72}";
},
{
place = "{82, 64}";
},
{
horizontal = 1;
place = "{699, -20}";
target = down;
type = TopGhost;
},
{
horizontal = 1;
place = "{407, 21}";
},
{
horizontal = 1;
place = "{616, -20}";
target = down;
type = TopGhost;
},
{
horizontal = 1;
place = "{430, 21}";
},
{
horizontal = 1;
place = "{594, 85}";
},
{
horizontal = 1;
place = "{754, -75}";
},
{
horizontal = 1;
place = "{144, 21}";
}
);
layerId = UUID0;
paths = (
{
closed = 1;
nodes = (
"135 469 LINE",
"94 553 LINE",
"92 570 OFFCURVE",
"98 584 OFFCURVE",
"106 592 CURVE SMOOTH",
"114 601 OFFCURVE",
"130 610 OFFCURVE",
"138 613 CURVE",
"115 655 LINE",
"98 648 OFFCURVE",
"79 635 OFFCURVE",
"67 622 CURVE SMOOTH",
"53 605 OFFCURVE",
"44 579 OFFCURVE",
"44 553 CURVE SMOOTH",
"44 469 LINE"
);
}
);
width = 174;
}
);
leftKerningGroup = quoteleft;
rightKerningGroup = quoteleft;
unicode = 2018;
},
{
glyphname = quoteright;
layers = (
{
hints = (
{
place = "{203, 78}";
},
{
place = "{63, 72}";
},
{
place = "{68, 64}";
},
{
horizontal = 1;
place = "{699, -20}";
target = down;
type = TopGhost;
},
{
horizontal = 1;
place = "{407, 21}";
},
{
horizontal = 1;
place = "{616, -20}";
target = down;
type = TopGhost;
},
{
horizontal = 1;
place = "{430, 21}";
},
{
horizontal = 1;
place = "{594, 85}";
},
{
horizontal = 1;
place = "{754, -75}";
},
{
horizontal = 1;
place = "{144, 21}";
}
);
layerId = UUID0;
paths = (
{
closed = 1;
nodes = (
"34 655 LINE",
"75 571 LINE",
"77 554 OFFCURVE",
"71 540 OFFCURVE",
"63 532 CURVE SMOOTH",
"55 523 OFFCURVE",
"39 514 OFFCURVE",
"31 511 CURVE",
"54 469 LINE",
"71 476 OFFCURVE",
"91 489 OFFCURVE",
"102 502 CURVE SMOOTH",
"116 519 OFFCURVE",
"125 545 OFFCURVE",
"125 571 CURVE SMOOTH",
"125 655 LINE"
);
}
);
width = 161;
}
);
leftKerningGroup = quoteright;
rightKerningGroup = quoteright;
unicode = 2019;
},
{
glyphname = quotesinglbase;
layers = (
{
hints = (
{
place = "{72, 72}";
},
{
place = "{77, 64}";
},
{
horizontal = 1;
place = "{84, -20}";
target = down;
type = TopGhost;
},
{
horizontal = 1;
place = "{-102, 21}";
},
{
horizontal = 1;
place = "{62, 85}";
},
{
horizontal = 1;
place = "{222, -75}";
},
{
horizontal = 1;
place = "{-388, 21}";
}
);
layerId = UUID0;
paths = (
{
closed = 1;
nodes = (
"36 84 LINE",
"77 0 LINE",
"79 -17 OFFCURVE",
"72 -31 OFFCURVE",
"64 -39 CURVE SMOOTH",
"57 -48 OFFCURVE",
"41 -57 OFFCURVE",
"33 -60 CURVE",
"56 -102 LINE",
"72 -95 OFFCURVE",
"92 -82 OFFCURVE",
"104 -69 CURVE SMOOTH",
"118 -52 OFFCURVE",
"126 -26 OFFCURVE",
"126 0 CURVE SMOOTH",
"126 84 LINE"
);
}
);
width = 173;
}
);
leftKerningGroup = period;
rightKerningGroup = period;
unicode = 201A;
},
{
glyphname = .notdef;
layers = (
{
layerId = UUID0;
paths = (
{
closed = 1;
nodes = (
"50 0 LINE",
"464 0 LINE",
"464 500 LINE",
"50 500 LINE"
);
},
{
closed = 1;
nodes = (
"112 438 LINE",
"402 438 LINE",
"402 62 LINE",
"112 62 LINE"
);
}
);
width = 529;
}
);
},
{
glyphname = cent;
layers = (
{
hints = (
{
place = "{63, 64}";
},
{
horizontal = 1;
place = "{-9, 62}";
},
{
horizontal = 1;
place = "{397, 62}";
}
);
layerId = UUID0;
paths = (
{
closed = 1;
nodes = (
"251 -102 LINE",
"251 -9 LINE",
"280 -7 OFFCURVE",
"307 -1 OFFCURVE",
"333 9 CURVE",
"333 72 LINE",
"300 56 OFFCURVE",
"268 50 OFFCURVE",
"231 50 CURVE SMOOTH",
"192 50 OFFCURVE",
"160 58 OFFCURVE",
"127 76 CURVE",
"127 265 LINE SMOOTH",
"127 294 OFFCURVE",
"127 338 OFFCURVE",
"149 366 CURVE SMOOTH",
"159 379 OFFCURVE",
"183 400 OFFCURVE",
"231 400 CURVE SMOOTH",
"255 400 OFFCURVE",
"286 395 OFFCURVE",
"311 388 CURVE",
"328 446 LINE",
"304 452 OFFCURVE",
"279 458 OFFCURVE",
"251 459 CURVE",
"251 541 LINE",
"187 541 LINE",
"187 456 LINE",
"159 452 OFFCURVE",
"130 441 OFFCURVE",
"106 416 CURVE SMOOTH",
"60 368 OFFCURVE",
"63 302 OFFCURVE",
"63 265 CURVE SMOOTH",
"63 102 LINE",
"29 61 LINE",
"58 36 OFFCURVE",
"109 2 OFFCURVE",
"187 -7 CURVE",
"187 -102 LINE"
);
}
);
width = 374;
}
);
unicode = 00A2;
},
{
glyphname = currency;
layers = (
{
hints = (
{
place = "{100, 50}";
},
{
place = "{431, 48}";
},
{
place = "{96, 72}";
},
{
place = "{100, 64}";
},
{
horizontal = 1;
place = "{242, 50}";
},
{
horizontal = 1;
place = "{573, 49}";
},
{
horizontal = 1;
place = "{189, 21}";
},
{
horizontal = 1;
place = "{675, -20}";
target = down;
type = TopGhost;
},
{
horizontal = 1;
place = "{450, 85}";
},
{
horizontal = 1;
place = "{610, -75}";
},
{
horizontal = 1;
place = "{0, 21}";
}
);
layerId = UUID0;
paths = (
{
closed = 1;
nodes = (
"479 412 OFFCURVE",
"468 448 OFFCURVE",
"445 481 CURVE",
"539 575 LINE",
"494 620 LINE",
"400 527 LINE",
"368 551 OFFCURVE",
"331 562 OFFCURVE",
"290 562 CURVE SMOOTH",
"249 562 OFFCURVE",
"211 551 OFFCURVE",
"179 527 CURVE",
"85 620 LINE",
"41 575 LINE",
"135 481 LINE",
"112 448 OFFCURVE",
"100 412 OFFCURVE",
"100 372 CURVE SMOOTH",
"100 332 OFFCURVE",
"112 296 OFFCURVE",
"135 263 CURVE",
"41 169 LINE",
"85 124 LINE",
"179 217 LINE",
"211 193 OFFCURVE",
"249 182 OFFCURVE",
"290 182 CURVE SMOOTH",
"331 182 OFFCURVE",
"368 193 OFFCURVE",
"400 217 CURVE",
"494 124 LINE",
"539 169 LINE",
"445 263 LINE",
"468 296 OFFCURVE",
"479 332 OFFCURVE",
"479 372 CURVE SMOOTH"
);
},
{
closed = 1;
nodes = (
"163 441 OFFCURVE",
"220 498 OFFCURVE",
"290 498 CURVE SMOOTH",
"360 498 OFFCURVE",
"416 442 OFFCURVE",
"416 372 CURVE SMOOTH",
"416 303 OFFCURVE",
"358 245 OFFCURVE",
"290 245 CURVE SMOOTH",
"220 245 OFFCURVE",
"163 303 OFFCURVE",
"163 372 CURVE SMOOTH"
);
}
);
width = 579;
}
);
unicode = 00A4;
},
{
glyphname = dollar;
layers = (
{
hints = (
{
place = "{69, 76}";
},
{
place = "{202, 47}";
},
{
place = "{209, 46}";
},
{
place = "{218, 46}";
},
{
place = "{339, 76}";
},
{
place = "{349, -70}";
},
{
place = "{498, 70}";
},
{
place = "{543, 70}";
},
{
horizontal = 1;
place = "{-115, 21}";
},
{
horizontal = 1;
place = "{771, -20}";
target = down;
type = TopGhost;
},
{
horizontal = 1;
place = "{-7, 66}";
},
{
horizontal = 1;
place = "{561, 66}";
},
{
horizontal = 1;
place = "{-1, 67}";
},
{
horizontal = 1;
place = "{567, 66}";
},
{
horizontal = 1;
place = "{0, 21}";
},
{
horizontal = 1;
place = "{616, -20}";
target = down;
type = TopGhost;
}
);
layerId = UUID0;
paths = (
{
closed = 1;
nodes = (
"236 -114 LINE",
"236 -6 LINE",
"288 3 OFFCURVE",
"335 25 OFFCURVE",
"377 60 CURVE",
"349 115 LINE",
"349 158 LINE SMOOTH",
"349 225 OFFCURVE",
"302 269 OFFCURVE",
"208 339 CURVE SMOOTH",
"162 374 OFFCURVE",
"114 412 OFFCURVE",
"114 472 CURVE SMOOTH",
"114 527 OFFCURVE",
"155 562 OFFCURVE",
"215 562 CURVE SMOOTH",
"243 562 OFFCURVE",
"274 555 OFFCURVE",
"311 538 CURVE",
"341 597 LINE",
"308 614 OFFCURVE",
"276 623 OFFCURVE",
"236 625 CURVE",
"236 714 LINE",
"167 714 LINE",
"167 622 LINE",
"92 607 OFFCURVE",
"43 555 OFFCURVE",
"43 470 CURVE SMOOTH",
"43 382 OFFCURVE",
"103 332 OFFCURVE",
"166 283 CURVE SMOOTH",
"209 249 OFFCURVE",
"279 207 OFFCURVE",
"279 150 CURVE SMOOTH",
"279 81 LINE",
"252 64 OFFCURVE",
"224 54 OFFCURVE",
"185 54 CURVE SMOOTH",
"148 54 OFFCURVE",
"104 64 OFFCURVE",
"65 87 CURVE",
"37 24 LINE",
"80 -1 OFFCURVE",
"133 -8 OFFCURVE",
"167 -10 CURVE",
"167 -114 LINE"
);
}
);
width = 404;
}
);
unicode = 0024;
},
{
glyphname = euro;
layers = (
{
hints = (
{
place = "{92, 70}";
},
{
place = "{92, 70}";
},
{
horizontal = 1;
place = "{-9, 67}";
},
{
horizontal = 1;
place = "{559, 66}";
},
{
horizontal = 1;
place = "{-9, 67}";
},
{
horizontal = 1;
place = "{559, 66}";
}
);
layerId = UUID0;
paths = (
{
closed = 1;
nodes = (
"403 597 LINE",
"366 617 OFFCURVE",
"332 626 OFFCURVE",
"283 626 CURVE SMOOTH",
"149 626 OFFCURVE",
"104 542 OFFCURVE",
"94 432 CURVE",
"52 432 LINE",
"41 378 LINE",
"92 378 LINE",
"92 332 LINE",
"52 332 LINE",
"41 278 LINE",
"92 278 LINE",
"92 117 LINE",
"56 71 LINE",
"135 0 OFFCURVE",
"229 -10 OFFCURVE",
"277 -10 CURVE SMOOTH",
"337 -10 OFFCURVE",
"387 3 OFFCURVE",
"421 21 CURVE",
"393 84 LINE",
"354 61 OFFCURVE",
"326 54 OFFCURVE",
"281 54 CURVE SMOOTH",
"234 54 OFFCURVE",
"199 62 OFFCURVE",
"162 85 CURVE",
"162 278 LINE",
"333 278 LINE",
"344 332 LINE",
"162 332 LINE",
"162 378 LINE",
"354 378 LINE",
"366 432 LINE",
"164 432 LINE",
"170 505 OFFCURVE",
"196 562 OFFCURVE",
"285 562 CURVE SMOOTH",
"312 562 OFFCURVE",
"344 555 OFFCURVE",
"378 538 CURVE"
);
}
);
width = 451;
}
);
unicode = 20AC;
},
{
glyphname = sterling;
layers = (
{
hints = (
{
place = "{82, 70}";
},
{
place = "{567, 70}";
},
{
place = "{1271, -70}";
},
{
place = "{972, -70}";
},
{
horizontal = 1;
place = "{-9, 67}";
},
{
horizontal = 1;
place = "{559, 66}";
},
{
horizontal = 1;
place = "{322, 66}";
},
{
horizontal = 1;
place = "{550, 66}";
},
{
horizontal = 1;
place = "{-19, 21}";
},
{
horizontal = 1;
place = "{-9, 66}";
},
{
horizontal = 1;
place = "{559, 66}";
}
);
layerId = UUID0;
paths = (
{
closed = 1;
nodes = (
"50 323 LINE",
"82 323 LINE",
"82 0 LINE",
"391 0 LINE",
"370 64 LINE",
"151 64 LINE",
"151 323 LINE",
"283 323 LINE",
"283 387 LINE",
"151 387 LINE",
"151 482 OFFCURVE",
"168 562 OFFCURVE",
"274 562 CURVE SMOOTH",
"301 562 OFFCURVE",
"333 555 OFFCURVE",
"368 538 CURVE",
"393 597 LINE",
"355 617 OFFCURVE",
"321 626 OFFCURVE",
"272 626 CURVE SMOOTH",
"122 626 OFFCURVE",
"82 518 OFFCURVE",
"82 387 CURVE",
"30 387 LINE"
);
}
);
width = 424;
}
);
unicode = 00A3;
},
{
glyphname = yen;
layers = (
{
hints = (
{
place = "{175, 70}";
},
{
place = "{465, 70}";
},
{
horizontal = 1;
place = "{0, 21}";
},
{
horizontal = 1;
place = "{625, -20}";
target = down;
type = TopGhost;
},
{
horizontal = 1;
place = "{324, 66}";
},
{
horizontal = 1;
place = "{552, 66}";
},
{
horizontal = 1;
place = "{2, 21}";
}
);
layerId = UUID0;
paths = (
{
closed = 1;
nodes = (
"96 200 LINE",
"175 200 LINE",
"175 151 LINE",
"96 151 LINE",
"96 97 LINE",
"175 97 LINE",
"175 0 LINE",
"245 0 LINE",
"245 97 LINE",
"326 97 LINE",
"326 151 LINE",
"245 151 LINE",
"245 200 LINE",
"326 200 LINE",
"326 254 LINE",
"245 254 LINE",
"245 322 LINE",
"265 326 OFFCURVE",
"295 335 OFFCURVE",
"321 366 CURVE SMOOTH",
"354 404 OFFCURVE",
"368 469 OFFCURVE",
"390 615 CURVE",
"320 626 LINE",
"312 572 LINE SMOOTH",
"296 465 OFFCURVE",
"284 431 OFFCURVE",
"268 412 CURVE SMOOTH",
"250 391 OFFCURVE",
"227 387 OFFCURVE",
"210 387 CURVE SMOOTH",
"193 387 OFFCURVE",
"170 391 OFFCURVE",
"152 412 CURVE SMOOTH",
"136 431 OFFCURVE",
"124 465 OFFCURVE",
"108 572 CURVE SMOOTH",
"100 626 LINE",
"30 615 LINE",
"52 469 OFFCURVE",
"66 404 OFFCURVE",
"99 366 CURVE SMOOTH",
"125 335 OFFCURVE",
"155 326 OFFCURVE",
"175 322 CURVE",
"175 254 LINE",
"96 254 LINE"
);
}
);
width = 420;
}
);
unicode = 00A5;
},
{
glyphname = plus;
layers = (
{
hints = (
{
place = "{207, 70}";
},
{
horizontal = 1;
place = "{303, 67}";
},
{
horizontal = 1;
place = "{102, 21}";
},
{
horizontal = 1;
place = "{567, -20}";
target = down;
type = TopGhost;
}
);
layerId = UUID0;
paths = (
{
closed = 1;
nodes = (
"31 323 LINE",
"167 323 LINE",
"167 177 LINE",
"234 177 LINE",
"234 323 LINE",
"370 323 LINE",
"370 387 LINE",
"234 387 LINE",
"234 533 LINE",
"167 533 LINE",
"167 387 LINE",
"31 387 LINE"
);
}
);
width = 401;
}
);
unicode = 002B;
},
{
glyphname = minus;
layers = (
{
hints = (
{
place = "{320, 49}";
},
{
place = "{238, 70}";
},
{
horizontal = 1;
place = "{11, 21}";
target = up;
type = BottomGhost;
},
{
horizontal = 1;
place = "{229, 48}";
},
{
horizontal = 1;
place = "{303, 67}";
},
{
horizontal = 1;
place = "{102, 21}";
},
{
horizontal = 1;
place = "{567, -20}";
target = down;
type = TopGhost;
}
);
layerId = UUID0;
paths = (
{
closed = 1;
nodes = (
"62 323 LINE",
"401 323 LINE",
"401 387 LINE",
"62 387 LINE"
);
}
);
width = 463;
}
);
unicode = 2212;
},
{
glyphname = multiply;
layers = (
{
hints = (
{
place = "{199, 70}";
},
{
horizontal = 1;
place = "{303, 67}";
},
{
horizontal = 1;
place = "{102, 21}";
},
{
horizontal = 1;
place = "{567, -20}";
target = down;
type = TopGhost;
}
);
layerId = UUID0;
paths = (
{
closed = 1;
nodes = (
"43 459 LINE",
"146 356 LINE",
"43 252 LINE",
"90 205 LINE",
"193 308 LINE",
"297 205 LINE",
"342 250 LINE",
"239 354 LINE",
"342 457 LINE",
"295 504 LINE",
"191 401 LINE",
"88 504 LINE"
);
}
);
width = 386;
}
);
unicode = 00D7;
},
{
glyphname = divide;
layers = (
{
hints = (
{
place = "{219, 68}";
},
{
place = "{218, 70}";
},
{
place = "{53, 84}";
},
{
horizontal = 1;
place = "{94, 64}";
},
{
horizontal = 1;
place = "{362, 64}";
},
{
horizontal = 1;
place = "{587, -20}";
target = down;
type = TopGhost;
},
{
horizontal = 1;
place = "{303, 67}";
},
{
horizontal = 1;
place = "{102, 21}";
},
{
horizontal = 1;
place = "{567, -20}";
target = down;
type = TopGhost;
},
{
horizontal = 1;
place = "{0, 84}";
}
);
layerId = UUID0;
paths = (
{
closed = 1;
nodes = (
"42 323 LINE",
"381 323 LINE",
"381 387 LINE",
"42 387 LINE"
);
},
{
closed = 1;
nodes = (
"170 255 LINE",
"170 171 LINE",
"254 171 LINE",
"254 255 LINE"
);
},
{
closed = 1;
nodes = (
"170 539 LINE",
"170 455 LINE",
"254 455 LINE",
"254 539 LINE"
);
}
);
width = 424;
}
);
unicode = 00F7;
},
{
glyphname = equal;
layers = (
{
hints = (
{
horizontal = 1;
place = "{224, 63}";
},
{
horizontal = 1;
place = "{382, 63}";
}
);
layerId = UUID0;
paths = (
{
closed = 1;
nodes = (
"64 244 LINE",
"383 244 LINE",
"383 308 LINE",
"64 308 LINE"
);
},
{
closed = 1;
nodes = (
"64 402 LINE",
"383 402 LINE",
"383 466 LINE",
"64 466 LINE"
);
}
);
width = 448;
}
);
unicode = 003D;
},
{
glyphname = greater;
layers = (
{
hints = (
{
place = "{-223, -70}";
},
{
horizontal = 1;
place = "{124, 21}";
},
{
horizontal = 1;
place = "{544, -20}";
target = down;
type = TopGhost;
},
{
horizontal = 1;
place = "{303, 67}";
},
{
horizontal = 1;
place = "{102, 21}";
},
{
horizontal = 1;
place = "{567, -20}";
target = down;
type = TopGhost;
}
);
layerId = UUID0;
paths = (
{
closed = 1;
nodes = (
"346 387 LINE",
"84 550 LINE",
"46 492 LINE",
"265 355 LINE",
"46 218 LINE",
"84 160 LINE",
"346 323 LINE"
);
}
);
width = 376;
}
);
unicode = 003E;
},
{
glyphname = less;
layers = (
{
hints = (
{
place = "{600, 70}";
},
{
horizontal = 1;
place = "{124, 21}";
},
{
horizontal = 1;
place = "{544, -20}";
target = down;
type = TopGhost;
},
{
horizontal = 1;
place = "{303, 67}";
},
{
horizontal = 1;
place = "{102, 21}";
},
{
horizontal = 1;
place = "{567, -20}";
target = down;
type = TopGhost;
}
);
layerId = UUID0;
paths = (
{
closed = 1;
nodes = (
"31 323 LINE",
"292 160 LINE",
"331 218 LINE",
"112 355 LINE",
"331 492 LINE",
"292 550 LINE",
"31 387 LINE"
);
}
);
width = 376;
}
);
unicode = 003C;
},
{
glyphname = plusminus;
layers = (
{
hints = (
{
place = "{234, 68}";
},
{
place = "{233, 70}";
},
{
horizontal = 1;
place = "{94, 64}";
},
{
horizontal = 1;
place = "{362, 64}";
},
{
horizontal = 1;
place = "{587, -20}";
target = down;
type = TopGhost;
},
{
horizontal = 1;
place = "{303, 67}";
},
{
horizontal = 1;
place = "{102, 21}";
},
{
horizontal = 1;
place = "{567, -20}";
target = down;
type = TopGhost;
}
);
layerId = UUID0;
paths = (
{
closed = 1;
nodes = (
"57 323 LINE",
"193 323 LINE",
"193 217 LINE",
"260 217 LINE",
"260 323 LINE",
"396 323 LINE",
"396 387 LINE",
"260 387 LINE",
"260 533 LINE",
"193 533 LINE",
"193 387 LINE",
"57 387 LINE"
);
},
{
closed = 1;
nodes = (
"57 94 LINE",
"396 94 LINE",
"396 158 LINE",
"57 158 LINE"
);
}
);
width = 453;
}
);
unicode = 00B1;
},
{
glyphname = asciitilde;
layers = (
{
hints = (
{
horizontal = 1;
place = "{280, 67}";
},
{
horizontal = 1;
place = "{322, 67}";
},
{
horizontal = 1;
place = "{272, 21}";
},
{
horizontal = 1;
place = "{397, -20}";
target = down;
type = TopGhost;
}
);
layerId = UUID0;
paths = (
{
closed = 1;
nodes = (
"70 273 LINE",
"95 302 OFFCURVE",
"110 322 OFFCURVE",
"148 322 CURVE SMOOTH",
"207 322 OFFCURVE",
"269 260 OFFCURVE",
"329 260 CURVE SMOOTH",
"385 260 OFFCURVE",
"419 291 OFFCURVE",
"455 331 CURVE",
"417 376 LINE",
"392 347 OFFCURVE",
"376 327 OFFCURVE",
"335 327 CURVE SMOOTH",
"292 327 OFFCURVE",
"221 389 OFFCURVE",
"156 389 CURVE SMOOTH",
"102 389 OFFCURVE",
"67 350 OFFCURVE",
"32 310 CURVE"
);
}
);
width = 486;
}
);
unicode = 007E;
},
{
glyphname = logicalnot;
layers = (
{
hints = (
{
place = "{388, 70}";
},
{
horizontal = 1;
place = "{378, 67}";
},
{
horizontal = 1;
place = "{224, 21}";
},
{
horizontal = 1;
place = "{224, 63}";
},
{
horizontal = 1;
place = "{382, 63}";
}
);
layerId = UUID0;
paths = (
{
closed = 1;
nodes = (
"37 402 LINE",
"293 402 LINE",
"293 300 LINE",
"355 300 LINE",
"355 466 LINE",
"37 466 LINE"
);
}
);
width = 415;
}
);
unicode = 00AC;
},
{
glyphname = micro;
layers = (
{
hints = (
{
place = "{69, 64}";
},
{
place = "{326, 64}";
},
{
place = "{-316, 64}";
},
{
place = "{-52, 66}";
},
{
horizontal = 1;
place = "{62, -62}";
},
{
horizontal = 1;
place = "{491, -20}";
target = down;
type = TopGhost;
},
{
horizontal = 1;
place = "{-192, 21}";
},
{
horizontal = 1;
place = "{-9, 62}";
},
{
horizontal = 1;
place = "{450, -20}";
target = down;
type = TopGhost;
},
{
horizontal = 1;
place = "{-9, 62}";
},
{
horizontal = 1;
place = "{397, 62}";
},
{
horizontal = 1;
place = "{-211, 21}";
}
);
layerId = UUID0;
paths = (
{
closed = 1;
nodes = (
"69 225 LINE",
"69 -211 LINE",
"133 -211 LINE",
"133 16 LINE",
"167 -5 OFFCURVE",
"209 -10 OFFCURVE",
"242 -10 CURVE SMOOTH",
"322 -10 OFFCURVE",
"380 15 OFFCURVE",
"415 36 CURVE",
"391 85 LINE",
"391 450 LINE",
"327 450 LINE",
"327 65 LINE",
"305 56 OFFCURVE",
"279 50 OFFCURVE",
"247 50 CURVE SMOOTH",
"190 50 OFFCURVE",
"164 73 OFFCURVE",
"152 91 CURVE SMOOTH",
"135 116 OFFCURVE",
"133 157 OFFCURVE",
"133 245 CURVE SMOOTH",
"133 450 LINE",
"69 450 LINE",
"69 247 LINE"
);
}
);
width = 449;
}
);
unicode = 00B5;
},
{
glyphname = percent;
layers = (
{
hints = (
{
place = "{36, 44}";
},
{
place = "{201, 44}";
},
{
place = "{213, 44}";
},
{
place = "{377, 44}";
},
{
place = "{40, 64}";
},
{
place = "{298, 64}";
},
{
horizontal = 1;
place = "{-9, 40}";
},
{
horizontal = 1;
place = "{222, 40}";
},
{
horizontal = 1;
place = "{401, 40}";
},
{
horizontal = 1;
place = "{631, 41}";
},
{
horizontal = 1;
place = "{397, 62}";
},
{
horizontal = 1;
place = "{-9, 21}";
}
);
layerId = UUID0;
paths = (
{
closed = 1;
nodes = (
"141 11 LINE",
"201 -10 LINE",
"422 605 LINE",
"362 626 LINE"
);
},
{
closed = 1;
nodes = (
"224 514 LINE SMOOTH",
"224 535 OFFCURVE",
"225 573 OFFCURVE",
"200 601 CURVE SMOOTH",
"179 624 OFFCURVE",
"151 626 OFFCURVE",
"131 626 CURVE SMOOTH",
"112 626 OFFCURVE",
"84 624 OFFCURVE",
"62 601 CURVE SMOOTH",
"37 573 OFFCURVE",
"39 535 OFFCURVE",
"39 514 CURVE SMOOTH",
"39 438 LINE SMOOTH",
"39 417 OFFCURVE",
"37 379 OFFCURVE",
"62 351 CURVE SMOOTH",
"84 328 OFFCURVE",
"112 326 OFFCURVE",
"131 326 CURVE SMOOTH",
"151 326 OFFCURVE",
"179 328 OFFCURVE",
"200 351 CURVE SMOOTH",
"225 379 OFFCURVE",
"224 417 OFFCURVE",
"224 438 CURVE SMOOTH"
);
},
{
closed = 1;
nodes = (
"93 519 LINE SMOOTH",
"93 531 OFFCURVE",
"93 547 OFFCURVE",
"101 557 CURVE SMOOTH",
"105 561 OFFCURVE",
"114 571 OFFCURVE",
"131 571 CURVE SMOOTH",
"148 571 OFFCURVE",
"157 561 OFFCURVE",
"160 557 CURVE SMOOTH",
"167 547 OFFCURVE",
"167 531 OFFCURVE",
"167 519 CURVE SMOOTH",
"167 433 LINE SMOOTH",
"167 421 OFFCURVE",
"167 405 OFFCURVE",
"160 395 CURVE SMOOTH",
"157 391 OFFCURVE",
"148 381 OFFCURVE",
"131 381 CURVE SMOOTH",
"114 381 OFFCURVE",
"105 391 OFFCURVE",
"101 395 CURVE SMOOTH",
"93 405 OFFCURVE",
"93 421 OFFCURVE",
"93 433 CURVE SMOOTH"
);
},
{
closed = 1;
nodes = (
"525 178 LINE SMOOTH",
"525 199 OFFCURVE",
"526 237 OFFCURVE",
"501 265 CURVE SMOOTH",
"480 288 OFFCURVE",
"452 290 OFFCURVE",
"432 290 CURVE SMOOTH",
"413 290 OFFCURVE",
"385 288 OFFCURVE",
"363 265 CURVE SMOOTH",
"338 237 OFFCURVE",
"340 199 OFFCURVE",
"340 178 CURVE SMOOTH",
"340 102 LINE SMOOTH",
"340 81 OFFCURVE",
"338 43 OFFCURVE",
"363 15 CURVE SMOOTH",
"385 -8 OFFCURVE",
"413 -10 OFFCURVE",
"432 -10 CURVE SMOOTH",
"452 -10 OFFCURVE",
"480 -8 OFFCURVE",
"501 15 CURVE SMOOTH",
"526 43 OFFCURVE",
"525 81 OFFCURVE",
"525 102 CURVE SMOOTH"
);
},
{
closed = 1;
nodes = (
"394 183 LINE SMOOTH",
"394 195 OFFCURVE",
"394 211 OFFCURVE",
"402 221 CURVE SMOOTH",
"406 225 OFFCURVE",
"415 235 OFFCURVE",
"432 235 CURVE SMOOTH",
"449 235 OFFCURVE",
"458 225 OFFCURVE",
"461 221 CURVE SMOOTH",
"468 211 OFFCURVE",
"468 195 OFFCURVE",
"468 183 CURVE SMOOTH",
"468 97 LINE SMOOTH",
"468 85 OFFCURVE",
"468 69 OFFCURVE",
"461 59 CURVE SMOOTH",
"458 55 OFFCURVE",
"449 45 OFFCURVE",
"432 45 CURVE SMOOTH",
"415 45 OFFCURVE",
"406 55 OFFCURVE",
"402 59 CURVE SMOOTH",
"394 69 OFFCURVE",
"394 85 OFFCURVE",
"394 97 CURVE SMOOTH"
);
}
);
width = 563;
}
);
unicode = 0025;
},
{
glyphname = at;
layers = (
{
hints = (
{
place = "{74, 79}";
},
{
place = "{226, 57}";
},
{
place = "{409, 72}";
},
{
place = "{413, 68}";
},
{
place = "{565, 66}";
},
{
place = "{814, 64}";
},
{
place = "{1031, 72}";
},
{
place = "{1035, 64}";
},
{
place = "{1000, 66}";
},
{
place = "{1265, 64}";
},
{
place = "{1259, 64}";
},
{
place = "{1710, 70}";
},
{
place = "{2010, 70}";
},
{
place = "{2245, 44}";
},
{
place = "{2410, 44}";
},
{
place = "{2422, 44}";
},
{
place = "{2586, 44}";
},
{
place = "{2250, 64}";
},
{
place = "{2507, 64}";
},
{
place = "{1949, 70}";
},
{
place = "{2250, 70}";
},
{
place = "{1352, 42}";
},
{
place = "{1503, 42}";
},
{
place = "{1197, 70}";
},
{
place = "{1497, 70}";
},
{
place = "{1208, 70}";
},
{
place = "{1508, 70}";
},
{
place = "{-395, 64}";
},
{
horizontal = 1;
place = "{-19, 67}";
},
{
horizontal = 1;
place = "{154, 47}";
},
{
horizontal = 1;
place = "{422, 50}";
},
{
horizontal = 1;
place = "{621, 66}";
},
{
horizontal = 1;
place = "{-9, 57}";
},
{
horizontal = 1;
place = "{237, 62}";
},
{
horizontal = 1;
place = "{463, -20}";
target = down;
type = TopGhost;
},
{
horizontal = 1;
place = "{450, 85}";
},
{
horizontal = 1;
place = "{610, -75}";
},
{
horizontal = 1;
place = "{0, 21}";
},
{
horizontal = 1;
place = "{-9, 62}";
},
{
horizontal = 1;
place = "{397, 62}";
},
{
horizontal = 1;
place = "{655, -20}";
target = down;
type = TopGhost;
},
{
horizontal = 1;
place = "{-9, 62}";
},
{
horizontal = 1;
place = "{397, 62}";
},
{
horizontal = 1;
place = "{-9, 66}";
},
{
horizontal = 1;
place = "{559, 66}";
},
{
horizontal = 1;
place = "{-9, 40}";
},
{
horizontal = 1;
place = "{222, 40}";
},
{
horizontal = 1;
place = "{401, 40}";
},
{
horizontal = 1;
place = "{631, 41}";
},
{
horizontal = 1;
place = "{397, 62}";
},
{
horizontal = 1;
place = "{-9, 21}";
},
{
horizontal = 1;
place = "{-9, 66}";
},
{
horizontal = 1;
place = "{559, 66}";
},
{
horizontal = 1;
place = "{295, 39}";
},
{
horizontal = 1;
place = "{298, 36}";
},
{
horizontal = 1;
place = "{457, 39}";
},
{
horizontal = 1;
place = "{120, 13}";
},
{
horizontal = 1;
place = "{115, 13}";
},
{
horizontal = 1;
place = "{-9, 66}";
},
{
horizontal = 1;
place = "{559, 66}";
},
{
horizontal = 1;
place = "{615, -66}";
},
{
horizontal = 1;
place = "{47, -66}";
},
{
horizontal = 1;
place = "{-9, 62}";
},
{
horizontal = 1;
place = "{397, 62}";
}
);
layerId = UUID0;
paths = (
{
closed = 1;
nodes = (
"150 -51 OFFCURVE",
"123 38 OFFCURVE",
"123 123 CURVE SMOOTH",
"123 387 LINE SMOOTH",
"123 472 OFFCURVE",
"154 557 OFFCURVE",
"267 557 CURVE SMOOTH",
"367 557 OFFCURVE",
"396 509 OFFCURVE",
"411 450 CURVE",
"392 455 OFFCURVE",
"376 460 OFFCURVE",
"350 460 CURVE SMOOTH",
"241 460 OFFCURVE",
"188 359 OFFCURVE",
"188 253 CURVE SMOOTH",
"188 147 OFFCURVE",
"232 47 OFFCURVE",
"354 47 CURVE SMOOTH",
"413 47 OFFCURVE",
"466 66 OFFCURVE",
"502 87 CURVE",
"477 132 LINE",
"477 393 LINE SMOOTH",
"477 524 OFFCURVE",
"424 616 OFFCURVE",
"271 616 CURVE SMOOTH",
"116 616 OFFCURVE",
"59 512 OFFCURVE",
"59 385 CURVE SMOOTH",
"59 121 LINE SMOOTH",
"59 -6 OFFCURVE",
"116 -110 OFFCURVE",
"271 -110 CURVE",
"308 -110 OFFCURVE",
"346 -104 OFFCURVE",
"378 -91 CURVE",
"378 -30 LINE",
"346 -45 OFFCURVE",
"309 -51 OFFCURVE",
"273 -51 CURVE"
);
},
{
closed = 1;
nodes = (
"412 121 LINE",
"397 112 OFFCURVE",
"375 107 OFFCURVE",
"355 107 CURVE SMOOTH",
"274 107 OFFCURVE",
"255 187 OFFCURVE",
"255 253 CURVE SMOOTH",
"255 320 OFFCURVE",
"278 400 OFFCURVE",
"355 400 CURVE SMOOTH",
"382 400 OFFCURVE",
"402 393 OFFCURVE",
"412 387 CURVE"
);
}
);
width = 537;
}
);
unicode = 0040;
},
{
glyphname = ampersand;
layers = (
{
hints = (
{
place = "{132, 73}";
},
{
place = "{331, 73}";
},
{
place = "{378, -70}";
},
{
place = "{182, -70}";
},
{
place = "{104, -72}";
},
{
place = "{-35, -70}";
},
{
place = "{-335, -70}";
},
{
place = "{496, 70}";
},
{
place = "{509, 70}";
},
{
place = "{1213, -70}";
},
{
place = "{913, -70}";
},
{
horizontal = 1;
place = "{-9, 62}";
},
{
horizontal = 1;
place = "{625, -20}";
target = down;
type = TopGhost;
},
{
horizontal = 1;
place = "{-8, 66}";
},
{
horizontal = 1;
place = "{300, 66}";
},
{
horizontal = 1;
place = "{559, 66}";
},
{
horizontal = 1;
place = "{-9, 66}";
},
{
horizontal = 1;
place = "{559, 66}";
},
{
horizontal = 1;
place = "{-9, 67}";
},
{
horizontal = 1;
place = "{559, 66}";
},
{
horizontal = 1;
place = "{322, 66}";
},
{
horizontal = 1;
place = "{550, 66}";
},
{
horizontal = 1;
place = "{-19, 21}";
},
{
horizontal = 1;
place = "{-9, 66}";
},
{
horizontal = 1;
place = "{559, 66}";
}
);
layerId = UUID0;
paths = (
{
closed = 1;
nodes = (
"294 387 LINE",
"233 387 LINE SMOOTH",
"216 387 OFFCURVE",
"199 385 OFFCURVE",
"182 381 CURVE",
"182 552 LINE",
"376 552 LINE",
"376 616 LINE",
"92 616 LINE",
"112 552 LINE",
"112 353 LINE",
"65 322 OFFCURVE",
"31 269 OFFCURVE",
"32 184 CURVE SMOOTH",
"34 65 OFFCURVE",
"103 -10 OFFCURVE",
"251 -10 CURVE SMOOTH",
"320 -10 OFFCURVE",
"398 16 OFFCURVE",
"444 64 CURVE",
"408 110 LINE",
"408 243 LINE",
"263 243 LINE",
"263 179 LINE",
"338 179 LINE",
"338 78 LINE",
"315 61 OFFCURVE",
"283 54 OFFCURVE",
"249 54 CURVE SMOOTH",
"153 54 OFFCURVE",
"104 106 OFFCURVE",
"104 187 CURVE SMOOTH",
"104 269 OFFCURVE",
"150 323 OFFCURVE",
"234 323 CURVE SMOOTH",
"294 323 LINE"
);
}
);
width = 461;
}
);
unicode = 0026;
},
{
glyphname = paragraph;
layers = (
{
hints = (
{
place = "{38, 199}";
},
{
place = "{170, 67}";
},
{
place = "{281, 68}";
},
{
place = "{803, -70}";
},
{
place = "{512, -70}";
},
{
horizontal = 1;
place = "{613, 56}";
},
{
horizontal = 1;
place = "{-91, 21}";
},
{
horizontal = 1;
place = "{0, 66}";
},
{
horizontal = 1;
place = "{626, -20}";
target = down;
type = TopGhost;
}
);
layerId = UUID0;
paths = (
{
closed = 1;
nodes = (
"150 287 LINE SMOOTH",
"126 287 OFFCURVE",
"92 289 OFFCURVE",
"65 318 CURVE SMOOTH",
"34 352 OFFCURVE",
"37 399 OFFCURVE",
"37 424 CURVE SMOOTH",
"37 518 LINE SMOOTH",
"37 543 OFFCURVE",
"34 590 OFFCURVE",
"65 624 CURVE SMOOTH",
"92 653 OFFCURVE",
"126 655 OFFCURVE",
"150 655 CURVE SMOOTH",
"417 655 LINE",
"417 591 LINE",
"377 591 LINE",
"377 -105 LINE",
"307 -105 LINE",
"307 591 LINE",
"239 591 LINE",
"239 -105 LINE",
"170 -105 LINE",
"170 287 LINE"
);
}
);
width = 459;
}
);
unicode = 00B6;
},
{
glyphname = section;
layers = (
{
hints = (
{
place = "{64, 65}";
},
{
place = "{87, 67}";
},
{
place = "{296, 67}";
},
{
place = "{321, 67}";
},
{
place = "{829, -70}";
},
{
place = "{978, 70}";
},
{
place = "{379, -64}";
},
{
place = "{-719, 64}";
},
{
place = "{-461, 64}";
},
{
place = "{753, -64}";
},
{
place = "{-345, 64}";
},
{
place = "{-87, 64}";
},
{
place = "{-435, -64}";
},
{
place = "{-693, -64}";
},
{
place = "{-555, 64}";
},
{
horizontal = 1;
place = "{-88, 56}";
},
{
horizontal = 1;
place = "{632, 55}";
},
{
horizontal = 1;
place = "{-7, 66}";
},
{
horizontal = 1;
place = "{561, 66}";
},
{
horizontal = 1;
place = "{-1, 67}";
},
{
horizontal = 1;
place = "{567, 66}";
},
{
horizontal = 1;
place = "{-9, 62}";
},
{
horizontal = 1;
place = "{459, -20}";
target = down;
type = TopGhost;
},
{
horizontal = 1;
place = "{-16, 62}";
},
{
horizontal = 1;
place = "{390, 62}";
},
{
horizontal = 1;
place = "{397, 62}";
},
{
horizontal = 1;
place = "{-9, 21}";
},
{
horizontal = 1;
place = "{-9, 62}";
},
{
horizontal = 1;
place = "{459, -20}";
target = down;
type = TopGhost;
},
{
horizontal = 1;
place = "{-16, 62}";
},
{
horizontal = 1;
place = "{390, 62}";
},
{
horizontal = 1;
place = "{397, 62}";
},
{
horizontal = 1;
place = "{-9, 21}";
},
{
horizontal = 1;
place = "{53, -62}";
},
{
horizontal = 1;
place = "{449, 21}";
target = up;
type = BottomGhost;
},
{
horizontal = 1;
place = "{459, -62}";
},
{
horizontal = 1;
place = "{53, -62}";
}
);
layerId = UUID0;
paths = (
{
closed = 1;
nodes = (
"202 164 OFFCURVE",
"150 168 OFFCURVE",
"111 208 CURVE SMOOTH",
"65 256 OFFCURVE",
"68 322 OFFCURVE",
"68 359 CURVE SMOOTH",
"68 542 LINE",
"34 583 LINE",
"68 612 OFFCURVE",
"132 654 OFFCURVE",
"235 654 CURVE SMOOTH",
"273 654 OFFCURVE",
"306 648 OFFCURVE",
"338 635 CURVE",
"338 572 LINE",
"305 588 OFFCURVE",
"273 594 OFFCURVE",
"236 594 CURVE SMOOTH",
"197 594 OFFCURVE",
"165 586 OFFCURVE",
"132 568 CURVE",
"132 452 LINE",
"143 453 OFFCURVE",
"155 454 OFFCURVE",
"168 454 CURVE SMOOTH",
"204 454 OFFCURVE",
"256 450 OFFCURVE",
"295 410 CURVE SMOOTH",
"341 362 OFFCURVE",
"338 296 OFFCURVE",
"338 259 CURVE SMOOTH",
"338 76 LINE",
"372 35 LINE",
"338 6 OFFCURVE",
"274 -36 OFFCURVE",
"171 -36 CURVE SMOOTH",
"133 -36 OFFCURVE",
"100 -30 OFFCURVE",
"68 -17 CURVE",
"68 46 LINE",
"101 30 OFFCURVE",
"133 24 OFFCURVE",
"170 24 CURVE SMOOTH",
"209 24 OFFCURVE",
"241 32 OFFCURVE",
"274 50 CURVE",
"274 166 LINE",
"262 164 OFFCURVE",
"250 164 OFFCURVE",
"238 164 CURVE SMOOTH"
);
},
{
closed = 1;
nodes = (
"164 245 OFFCURVE",
"188 224 OFFCURVE",
"236 224 CURVE SMOOTH",
"247 224 OFFCURVE",
"260 225 OFFCURVE",
"274 227 CURVE",
"274 259 LINE SMOOTH",
"274 288 OFFCURVE",
"274 332 OFFCURVE",
"252 360 CURVE SMOOTH",
"242 373 OFFCURVE",
"218 394 OFFCURVE",
"170 394 CURVE SMOOTH",
"158 394 OFFCURVE",
"145 393 OFFCURVE",
"132 391 CURVE",
"132 359 LINE SMOOTH",
"132 330 OFFCURVE",
"132 286 OFFCURVE",
"154 258 CURVE SMOOTH"
);
}
);
width = 405;
}
);
unicode = 00A7;
},
{
glyphname = copyright;
layers = (
{
hints = (
{
place = "{105, 64}";
},
{
place = "{556, 70}";
},
{
place = "{856, 70}";
},
{
place = "{1091, 44}";
},
{
place = "{1256, 44}";
},
{
place = "{1268, 44}";
},
{
place = "{1432, 44}";
},
{
place = "{1095, 64}";
},
{
place = "{1353, 64}";
},
{
place = "{795, 70}";
},
{
place = "{1095, 70}";
},
{
horizontal = 1;
place = "{-9, 62}";
},
{
horizontal = 1;
place = "{397, 62}";
},
{
horizontal = 1;
place = "{-9, 66}";
},
{
horizontal = 1;
place = "{559, 66}";
},
{
horizontal = 1;
place = "{-9, 40}";
},
{
horizontal = 1;
place = "{222, 40}";
},
{
horizontal = 1;
place = "{401, 40}";
},
{
horizontal = 1;
place = "{631, 41}";
},
{
horizontal = 1;
place = "{397, 62}";
},
{
horizontal = 1;
place = "{-9, 21}";
},
{
horizontal = 1;
place = "{-9, 66}";
},
{
horizontal = 1;
place = "{559, 66}";
}
);
layerId = UUID0;
paths = (
{
closed = 1;
nodes = (
"404 486 LINE",
"380 492 OFFCURVE",
"355 497 OFFCURVE",
"326 497 CURVE SMOOTH",
"297 497 OFFCURVE",
"255 494 OFFCURVE",
"223 461 CURVE SMOOTH",
"185 422 OFFCURVE",
"188 368 OFFCURVE",
"188 338 CURVE SMOOTH",
"188 205 LINE",
"160 172 LINE",
"188 148 OFFCURVE",
"240 114 OFFCURVE",
"324 114 CURVE SMOOTH",
"355 114 OFFCURVE",
"382 119 OFFCURVE",
"408 129 CURVE",
"408 181 LINE",
"381 168 OFFCURVE",
"355 163 OFFCURVE",
"325 163 CURVE SMOOTH",
"293 163 OFFCURVE",
"267 169 OFFCURVE",
"240 184 CURVE",
"240 338 LINE SMOOTH",
"240 362 OFFCURVE",
"240 398 OFFCURVE",
"258 420 CURVE SMOOTH",
"266 431 OFFCURVE",
"286 448 OFFCURVE",
"325 448 CURVE SMOOTH",
"344 448 OFFCURVE",
"370 444 OFFCURVE",
"390 438 CURVE"
);
},
{
closed = 1;
nodes = (
"542 554 LINE",
"503 582 OFFCURVE",
"419 626 OFFCURVE",
"304 626 CURVE SMOOTH",
"189 626 OFFCURVE",
"105 582 OFFCURVE",
"66 554 CURVE",
"66 62 LINE",
"105 34 OFFCURVE",
"189 -10 OFFCURVE",
"304 -10 CURVE SMOOTH",
"419 -10 OFFCURVE",
"503 34 OFFCURVE",
"542 62 CURVE"
);
},
{
closed = 1;
nodes = (
"495 87 LINE",
"448 54 OFFCURVE",
"378 35 OFFCURVE",
"302 35 CURVE SMOOTH",
"227 35 OFFCURVE",
"156 54 OFFCURVE",
"109 87 CURVE",
"109 529 LINE",
"156 562 OFFCURVE",
"227 581 OFFCURVE",
"302 581 CURVE SMOOTH",
"378 581 OFFCURVE",
"448 562 OFFCURVE",
"495 529 CURVE"
);
}
);
width = 608;
}
);
unicode = 00A9;
},
{
glyphname = registered;
layers = (
{
hints = (
{
place = "{105, 64}";
},
{
place = "{556, 70}";
},
{
place = "{856, 70}";
},
{
place = "{1091, 44}";
},
{
place = "{1256, 44}";
},
{
place = "{1268, 44}";
},
{
place = "{1432, 44}";
},
{
place = "{1095, 64}";
},
{
place = "{1353, 64}";
},
{
place = "{795, 70}";
},
{
place = "{1095, 70}";
},
{
place = "{198, 42}";
},
{
place = "{349, 42}";
},
{
horizontal = 1;
place = "{-9, 62}";
},
{
horizontal = 1;
place = "{397, 62}";
},
{
horizontal = 1;
place = "{-9, 66}";
},
{
horizontal = 1;
place = "{559, 66}";
},
{
horizontal = 1;
place = "{-9, 40}";
},
{
horizontal = 1;
place = "{222, 40}";
},
{
horizontal = 1;
place = "{401, 40}";
},
{
horizontal = 1;
place = "{631, 41}";
},
{
horizontal = 1;
place = "{397, 62}";
},
{
horizontal = 1;
place = "{-9, 21}";
},
{
horizontal = 1;
place = "{-9, 66}";
},
{
horizontal = 1;
place = "{559, 66}";
},
{
horizontal = 1;
place = "{295, 39}";
},
{
horizontal = 1;
place = "{298, 36}";
},
{
horizontal = 1;
place = "{457, 39}";
},
{
horizontal = 1;
place = "{120, 13}";
},
{
horizontal = 1;
place = "{115, 13}";
}
);
layerId = UUID0;
paths = (
{
closed = 1;
nodes = (
"542 554 LINE",
"503 582 OFFCURVE",
"419 626 OFFCURVE",
"304 626 CURVE SMOOTH",
"189 626 OFFCURVE",
"105 582 OFFCURVE",
"66 554 CURVE",
"66 62 LINE",
"105 34 OFFCURVE",
"189 -10 OFFCURVE",
"304 -10 CURVE SMOOTH",
"419 -10 OFFCURVE",
"503 34 OFFCURVE",
"542 62 CURVE"
);
},
{
closed = 1;
nodes = (
"495 87 LINE",
"448 54 OFFCURVE",
"378 35 OFFCURVE",
"302 35 CURVE SMOOTH",
"227 35 OFFCURVE",
"156 54 OFFCURVE",
"109 87 CURVE",
"109 529 LINE",
"156 562 OFFCURVE",
"227 581 OFFCURVE",
"302 581 CURVE SMOOTH",
"378 581 OFFCURVE",
"448 562 OFFCURVE",
"495 529 CURVE"
);
},
{
closed = 1;
nodes = (
"198 436 LINE",
"198 120 LINE",
"250 120 LINE",
"250 304 LINE",
"290 304 LINE",
"377 114 LINE",
"424 135 LINE",
"347 304 LINE",
"406 304 LINE",
"406 383 LINE SMOOTH",
"406 413 OFFCURVE",
"403 444 OFFCURVE",
"374 470 CURVE SMOOTH",
"354 487 OFFCURVE",
"328 497 OFFCURVE",
"290 497 CURVE SMOOTH",
"254 497 OFFCURVE",
"215 487 OFFCURVE",
"181 473 CURVE"
);
},
{
closed = 1;
nodes = (
"250 442 LINE",
"260 446 OFFCURVE",
"272 448 OFFCURVE",
"286 448 CURVE SMOOTH",
"332 448 OFFCURVE",
"354 421 OFFCURVE",
"354 372 CURVE SMOOTH",
"354 353 LINE",
"250 353 LINE"
);
}
);
width = 608;
}
);
unicode = 00AE;
},
{
glyphname = degree;
layers = (
{
hints = (
{
place = "{34, 44}";
},
{
place = "{199, 44}";
},
{
place = "{210, 44}";
},
{
place = "{375, 44}";
},
{
place = "{38, 64}";
},
{
place = "{295, 64}";
},
{
horizontal = 1;
place = "{-9, 40}";
},
{
horizontal = 1;
place = "{222, 40}";
},
{
horizontal = 1;
place = "{401, 40}";
},
{
horizontal = 1;
place = "{631, 41}";
},
{
horizontal = 1;
place = "{397, 62}";
},
{
horizontal = 1;
place = "{-9, 21}";
}
);
layerId = UUID0;
paths = (
{
closed = 1;
nodes = (
"222 624 OFFCURVE",
"188 655 OFFCURVE",
"128 655 CURVE SMOOTH",
"59 655 OFFCURVE",
"37 614 OFFCURVE",
"37 562 CURVE SMOOTH",
"37 501 OFFCURVE",
"73 470 OFFCURVE",
"128 470 CURVE SMOOTH",
"198 470 OFFCURVE",
"222 512 OFFCURVE",
"222 562 CURVE SMOOTH"
);
},
{
closed = 1;
nodes = (
"91 584 OFFCURVE",
"101 600 OFFCURVE",
"127 600 CURVE SMOOTH",
"155 600 OFFCURVE",
"165 584 OFFCURVE",
"165 563 CURVE SMOOTH",
"165 541 OFFCURVE",
"155 526 OFFCURVE",
"127 526 CURVE SMOOTH",
"101 526 OFFCURVE",
"91 541 OFFCURVE",
"91 563 CURVE SMOOTH"
);
}
);
width = 258;
}
);
unicode = 00B0;
},
{
glyphname = bar;
layers = (
{
hints = (
{
place = "{65, 59}";
},
{
horizontal = 1;
place = "{-236, 21}";
},
{
horizontal = 1;
place = "{764, -20}";
target = down;
type = TopGhost;
}
);
layerId = UUID0;
paths = (
{
closed = 1;
nodes = (
"65 -211 LINE",
"129 -211 LINE",
"129 655 LINE",
"65 655 LINE"
);
}
);
width = 194;
}
);
unicode = 007C;
},
{
glyphname = brokenbar;
layers = (
{
hints = (
{
place = "{66, 59}";
},
{
horizontal = 1;
place = "{-236, 21}";
},
{
horizontal = 1;
place = "{764, -20}";
target = down;
type = TopGhost;
}
);
layerId = UUID0;
paths = (
{
closed = 1;
nodes = (
"66 -211 LINE",
"130 -211 LINE",
"130 120 LINE",
"66 120 LINE"
);
},
{
closed = 1;
nodes = (
"130 655 LINE",
"66 655 LINE",
"66 323 LINE",
"130 323 LINE"
);
}
);
width = 196;
}
);
unicode = 00A6;
},
{
glyphname = asciicircum;
layers = (
{
hints = (
{
horizontal = 1;
place = "{387, 21}";
},
{
horizontal = 1;
place = "{675, -20}";
target = down;
type = TopGhost;
}
);
layerId = UUID0;
paths = (
{
closed = 1;
nodes = (
"193 655 LINE",
"-30 431 LINE",
"16 385 LINE",
"225 595 LINE",
"433 385 LINE",
"479 431 LINE",
"257 655 LINE"
);
}
);
width = 455;
}
);
unicode = 005E;
},
{
glyphname = acute;
layers = (
{
hints = (
{
place = "{-253, -70}";
},
{
horizontal = 1;
place = "{124, 21}";
},
{
horizontal = 1;
place = "{544, -20}";
target = down;
type = TopGhost;
},
{
horizontal = 1;
place = "{303, 67}";
},
{
horizontal = 1;
place = "{102, 21}";
},
{
horizontal = 1;
place = "{567, -20}";
target = down;
type = TopGhost;
}
);
layerId = UUID0;
paths = (
{
closed = 1;
nodes = (
"146 655 LINE",
"40 550 LINE",
"86 504 LINE",
"192 609 LINE"
);
}
);
width = 232;
}
);
unicode = 00B4;
},
{
glyphname = caron;
layers = (
{
hints = (
{
place = "{605, 70}";
},
{
horizontal = 1;
place = "{124, 21}";
},
{
horizontal = 1;
place = "{544, -20}";
target = down;
type = TopGhost;
},
{
horizontal = 1;
place = "{303, 67}";
},
{
horizontal = 1;
place = "{102, 21}";
},
{
horizontal = 1;
place = "{567, -20}";
target = down;
type = TopGhost;
}
);
layerId = UUID0;
paths = (
{
closed = 1;
nodes = (
"144 505 LINE",
"40 609 LINE",
"86 655 LINE",
"176 564 LINE",
"266 655 LINE",
"312 609 LINE",
"208 505 LINE"
);
}
);
width = 352;
}
);
unicode = 02C7;
},
{
glyphname = cedilla;
layers = (
{
hints = (
{
place = "{581, 83}";
},
{
place = "{-430, 82}";
},
{
place = "{-178, 82}";
},
{
horizontal = 1;
place = "{-9, 71}";
},
{
horizontal = 1;
place = "{459, -20}";
target = down;
type = TopGhost;
},
{
horizontal = 1;
place = "{-16, 71}";
},
{
horizontal = 1;
place = "{382, 70}";
},
{
horizontal = 1;
place = "{388, 71}";
},
{
horizontal = 1;
place = "{-9, 31}";
}
);
layerId = UUID0;
paths = (
{
closed = 1;
nodes = (
"135 -77 LINE",
"161 -77 OFFCURVE",
"174 -84 OFFCURVE",
"174 -101 CURVE SMOOTH",
"174 -119 OFFCURVE",
"156 -124 OFFCURVE",
"137 -124 CURVE SMOOTH",
"106 -124 OFFCURVE",
"73 -114 OFFCURVE",
"40 -100 CURVE",
"40 -154 LINE",
"65 -165 OFFCURVE",
"99 -173 OFFCURVE",
"137 -173 CURVE SMOOTH",
"187 -173 OFFCURVE",
"235 -155 OFFCURVE",
"235 -101 CURVE SMOOTH",
"235 -53 OFFCURVE",
"202 -30 OFFCURVE",
"147 -30 CURVE",
"143 -30 LINE",
"143 0 LINE",
"83 0 LINE",
"83 -77 LINE"
);
}
);
width = 275;
}
);
unicode = 00B8;
},
{
glyphname = circumflex;
layers = (
{
hints = (
{
place = "{605, 70}";
},
{
horizontal = 1;
place = "{124, 21}";
},
{
horizontal = 1;
place = "{544, -20}";
target = down;
type = TopGhost;
},
{
horizontal = 1;
place = "{303, 67}";
},
{
horizontal = 1;
place = "{102, 21}";
},
{
horizontal = 1;
place = "{567, -20}";
target = down;
type = TopGhost;
}
);
layerId = UUID0;
paths = (
{
closed = 1;
nodes = (
"144 655 LINE",
"40 551 LINE",
"86 505 LINE",
"176 595 LINE",
"266 505 LINE",
"312 551 LINE",
"208 655 LINE"
);
}
);
width = 352;
}
);
unicode = 02C6;
},
{
glyphname = dieresis;
layers = (
{
hints = (
{
place = "{40, 72}";
},
{
place = "{44, 64}";
},
{
horizontal = 1;
place = "{450, 85}";
},
{
horizontal = 1;
place = "{610, -75}";
},
{
horizontal = 1;
place = "{0, 21}";
}
);
layerId = UUID0;
paths = (
{
closed = 1;
nodes = (
"40 616 LINE",
"40 541 LINE",
"112 541 LINE",
"112 616 LINE"
);
},
{
closed = 1;
nodes = (
"172 616 LINE",
"172 541 LINE",
"244 541 LINE",
"244 616 LINE"
);
}
);
width = 284;
}
);
unicode = 00A8;
},
{
glyphname = grave;
layers = (
{
hints = (
{
place = "{485, 70}";
},
{
horizontal = 1;
place = "{124, 21}";
},
{
horizontal = 1;
place = "{544, -20}";
target = down;
type = TopGhost;
},
{
horizontal = 1;
place = "{303, 67}";
},
{
horizontal = 1;
place = "{102, 21}";
},
{
horizontal = 1;
place = "{567, -20}";
target = down;
type = TopGhost;
}
);
layerId = UUID0;
paths = (
{
closed = 1;
nodes = (
"40 609 LINE",
"146 504 LINE",
"192 550 LINE",
"86 655 LINE"
);
}
);
width = 232;
}
);
unicode = 0060;
},
{
glyphname = macron;
layers = (
{
hints = (
{
horizontal = 1;
place = "{199, 93}";
}
);
layerId = UUID0;
paths = (
{
closed = 1;
nodes = (
"40 554 LINE",
"292 554 LINE",
"292 616 LINE",
"40 616 LINE"
);
}
);
width = 332;
}
);
unicode = 00AF;
},
{
glyphname = ring;
layers = (
{
hints = (
{
place = "{57, 44}";
},
{
place = "{222, 44}";
},
{
place = "{234, 44}";
},
{
place = "{398, 44}";
},
{
place = "{61, 64}";
},
{
place = "{319, 64}";
},
{
horizontal = 1;
place = "{-9, 40}";
},
{
horizontal = 1;
place = "{222, 40}";
},
{
horizontal = 1;
place = "{401, 40}";
},
{
horizontal = 1;
place = "{631, 41}";
},
{
horizontal = 1;
place = "{397, 62}";
},
{
horizontal = 1;
place = "{-9, 21}";
}
);
layerId = UUID0;
paths = (
{
closed = 1;
nodes = (
"246 634 OFFCURVE",
"213 665 OFFCURVE",
"153 665 CURVE SMOOTH",
"93 665 OFFCURVE",
"60 634 OFFCURVE",
"60 576 CURVE SMOOTH",
"60 518 OFFCURVE",
"93 486 OFFCURVE",
"153 486 CURVE SMOOTH",
"213 486 OFFCURVE",
"246 518 OFFCURVE",
"246 576 CURVE SMOOTH"
);
},
{
closed = 1;
nodes = (
"116 596 OFFCURVE",
"127 610 OFFCURVE",
"153 610 CURVE SMOOTH",
"179 610 OFFCURVE",
"190 596 OFFCURVE",
"190 576 CURVE SMOOTH",
"190 555 OFFCURVE",
"179 542 OFFCURVE",
"153 542 CURVE SMOOTH",
"127 542 OFFCURVE",
"116 555 OFFCURVE",
"116 576 CURVE SMOOTH"
);
}
);
width = 299;
}
);
unicode = 02DA;
},
{
glyphname = tilde;
layers = (
{
hints = (
{
place = "{791, -64}";
},
{
place = "{-307, 64}";
},
{
place = "{-49, 64}";
},
{
place = "{-115, 64}";
},
{
place = "{143, 64}";
},
{
horizontal = 1;
place = "{280, 67}";
},
{
horizontal = 1;
place = "{322, 67}";
},
{
horizontal = 1;
place = "{272, 21}";
},
{
horizontal = 1;
place = "{397, -20}";
target = down;
type = TopGhost;
},
{
horizontal = 1;
place = "{-9, 62}";
},
{
horizontal = 1;
place = "{459, -20}";
target = down;
type = TopGhost;
},
{
horizontal = 1;
place = "{-16, 62}";
},
{
horizontal = 1;
place = "{390, 62}";
},
{
horizontal = 1;
place = "{397, 62}";
},
{
horizontal = 1;
place = "{-9, 21}";
},
{
horizontal = 1;
place = "{718, 62}";
},
{
horizontal = 1;
place = "{312, 21}";
}
);
layerId = UUID0;
paths = (
{
closed = 1;
nodes = (
"84 515 LINE",
"84 515 OFFCURVE",
"108 562 OFFCURVE",
"146 578 CURVE",
"208 517 LINE",
"260 534 OFFCURVE",
"299 570 OFFCURVE",
"332 612 CURVE",
"288 653 LINE",
"288 653 OFFCURVE",
"264 607 OFFCURVE",
"226 590 CURVE",
"164 651 LINE",
"117 635 OFFCURVE",
"74 602 OFFCURVE",
"40 556 CURVE"
);
}
);
width = 372;
}
);
unicode = 02DC;
},
{
glyphname = uniEFFD;
layers = (
{
layerId = UUID0;
paths = (
{
closed = 1;
nodes = (
"50 0 LINE",
"464 0 LINE",
"464 500 LINE",
"50 500 LINE"
);
},
{
closed = 1;
nodes = (
"112 438 LINE",
"402 438 LINE",
"402 62 LINE",
"112 62 LINE"
);
}
);
width = 529;
}
);
unicode = EFFD;
},
